<svg xmlns:xlink="http://www.w3.org/1999/xlink" xmlns="http://www.w3.org/2000/svg" viewBox="0 0 600 600" width="600" height="600" preserveAspectRatio="xMidYMid meet" style="width: 100%; height: 100%; transform: translate3d(0px, 0px, 0px);"><defs><clipPath id="__lottie_element_47"><rect width="600" height="600" x="0" y="0"></rect></clipPath></defs><g clip-path="url(#__lottie_element_47)"><g transform="matrix(10.144020080566406,0,0,10.144020080566406,300,300)" opacity="1" style="display: block;"><g opacity="1" transform="matrix(1,0,0,1,0,0)"><path fill="#792F6C" fill-opacity="1" d=" M28.76099967956543,16.173999786376953 C28.766000747680664,15.21399974822998 28.402999877929688,14.098999977111816 28.06999969482422,13.090999603271484 C27.708999633789062,12.17300033569336 27.33099937438965,11.35200023651123 27.142000198364258,10.909000396728516 C26.45800018310547,9.315999984741211 26.270000457763672,7.580999851226807 25.865999221801758,5.894000053405762 C25.45800018310547,4.198999881744385 24.687999725341797,2.627000093460083 24.047000885009766,1.003000020980835 C23.583999633789062,-0.1679999977350235 23.128000259399414,-1.3480000495910645 22.583999633789062,-2.506999969482422 C22.113000869750977,-3.5309998989105225 21.551000595092773,-4.5279998779296875 20.913999557495117,-5.502999782562256 C20.56999969482422,-6.031000137329102 20.20599937438965,-6.525000095367432 19.836000442504883,-7.007999897003174 C19.218000411987305,-7.828999996185303 17.94099998474121,-9.39799976348877 17.51099967956543,-10.29800033569336 C16.784000396728516,-11.79699993133545 16.197999954223633,-12.017999649047852 15.09000015258789,-13.218999862670898 C13.814000129699707,-14.649999618530273 11.687999725341797,-16.909000396728516 10.86299991607666,-17.27899932861328 C10.456000328063965,-17.466999053955078 9.579999923706055,-18.156999588012695 8.668000221252441,-18.85099983215332 C8.583000183105469,-18.913999557495117 8.50100040435791,-18.975000381469727 8.416000366210938,-19.03700065612793 C8.458999633789062,-19.1200008392334 8.484000205993652,-19.183000564575195 8.484000205993652,-19.183000564575195 C8.484000205993652,-19.183000564575195 8.920000076293945,-20.302000045776367 9.366000175476074,-21.023000717163086 C9.824999809265137,-21.738000869750977 10.074000358581543,-22.68000030517578 9.243000030517578,-22.777999877929688 C8.83899974822998,-22.83099937438965 7.822000026702881,-23.238000869750977 6.736999988555908,-23.538999557495117 C5.6539998054504395,-23.8439998626709 4.51200008392334,-24.023000717163086 3.986999988555908,-24.003000259399414 C3.4639999866485596,-23.97100067138672 2.187999963760376,-24.059999465942383 0.7789999842643738,-23.909000396728516 C-0.6320000290870667,-23.783000946044922 -2.1659998893737793,-23.44700050354004 -3.2320001125335693,-23.033000946044922 C-5.329999923706055,-22.202999114990234 -7.5320000648498535,-21.71500015258789 -9.472999572753906,-20.327999114990234 C-10,-19.92799949645996 -10.645000457763672,-19.80500030517578 -11.135000228881836,-19.393999099731445 C-11.152999877929688,-19.378999710083008 -11.173999786376953,-19.361000061035156 -11.197999954223633,-19.340999603271484 C-11.442000389099121,-19.1299991607666 -11.951000213623047,-18.6200008392334 -12.434000015258789,-18.05500030517578 C-12.96500015258789,-17.437000274658203 -13.479000091552734,-16.770000457763672 -13.746000289916992,-16.44700050354004 C-15.54699993133545,-14.404999732971191 -17.117000579833984,-11.312000274658203 -17.5310001373291,-10.755000114440918 C-18.145000457763672,-9.916999816894531 -18.59000015258789,-8.970000267028809 -19.083999633789062,-8.088000297546387 C-19.41200065612793,-7.505000114440918 -19.764999389648438,-6.936999797821045 -20.138999938964844,-6.388999938964844 C-20.506000518798828,-5.8379998207092285 -20.958999633789062,-5.188000202178955 -21.32900047302246,-4.586999893188477 C-22.101999282836914,-3.359999895095825 -22.81800079345703,-2.111999988555908 -23.415000915527344,-0.8220000267028809 C-24.124000549316406,0.7099999785423279 -24.729999542236328,2.2809998989105225 -25.104000091552734,3.9130001068115234 C-25.474000930786133,5.4029998779296875 -27.16699981689453,10.156999588012695 -27.961000442504883,12.996000289916992 C-27.97800064086914,13.019000053405762 -28.000999450683594,13.034000396728516 -28.014999389648438,13.0600004196167 C-28.135000228881836,13.404000282287598 -28.836999893188477,15.527000427246094 -28.610000610351562,18.0939998626709 C-28.610000610351562,18.0939998626709 -28.57200050354004,18.56800079345703 -28.57200050354004,18.56800079345703 C-28.57200050354004,18.56800079345703 -28.454999923706055,19.065000534057617 -28.454999923706055,19.065000534057617 C-28.368000030517578,19.39299964904785 -28.281999588012695,19.715999603271484 -28.197999954223633,20.031999588012695 C-27.8799991607666,20.667999267578125 -27.645000457763672,21.284000396728516 -27.18400001525879,21.74799919128418 C-26.972999572753906,21.98200035095215 -26.79400062561035,22.219999313354492 -26.58099937438965,22.386999130249023 C-26.358999252319336,22.54599952697754 -26.156999588012695,22.690000534057617 -25.979000091552734,22.81800079345703 C-25.624000549316406,23.08799934387207 -25.332000732421875,23.183000564575195 -25.190000534057617,23.2549991607666 C-24.635000228881836,23.6299991607666 -22.79599952697754,24.05900001525879 -21.047000885009766,23.658000946044922 C-19.284000396728516,23.31999969482422 -17.652999877929688,22.277999877929688 -16.832000732421875,21.382999420166016 C-16.437999725341797,20.93199920654297 -16.09600067138672,20.555999755859375 -15.85200023651123,20.183000564575195 C-15.61400032043457,19.804000854492188 -15.420999526977539,19.496000289916992 -15.265999794006348,19.25 C-15.031999588012695,18.768999099731445 -14.895000457763672,18.548999786376953 -14.885000228881836,18.534000396728516 C-14.218999862670898,17.423999786376953 -14.3100004196167,16.08799934387207 -14.187000274658203,14.996000289916992 C-14.006999969482422,13.54800033569336 -14.105999946594238,12.307000160217285 -14.232999801635742,11.097999572753906 C-14.357000350952148,9.885000228881836 -14.508999824523926,8.699999809265137 -14.571999549865723,7.335000038146973 C-14.607000350952148,6.531000137329102 -14.71399974822998,5.426000118255615 -15.17199993133545,5 C-15.630999565124512,4.563000202178955 -16.915000915527344,4.85099983215332 -17.889999389648438,5.306000232696533 C-18.62700080871582,5.644000053405762 -18.0049991607666,7.554999828338623 -17.851999282836914,7.935999870300293 C-17.672000885009766,8.3100004196167 -17.63800048828125,10.593000411987305 -17.60300064086914,11.925999641418457 C-17.533000946044922,13.5649995803833 -17.878000259399414,15.331999778747559 -18.285999298095703,16.679000854492188 C-18.354999542236328,17.017000198364258 -18.465999603271484,17.257999420166016 -18.52199935913086,17.56999969482422 C-18.615999221801758,17.83799934387207 -18.684999465942383,18.073999404907227 -18.8439998626709,18.315000534057617 C-19.03700065612793,18.464000701904297 -19.163999557495117,18.650999069213867 -19.388999938964844,18.773000717163086 C-20.19099998474121,19.340999603271484 -21.274999618530273,19.84600067138672 -22.20199966430664,20.05299949645996 C-22.788999557495117,20.17799949645996 -23.35700035095215,20.202999114990234 -23.759000778198242,20.02899932861328 C-24.003000259399414,19.9950008392334 -24.124000549316406,19.81999969482422 -24.322999954223633,19.726999282836914 C-24.43600082397461,19.534000396728516 -24.634000778198242,19.42799949645996 -24.70400047302246,19.150999069213867 C-25.110000610351562,18.29800033569336 -25.04400062561035,16.878000259399414 -24.722000122070312,15.498000144958496 C-24.382999420166016,14.142000198364258 -23.792999267578125,12.531000137329102 -23.253000259399414,11.064000129699707 C-22.611000061035156,9.307999610900879 -21.981000900268555,6.2769999504089355 -21.68000030517578,5.185999870300293 C-21.15399932861328,3.2200000286102295 -20.06800079345703,1.4769999980926514 -19.077999114990234,-0.2409999966621399 C-18.573999404907227,-1.0980000495910645 -18.143999099731445,-1.9910000562667847 -17.684999465942383,-2.8350000381469727 C-17.464000701904297,-3.2750000953674316 -17.226999282836914,-3.6600000858306885 -16.986000061035156,-4.090000152587891 C-16.986000061035156,-4.090000152587891 -16.163999557495117,-5.447000026702881 -16.163999557495117,-5.447000026702881 C-16.163999557495117,-5.447000026702881 -13.8100004196167,-9.215999603271484 -13.8100004196167,-9.215999603271484 C-13.128999710083008,-10.29800033569336 -12.479000091552734,-11.369999885559082 -11.791999816894531,-12.385000228881836 C-11.425999641418457,-12.925000190734863 -11.055999755859375,-13.460000038146973 -10.661999702453613,-13.96500015258789 C-10.029999732971191,-14.842000007629395 -8.508000373840332,-16.35700035095215 -7.534999847412109,-16.65399932861328 C-5.998000144958496,-17.152999877929688 -5.572999954223633,-17.674999237060547 -3.9790000915527344,-18.305999755859375 C-3.0280001163482666,-18.652999877929688 -1.7480000257492065,-18.954999923706055 -0.6069999933242798,-19.118000030517578 C0.4230000078678131,-19.27899932861328 1.3350000381469727,-19.329999923706055 1.8209999799728394,-19.430999755859375 C1.8739999532699585,-19.441999435424805 1.9220000505447388,-19.45400047302246 1.9639999866485596,-19.465999603271484 C2.3949999809265137,-19.589000701904297 3.5439999103546143,-19.621000289916992 4.659999847412109,-19.41900062561035 C4.689000129699707,-19.413999557495117 4.716000080108643,-19.408000946044922 4.744999885559082,-19.402999877929688 C4.564000129699707,-19.04400062561035 4.328999996185303,-18.606000900268555 4.103000164031982,-18.26099967956543 C3.6470000743865967,-17.55299949645996 3.2960000038146973,-16.64699935913086 3.8380000591278076,-16.618000030517578 C4.4019999504089355,-16.614999771118164 6.164000034332275,-15.027999877929688 6.776000022888184,-14.670999526977539 C7.38100004196167,-14.383000373840332 9.199000358581543,-12.737000465393066 10.512999534606934,-11.713000297546387 C10.371000289916992,-11.74899959564209 16.78499984741211,-7.335000038146973 17.784000396728516,-2.9110000133514404 C18.488000869750977,-1.7730000019073486 19.09600067138672,-0.6899999976158142 19.21299934387207,-0.33899998664855957 C19.472000122070312,0.4339999854564667 19.895000457763672,1.156000018119812 20.238000869750977,1.9019999504089355 C21.149999618530273,3.884999990463257 21.57200050354004,6.116000175476074 22.23900032043457,8.239999771118164 C22.631000518798828,9.505999565124512 23.05500030517578,10.762999534606934 23.645000457763672,11.96399974822998 C24.19300079345703,13.072999954223633 25.34600067138672,17.01300048828125 24.709999084472656,18.489999771118164 C24.69700050354004,18.500999450683594 24.67799949645996,18.506999969482422 24.667999267578125,18.520000457763672 C24.63599967956543,18.555999755859375 24.613000869750977,18.665000915527344 24.56599998474121,18.790000915527344 C24.496999740600586,18.891000747680664 24.424999237060547,19.024999618530273 24.363000869750977,19.19300079345703 C24.163000106811523,19.43899917602539 23.989999771118164,19.749000549316406 23.562999725341797,19.885000228881836 C23.562999725341797,19.885000228881836 23.422000885009766,19.961999893188477 23.422000885009766,19.961999893188477 C23.422000885009766,19.961999893188477 23.240999221801758,19.993999481201172 23.240999221801758,19.993999481201172 C23.118999481201172,20.01300048828125 23.01099967956543,20.05900001525879 22.884000778198242,20.06999969482422 C22.617000579833984,20.055999755859375 22.374000549316406,20.118999481201172 22.12700080871582,20.05699920654297 C21.645999908447266,20.023000717163086 21.274999618530273,19.865999221801758 21.1560001373291,19.822999954223633 C20.92300033569336,19.71299934387207 20.191999435424805,19.368999481201172 19.562999725341797,18.832000732421875 C18.902000427246094,18.277000427246094 18.52400016784668,17.70400047302246 18.257999420166016,17.128999710083008 C18.041000366210938,16.667999267578125 17.927000045776367,16.273000717163086 17.891000747680664,15.973999977111816 C17.885000228881836,15.923999786376953 17.881000518798828,15.876999855041504 17.878999710083008,15.833000183105469 C17.854000091552734,15.526000022888184 17.87299919128418,15.378999710083008 17.875,15.369000434875488 C17.996000289916992,14.633000373840332 17.615999221801758,13.843000411987305 17.6299991607666,13.053999900817871 C17.70800018310547,11.029000282287598 17.429000854492188,9.392999649047852 17.983999252319336,7.35699987411499 C18.143999099731445,6.756999969482422 18.37299919128418,5.951000213623047 18.086999893188477,5.51200008392334 C17.799999237060547,5.083000183105469 16.527999877929688,4.769999980926514 15.45300006866455,4.784999847412109 C14.616000175476074,4.802999973297119 14.597000122070312,6.629000186920166 14.67199993133545,6.984000205993652 C14.725000381469727,7.339000225067139 14.239999771118164,9.303000450134277 14.187000274658203,10.534000396728516 C14.11400032043457,12.031000137329102 13.848999977111816,13.682999610900879 14.020000457763672,15.319999694824219 C14.107999801635742,16.073999404907227 14.378999710083008,16.795000076293945 14.649999618530273,17.548999786376953 C14.711000442504883,17.867000579833984 14.770000457763672,18.18400001525879 14.888999938964844,18.51799964904785 C15.010000228881836,18.854999542236328 15.081000328063965,19.19700050354004 15.28600025177002,19.549999237060547 C15.486000061035156,19.893999099731445 15.680999755859375,20.273000717163086 15.934000015258789,20.576000213623047 C16.194000244140625,20.867000579833984 16.45400047302246,21.17300033569336 16.738000869750977,21.42099952697754 C17.0310001373291,21.655000686645508 17.325000762939453,21.875999450683594 17.61400032043457,22.077999114990234 C19.165000915527344,22.996000289916992 20.63599967956543,23.486000061035156 22.5,23.601999282836914 C22.5,23.601999282836914 23.14699935913086,23.615999221801758 23.14699935913086,23.615999221801758 C23.367000579833984,23.606000900268555 23.59600067138672,23.56399917602539 23.82200050354004,23.534000396728516 C24.27400016784668,23.4950008392334 24.733999252319336,23.341999053955078 25.19499969482422,23.158000946044922 C25.665000915527344,23.02199935913086 26.075000762939453,22.667999267578125 26.503000259399414,22.39299964904785 C26.89299964904785,22.06999969482422 27.229000091552734,21.663999557495117 27.552000045776367,21.268999099731445 C27.790000915527344,20.849000930786133 28.048999786376953,20.406999588012695 28.232999801635742,19.966999053955078 C28.368000030517578,19.533000946044922 28.496000289916992,19.091999053955078 28.61199951171875,18.64699935913086 C28.715999603271484,17.812000274658203 28.836000442504883,16.934999465942383 28.76099967956543,16.173999786376953z"></path><path stroke-linecap="butt" stroke-linejoin="miter" fill-opacity="0" stroke-miterlimit="4" stroke="#000000" stroke-opacity="1" stroke-width="0px" d=" M28.76099967956543,16.173999786376953 C28.766000747680664,15.21399974822998 28.402999877929688,14.098999977111816 28.06999969482422,13.090999603271484 C27.708999633789062,12.17300033569336 27.33099937438965,11.35200023651123 27.142000198364258,10.909000396728516 C26.45800018310547,9.315999984741211 26.270000457763672,7.580999851226807 25.865999221801758,5.894000053405762 C25.45800018310547,4.198999881744385 24.687999725341797,2.627000093460083 24.047000885009766,1.003000020980835 C23.583999633789062,-0.1679999977350235 23.128000259399414,-1.3480000495910645 22.583999633789062,-2.506999969482422 C22.113000869750977,-3.5309998989105225 21.551000595092773,-4.5279998779296875 20.913999557495117,-5.502999782562256 C20.56999969482422,-6.031000137329102 20.20599937438965,-6.525000095367432 19.836000442504883,-7.007999897003174 C19.218000411987305,-7.828999996185303 17.94099998474121,-9.39799976348877 17.51099967956543,-10.29800033569336 C16.784000396728516,-11.79699993133545 16.197999954223633,-12.017999649047852 15.09000015258789,-13.218999862670898 C13.814000129699707,-14.649999618530273 11.687999725341797,-16.909000396728516 10.86299991607666,-17.27899932861328 C10.456000328063965,-17.466999053955078 9.579999923706055,-18.156999588012695 8.668000221252441,-18.85099983215332 C8.583000183105469,-18.913999557495117 8.50100040435791,-18.975000381469727 8.416000366210938,-19.03700065612793 C8.458999633789062,-19.1200008392334 8.484000205993652,-19.183000564575195 8.484000205993652,-19.183000564575195 C8.484000205993652,-19.183000564575195 8.920000076293945,-20.302000045776367 9.366000175476074,-21.023000717163086 C9.824999809265137,-21.738000869750977 10.074000358581543,-22.68000030517578 9.243000030517578,-22.777999877929688 C8.83899974822998,-22.83099937438965 7.822000026702881,-23.238000869750977 6.736999988555908,-23.538999557495117 C5.6539998054504395,-23.8439998626709 4.51200008392334,-24.023000717163086 3.986999988555908,-24.003000259399414 C3.4639999866485596,-23.97100067138672 2.187999963760376,-24.059999465942383 0.7789999842643738,-23.909000396728516 C-0.6320000290870667,-23.783000946044922 -2.1659998893737793,-23.44700050354004 -3.2320001125335693,-23.033000946044922 C-5.329999923706055,-22.202999114990234 -7.5320000648498535,-21.71500015258789 -9.472999572753906,-20.327999114990234 C-10,-19.92799949645996 -10.645000457763672,-19.80500030517578 -11.135000228881836,-19.393999099731445 C-11.152999877929688,-19.378999710083008 -11.173999786376953,-19.361000061035156 -11.197999954223633,-19.340999603271484 C-11.442000389099121,-19.1299991607666 -11.951000213623047,-18.6200008392334 -12.434000015258789,-18.05500030517578 C-12.96500015258789,-17.437000274658203 -13.479000091552734,-16.770000457763672 -13.746000289916992,-16.44700050354004 C-15.54699993133545,-14.404999732971191 -17.117000579833984,-11.312000274658203 -17.5310001373291,-10.755000114440918 C-18.145000457763672,-9.916999816894531 -18.59000015258789,-8.970000267028809 -19.083999633789062,-8.088000297546387 C-19.41200065612793,-7.505000114440918 -19.764999389648438,-6.936999797821045 -20.138999938964844,-6.388999938964844 C-20.506000518798828,-5.8379998207092285 -20.958999633789062,-5.188000202178955 -21.32900047302246,-4.586999893188477 C-22.101999282836914,-3.359999895095825 -22.81800079345703,-2.111999988555908 -23.415000915527344,-0.8220000267028809 C-24.124000549316406,0.7099999785423279 -24.729999542236328,2.2809998989105225 -25.104000091552734,3.9130001068115234 C-25.474000930786133,5.4029998779296875 -27.16699981689453,10.156999588012695 -27.961000442504883,12.996000289916992 C-27.97800064086914,13.019000053405762 -28.000999450683594,13.034000396728516 -28.014999389648438,13.0600004196167 C-28.135000228881836,13.404000282287598 -28.836999893188477,15.527000427246094 -28.610000610351562,18.0939998626709 C-28.610000610351562,18.0939998626709 -28.57200050354004,18.56800079345703 -28.57200050354004,18.56800079345703 C-28.57200050354004,18.56800079345703 -28.454999923706055,19.065000534057617 -28.454999923706055,19.065000534057617 C-28.368000030517578,19.39299964904785 -28.281999588012695,19.715999603271484 -28.197999954223633,20.031999588012695 C-27.8799991607666,20.667999267578125 -27.645000457763672,21.284000396728516 -27.18400001525879,21.74799919128418 C-26.972999572753906,21.98200035095215 -26.79400062561035,22.219999313354492 -26.58099937438965,22.386999130249023 C-26.358999252319336,22.54599952697754 -26.156999588012695,22.690000534057617 -25.979000091552734,22.81800079345703 C-25.624000549316406,23.08799934387207 -25.332000732421875,23.183000564575195 -25.190000534057617,23.2549991607666 C-24.635000228881836,23.6299991607666 -22.79599952697754,24.05900001525879 -21.047000885009766,23.658000946044922 C-19.284000396728516,23.31999969482422 -17.652999877929688,22.277999877929688 -16.832000732421875,21.382999420166016 C-16.437999725341797,20.93199920654297 -16.09600067138672,20.555999755859375 -15.85200023651123,20.183000564575195 C-15.61400032043457,19.804000854492188 -15.420999526977539,19.496000289916992 -15.265999794006348,19.25 C-15.031999588012695,18.768999099731445 -14.895000457763672,18.548999786376953 -14.885000228881836,18.534000396728516 C-14.218999862670898,17.423999786376953 -14.3100004196167,16.08799934387207 -14.187000274658203,14.996000289916992 C-14.006999969482422,13.54800033569336 -14.105999946594238,12.307000160217285 -14.232999801635742,11.097999572753906 C-14.357000350952148,9.885000228881836 -14.508999824523926,8.699999809265137 -14.571999549865723,7.335000038146973 C-14.607000350952148,6.531000137329102 -14.71399974822998,5.426000118255615 -15.17199993133545,5 C-15.630999565124512,4.563000202178955 -16.915000915527344,4.85099983215332 -17.889999389648438,5.306000232696533 C-18.62700080871582,5.644000053405762 -18.0049991607666,7.554999828338623 -17.851999282836914,7.935999870300293 C-17.672000885009766,8.3100004196167 -17.63800048828125,10.593000411987305 -17.60300064086914,11.925999641418457 C-17.533000946044922,13.5649995803833 -17.878000259399414,15.331999778747559 -18.285999298095703,16.679000854492188 C-18.354999542236328,17.017000198364258 -18.465999603271484,17.257999420166016 -18.52199935913086,17.56999969482422 C-18.615999221801758,17.83799934387207 -18.684999465942383,18.073999404907227 -18.8439998626709,18.315000534057617 C-19.03700065612793,18.464000701904297 -19.163999557495117,18.650999069213867 -19.388999938964844,18.773000717163086 C-20.19099998474121,19.340999603271484 -21.274999618530273,19.84600067138672 -22.20199966430664,20.05299949645996 C-22.788999557495117,20.17799949645996 -23.35700035095215,20.202999114990234 -23.759000778198242,20.02899932861328 C-24.003000259399414,19.9950008392334 -24.124000549316406,19.81999969482422 -24.322999954223633,19.726999282836914 C-24.43600082397461,19.534000396728516 -24.634000778198242,19.42799949645996 -24.70400047302246,19.150999069213867 C-25.110000610351562,18.29800033569336 -25.04400062561035,16.878000259399414 -24.722000122070312,15.498000144958496 C-24.382999420166016,14.142000198364258 -23.792999267578125,12.531000137329102 -23.253000259399414,11.064000129699707 C-22.611000061035156,9.307999610900879 -21.981000900268555,6.2769999504089355 -21.68000030517578,5.185999870300293 C-21.15399932861328,3.2200000286102295 -20.06800079345703,1.4769999980926514 -19.077999114990234,-0.2409999966621399 C-18.573999404907227,-1.0980000495910645 -18.143999099731445,-1.9910000562667847 -17.684999465942383,-2.8350000381469727 C-17.464000701904297,-3.2750000953674316 -17.226999282836914,-3.6600000858306885 -16.986000061035156,-4.090000152587891 C-16.986000061035156,-4.090000152587891 -16.163999557495117,-5.447000026702881 -16.163999557495117,-5.447000026702881 C-16.163999557495117,-5.447000026702881 -13.8100004196167,-9.215999603271484 -13.8100004196167,-9.215999603271484 C-13.128999710083008,-10.29800033569336 -12.479000091552734,-11.369999885559082 -11.791999816894531,-12.385000228881836 C-11.425999641418457,-12.925000190734863 -11.055999755859375,-13.460000038146973 -10.661999702453613,-13.96500015258789 C-10.029999732971191,-14.842000007629395 -8.508000373840332,-16.35700035095215 -7.534999847412109,-16.65399932861328 C-5.998000144958496,-17.152999877929688 -5.572999954223633,-17.674999237060547 -3.9790000915527344,-18.305999755859375 C-3.0280001163482666,-18.652999877929688 -1.7480000257492065,-18.954999923706055 -0.6069999933242798,-19.118000030517578 C0.4230000078678131,-19.27899932861328 1.3350000381469727,-19.329999923706055 1.8209999799728394,-19.430999755859375 C1.8739999532699585,-19.441999435424805 1.9220000505447388,-19.45400047302246 1.9639999866485596,-19.465999603271484 C2.3949999809265137,-19.589000701904297 3.5439999103546143,-19.621000289916992 4.659999847412109,-19.41900062561035 C4.689000129699707,-19.413999557495117 4.716000080108643,-19.408000946044922 4.744999885559082,-19.402999877929688 C4.564000129699707,-19.04400062561035 4.328999996185303,-18.606000900268555 4.103000164031982,-18.26099967956543 C3.6470000743865967,-17.55299949645996 3.2960000038146973,-16.64699935913086 3.8380000591278076,-16.618000030517578 C4.4019999504089355,-16.614999771118164 6.164000034332275,-15.027999877929688 6.776000022888184,-14.670999526977539 C7.38100004196167,-14.383000373840332 9.199000358581543,-12.737000465393066 10.512999534606934,-11.713000297546387 C10.371000289916992,-11.74899959564209 16.78499984741211,-7.335000038146973 17.784000396728516,-2.9110000133514404 C18.488000869750977,-1.7730000019073486 19.09600067138672,-0.6899999976158142 19.21299934387207,-0.33899998664855957 C19.472000122070312,0.4339999854564667 19.895000457763672,1.156000018119812 20.238000869750977,1.9019999504089355 C21.149999618530273,3.884999990463257 21.57200050354004,6.116000175476074 22.23900032043457,8.239999771118164 C22.631000518798828,9.505999565124512 23.05500030517578,10.762999534606934 23.645000457763672,11.96399974822998 C24.19300079345703,13.072999954223633 25.34600067138672,17.01300048828125 24.709999084472656,18.489999771118164 C24.69700050354004,18.500999450683594 24.67799949645996,18.506999969482422 24.667999267578125,18.520000457763672 C24.63599967956543,18.555999755859375 24.613000869750977,18.665000915527344 24.56599998474121,18.790000915527344 C24.496999740600586,18.891000747680664 24.424999237060547,19.024999618530273 24.363000869750977,19.19300079345703 C24.163000106811523,19.43899917602539 23.989999771118164,19.749000549316406 23.562999725341797,19.885000228881836 C23.562999725341797,19.885000228881836 23.422000885009766,19.961999893188477 23.422000885009766,19.961999893188477 C23.422000885009766,19.961999893188477 23.240999221801758,19.993999481201172 23.240999221801758,19.993999481201172 C23.118999481201172,20.01300048828125 23.01099967956543,20.05900001525879 22.884000778198242,20.06999969482422 C22.617000579833984,20.055999755859375 22.374000549316406,20.118999481201172 22.12700080871582,20.05699920654297 C21.645999908447266,20.023000717163086 21.274999618530273,19.865999221801758 21.1560001373291,19.822999954223633 C20.92300033569336,19.71299934387207 20.191999435424805,19.368999481201172 19.562999725341797,18.832000732421875 C18.902000427246094,18.277000427246094 18.52400016784668,17.70400047302246 18.257999420166016,17.128999710083008 C18.041000366210938,16.667999267578125 17.927000045776367,16.273000717163086 17.891000747680664,15.973999977111816 C17.885000228881836,15.923999786376953 17.881000518798828,15.876999855041504 17.878999710083008,15.833000183105469 C17.854000091552734,15.526000022888184 17.87299919128418,15.378999710083008 17.875,15.369000434875488 C17.996000289916992,14.633000373840332 17.615999221801758,13.843000411987305 17.6299991607666,13.053999900817871 C17.70800018310547,11.029000282287598 17.429000854492188,9.392999649047852 17.983999252319336,7.35699987411499 C18.143999099731445,6.756999969482422 18.37299919128418,5.951000213623047 18.086999893188477,5.51200008392334 C17.799999237060547,5.083000183105469 16.527999877929688,4.769999980926514 15.45300006866455,4.784999847412109 C14.616000175476074,4.802999973297119 14.597000122070312,6.629000186920166 14.67199993133545,6.984000205993652 C14.725000381469727,7.339000225067139 14.239999771118164,9.303000450134277 14.187000274658203,10.534000396728516 C14.11400032043457,12.031000137329102 13.848999977111816,13.682999610900879 14.020000457763672,15.319999694824219 C14.107999801635742,16.073999404907227 14.378999710083008,16.795000076293945 14.649999618530273,17.548999786376953 C14.711000442504883,17.867000579833984 14.770000457763672,18.18400001525879 14.888999938964844,18.51799964904785 C15.010000228881836,18.854999542236328 15.081000328063965,19.19700050354004 15.28600025177002,19.549999237060547 C15.486000061035156,19.893999099731445 15.680999755859375,20.273000717163086 15.934000015258789,20.576000213623047 C16.194000244140625,20.867000579833984 16.45400047302246,21.17300033569336 16.738000869750977,21.42099952697754 C17.0310001373291,21.655000686645508 17.325000762939453,21.875999450683594 17.61400032043457,22.077999114990234 C19.165000915527344,22.996000289916992 20.63599967956543,23.486000061035156 22.5,23.601999282836914 C22.5,23.601999282836914 23.14699935913086,23.615999221801758 23.14699935913086,23.615999221801758 C23.367000579833984,23.606000900268555 23.59600067138672,23.56399917602539 23.82200050354004,23.534000396728516 C24.27400016784668,23.4950008392334 24.733999252319336,23.341999053955078 25.19499969482422,23.158000946044922 C25.665000915527344,23.02199935913086 26.075000762939453,22.667999267578125 26.503000259399414,22.39299964904785 C26.89299964904785,22.06999969482422 27.229000091552734,21.663999557495117 27.552000045776367,21.268999099731445 C27.790000915527344,20.849000930786133 28.048999786376953,20.406999588012695 28.232999801635742,19.966999053955078 C28.368000030517578,19.533000946044922 28.496000289916992,19.091999053955078 28.61199951171875,18.64699935913086 C28.715999603271484,17.812000274658203 28.836000442504883,16.934999465942383 28.76099967956543,16.173999786376953z"></path></g><g opacity="1" transform="matrix(1,0,0,1,0,0)"><path fill="#792F6C" fill-opacity="1" d=" M-64.27400207519531,43.77000045776367"></path><path stroke-linecap="butt" stroke-linejoin="miter" fill-opacity="0" stroke-miterlimit="4" stroke="#000000" stroke-opacity="1" stroke-width="0px" d=" M-64.27400207519531,43.77000045776367"></path></g><g opacity="1" transform="matrix(1,0,0,1,0,0)"><path fill="#792F6C" fill-opacity="1" d="M0 0"></path><path stroke-linecap="butt" stroke-linejoin="miter" fill-opacity="0" stroke-miterlimit="4" stroke="#000000" stroke-opacity="1" stroke-width="0px" d="M0 0"></path></g><g opacity="1" transform="matrix(1,0,0,1,0,0)"><path fill="#792F6C" fill-opacity="1" d=" M9.66100025177002,14.73799991607666"></path><path stroke-linecap="butt" stroke-linejoin="miter" fill-opacity="0" stroke-miterlimit="4" stroke="#000000" stroke-opacity="1" stroke-width="0px" d=" M9.66100025177002,14.73799991607666"></path></g><g opacity="1" transform="matrix(1,0,0,1,0,0)"><path fill="#792F6C" fill-opacity="1" d=" M11.730999946594238,5.61899995803833"></path><path stroke-linecap="butt" stroke-linejoin="miter" fill-opacity="0" stroke-miterlimit="4" stroke="#000000" stroke-opacity="1" stroke-width="0px" d=" M11.730999946594238,5.61899995803833"></path></g><g opacity="1" transform="matrix(1,0,0,1,0,0)"><path fill="#792F6C" fill-opacity="1" d=" M-14.638999938964844,2.2179999351501465"></path><path stroke-linecap="butt" stroke-linejoin="miter" fill-opacity="0" stroke-miterlimit="4" stroke="#000000" stroke-opacity="1" stroke-width="0px" d=" M-14.638999938964844,2.2179999351501465"></path></g></g><g transform="matrix(10.144020080566406,0,0,10.144020080566406,296,297)" opacity="1" style="display: block;"><g opacity="1" transform="matrix(1,0,0,1,0,0)"><path fill="#792F6C" fill-opacity="1" d=" M9.361000061035156,6.909999847412109 C9.288000106811523,6.763999938964844 9.152999877929688,6.749000072479248 8.883999824523926,6.718999862670898 C8.347000122070312,6.660999774932861 7.72599983215332,6.710000038146973 7.626999855041504,7.014999866485596 C7.578000068664551,7.1620001792907715 7.453999996185303,8.149999618530273 6.7729997634887695,8.873000144958496 C6.138999938964844,9.640000343322754 5.122000217437744,9.892000198364258 4.928999900817871,9.880999565124512 C4.73199987411499,9.906000137329102 4.122000217437744,9.928999900817871 3.506999969482422,9.734999656677246 C2.885999917984009,9.548999786376953 2.313999891281128,9.118000030517578 2.006999969482422,8.800999641418457 C1.6039999723434448,8.383000373840332 1.4850000143051147,8.050999641418457 1.4470000267028809,7.872000217437744 C0.5130000114440918,5.328000068664551 0.5120000243186951,5.328000068664551 -0.9750000238418579,7.46999979019165 C-1.0820000171661377,7.857999801635742 -1.2890000343322754,8.416999816894531 -1.718999981880188,8.873000144958496 C-2.3540000915527344,9.640000343322754 -3.36899995803833,9.892000198364258 -3.562000036239624,9.880999565124512 C-3.5869998931884766,9.883999824523926 -3.61899995803833,9.88700008392334 -3.6570000648498535,9.890000343322754 C-3.9149999618530273,9.907999992370605 -4.447000026702881,9.904999732971191 -4.984000205993652,9.734999656677246 C-5.605000019073486,9.548999786376953 -6.177000045776367,9.118000030517578 -6.484000205993652,8.800999641418457 C-7.110000133514404,8.152000427246094 -7.053999900817871,7.704999923706055 -7.068999767303467,7.724999904632568 C-7.1620001792907715,7.451000213623047 -7.223999977111816,7.165999889373779 -7.234000205993652,6.875 C-7.400000095367432,6.74399995803833 -7.986999988555908,6.71999979019165 -8.208000183105469,6.7220001220703125 C-8.208000183105469,6.7220001220703125 -8.531000137329102,6.668000221252441 -8.83899974822998,6.718999862670898 C-9.137999534606934,6.767000198364258 -9.458000183105469,6.960999965667725 -9.347000122070312,7.458000183105469 C-9.295000076293945,7.702000141143799 -9.170000076293945,8.206999778747559 -8.890000343322754,8.78499984741211 C-8.611000061035156,9.36299991607666 -8.142999649047852,9.987000465393066 -7.565999984741211,10.482999801635742 C-6.988999843597412,10.979000091552734 -6.302000045776367,11.329000473022461 -5.699999809265137,11.510000228881836 C-5.0970001220703125,11.689000129699707 -4.593999862670898,11.743000030517578 -4.3420000076293945,11.755999565124512 C-4.091000080108643,11.788999557495117 -3.566999912261963,11.79699993133545 -2.9260001182556152,11.668000221252441 C-2.2869999408721924,11.538000106811523 -1.5479999780654907,11.223999977111816 -0.9300000071525574,10.74899959564209 C-0.5009999871253967,10.428999900817871 -0.1459999978542328,10.03600025177002 0.13199999928474426,9.640999794006348 C0.36000001430511475,9.940999984741211 0.6259999871253967,10.230999946594238 0.9259999990463257,10.482999801635742 C1.503000020980835,10.979000091552734 2.188999891281128,11.329000473022461 2.7909998893737793,11.510000228881836 C3.3940000534057617,11.689000129699707 3.8970000743865967,11.743000030517578 4.14900016784668,11.755999565124512 C4.400000095367432,11.788999557495117 4.923999786376953,11.79699993133545 5.565000057220459,11.668000221252441 C6.203999996185303,11.538000106811523 6.942999839782715,11.223999977111816 7.560999870300293,10.74899959564209 C8.185999870300293,10.282999992370605 8.670000076293945,9.66100025177002 8.956000328063965,9.105999946594238 C9.25100040435791,8.552000045776367 9.35200023651123,8.076000213623047 9.383000373840332,7.888999938964844 C9.458999633789062,7.334000110626221 9.4350004196167,7.056000232696533 9.361000061035156,6.909999847412109z"></path><path stroke-linecap="butt" stroke-linejoin="miter" fill-opacity="0" stroke-miterlimit="4" stroke="#000000" stroke-opacity="1" stroke-width="0px" d=" M9.361000061035156,6.909999847412109 C9.288000106811523,6.763999938964844 9.152999877929688,6.749000072479248 8.883999824523926,6.718999862670898 C8.347000122070312,6.660999774932861 7.72599983215332,6.710000038146973 7.626999855041504,7.014999866485596 C7.578000068664551,7.1620001792907715 7.453999996185303,8.149999618530273 6.7729997634887695,8.873000144958496 C6.138999938964844,9.640000343322754 5.122000217437744,9.892000198364258 4.928999900817871,9.880999565124512 C4.73199987411499,9.906000137329102 4.122000217437744,9.928999900817871 3.506999969482422,9.734999656677246 C2.885999917984009,9.548999786376953 2.313999891281128,9.118000030517578 2.006999969482422,8.800999641418457 C1.6039999723434448,8.383000373840332 1.4850000143051147,8.050999641418457 1.4470000267028809,7.872000217437744 C0.5130000114440918,5.328000068664551 0.5120000243186951,5.328000068664551 -0.9750000238418579,7.46999979019165 C-1.0820000171661377,7.857999801635742 -1.2890000343322754,8.416999816894531 -1.718999981880188,8.873000144958496 C-2.3540000915527344,9.640000343322754 -3.36899995803833,9.892000198364258 -3.562000036239624,9.880999565124512 C-3.5869998931884766,9.883999824523926 -3.61899995803833,9.88700008392334 -3.6570000648498535,9.890000343322754 C-3.9149999618530273,9.907999992370605 -4.447000026702881,9.904999732971191 -4.984000205993652,9.734999656677246 C-5.605000019073486,9.548999786376953 -6.177000045776367,9.118000030517578 -6.484000205993652,8.800999641418457 C-7.110000133514404,8.152000427246094 -7.053999900817871,7.704999923706055 -7.068999767303467,7.724999904632568 C-7.1620001792907715,7.451000213623047 -7.223999977111816,7.165999889373779 -7.234000205993652,6.875 C-7.400000095367432,6.74399995803833 -7.986999988555908,6.71999979019165 -8.208000183105469,6.7220001220703125 C-8.208000183105469,6.7220001220703125 -8.531000137329102,6.668000221252441 -8.83899974822998,6.718999862670898 C-9.137999534606934,6.767000198364258 -9.458000183105469,6.960999965667725 -9.347000122070312,7.458000183105469 C-9.295000076293945,7.702000141143799 -9.170000076293945,8.206999778747559 -8.890000343322754,8.78499984741211 C-8.611000061035156,9.36299991607666 -8.142999649047852,9.987000465393066 -7.565999984741211,10.482999801635742 C-6.988999843597412,10.979000091552734 -6.302000045776367,11.329000473022461 -5.699999809265137,11.510000228881836 C-5.0970001220703125,11.689000129699707 -4.593999862670898,11.743000030517578 -4.3420000076293945,11.755999565124512 C-4.091000080108643,11.788999557495117 -3.566999912261963,11.79699993133545 -2.9260001182556152,11.668000221252441 C-2.2869999408721924,11.538000106811523 -1.5479999780654907,11.223999977111816 -0.9300000071525574,10.74899959564209 C-0.5009999871253967,10.428999900817871 -0.1459999978542328,10.03600025177002 0.13199999928474426,9.640999794006348 C0.36000001430511475,9.940999984741211 0.6259999871253967,10.230999946594238 0.9259999990463257,10.482999801635742 C1.503000020980835,10.979000091552734 2.188999891281128,11.329000473022461 2.7909998893737793,11.510000228881836 C3.3940000534057617,11.689000129699707 3.8970000743865967,11.743000030517578 4.14900016784668,11.755999565124512 C4.400000095367432,11.788999557495117 4.923999786376953,11.79699993133545 5.565000057220459,11.668000221252441 C6.203999996185303,11.538000106811523 6.942999839782715,11.223999977111816 7.560999870300293,10.74899959564209 C8.185999870300293,10.282999992370605 8.670000076293945,9.66100025177002 8.956000328063965,9.105999946594238 C9.25100040435791,8.552000045776367 9.35200023651123,8.076000213623047 9.383000373840332,7.888999938964844 C9.458999633789062,7.334000110626221 9.4350004196167,7.056000232696533 9.361000061035156,6.909999847412109z"></path></g><g opacity="1" transform="matrix(1,0,0,1,0,0)"><path fill="#792F6C" fill-opacity="1" d=" M-3.8940000534057617,7.788000106811523"></path><path stroke-linecap="butt" stroke-linejoin="miter" fill-opacity="0" stroke-miterlimit="4" stroke="#000000" stroke-opacity="1" stroke-width="0px" d=" M-3.8940000534057617,7.788000106811523"></path></g><g opacity="1" transform="matrix(1,0,0,1,0,0)"><path fill="#792F6C" fill-opacity="1" d=" M7.295000076293945,12.371999740600586"></path><path stroke-linecap="butt" stroke-linejoin="miter" fill-opacity="0" stroke-miterlimit="4" stroke="#000000" stroke-opacity="1" stroke-width="0px" d=" M7.295000076293945,12.371999740600586"></path></g><g opacity="1" transform="matrix(1,0,0,1,0,0)"><path fill="#792F6C" fill-opacity="1" d=" M3.5490000247955322,9.710000038146973"></path><path stroke-linecap="butt" stroke-linejoin="miter" fill-opacity="0" stroke-miterlimit="4" stroke="#000000" stroke-opacity="1" stroke-width="0px" d=" M3.5490000247955322,9.710000038146973"></path></g></g><g transform="matrix(10.144020080566406,0,0,10.144020080566406,300,300)" opacity="1" style="display: block;"><g opacity="1" transform="matrix(1,0,0,1,0,0)"><path fill="#792F6C" fill-opacity="1" d=" M0.875,7.739999771118164 C2.010999917984009,7.177999973297119 2.638000011444092,5.625 2.9100000858306885,4.9079999923706055 C3.256999969482422,3.990999937057495 2.052000045776367,3.1080000400543213 0.21899999678134918,2.934000015258789 C-1.6139999628067017,2.759999990463257 -3.381999969482422,3.36299991607666 -3.7290000915527344,4.2789998054504395 C-4.006999969482422,5.013999938964844 -2.743000030517578,6.793000221252441 -1.2879999876022339,7.567999839782715 C-1.305999994277954,7.627999782562256 -0.39100000262260437,8.239999771118164 0.875,7.739999771118164z"></path><path stroke-linecap="butt" stroke-linejoin="miter" fill-opacity="0" stroke-miterlimit="4" stroke="#000000" stroke-opacity="1" stroke-width="0px" d=" M0.875,7.739999771118164 C2.010999917984009,7.177999973297119 2.638000011444092,5.625 2.9100000858306885,4.9079999923706055 C3.256999969482422,3.990999937057495 2.052000045776367,3.1080000400543213 0.21899999678134918,2.934000015258789 C-1.6139999628067017,2.759999990463257 -3.381999969482422,3.36299991607666 -3.7290000915527344,4.2789998054504395 C-4.006999969482422,5.013999938964844 -2.743000030517578,6.793000221252441 -1.2879999876022339,7.567999839782715 C-1.305999994277954,7.627999782562256 -0.39100000262260437,8.239999771118164 0.875,7.739999771118164z"></path></g><g opacity="1" transform="matrix(1,0,0,1,0,0)"><path fill="#792F6C" fill-opacity="1" d=" M-4.683000087738037,6.703000068664551"></path><path stroke-linecap="butt" stroke-linejoin="miter" fill-opacity="0" stroke-miterlimit="4" stroke="#000000" stroke-opacity="1" stroke-width="0px" d=" M-4.683000087738037,6.703000068664551"></path></g><g opacity="1" transform="matrix(1,0,0,1,0,0)"><path fill="#792F6C" fill-opacity="1" d=" M2.8589999675750732,6.802000045776367"></path><path stroke-linecap="butt" stroke-linejoin="miter" fill-opacity="0" stroke-miterlimit="4" stroke="#000000" stroke-opacity="1" stroke-width="0px" d=" M2.8589999675750732,6.802000045776367"></path></g><g opacity="1" transform="matrix(1,0,0,1,0,0)"><path fill="#792F6C" fill-opacity="1" d=" M4.238999843597412,6.901000022888184"></path><path stroke-linecap="butt" stroke-linejoin="miter" fill-opacity="0" stroke-miterlimit="4" stroke="#000000" stroke-opacity="1" stroke-width="0px" d=" M4.238999843597412,6.901000022888184"></path></g><g opacity="1" transform="matrix(1,0,0,1,0,0)"><path fill="#792F6C" fill-opacity="1" d=" M-1.725000023841858,2.489000082015991"></path><path stroke-linecap="butt" stroke-linejoin="miter" fill-opacity="0" stroke-miterlimit="4" stroke="#000000" stroke-opacity="1" stroke-width="0px" d=" M-1.725000023841858,2.489000082015991"></path></g><g opacity="1" transform="matrix(1,0,0,1,0,0)"><path fill="#792F6C" fill-opacity="1" d=" M1.7990000247955322,7.2210001945495605"></path><path stroke-linecap="butt" stroke-linejoin="miter" fill-opacity="0" stroke-miterlimit="4" stroke="#000000" stroke-opacity="1" stroke-width="0px" d=" M1.7990000247955322,7.2210001945495605"></path></g></g><g transform="matrix(10.144020080566406,0,0,10.144020080566406,294,319)" opacity="1" style="display: block;"><g opacity="1" transform="matrix(1,0,0,1,0,0)"><path fill="#792F6C" fill-opacity="1" d=" M8.52400016784668,-6.2789998054504395 C7.330999851226807,-6.505000114440918 6.181000232696533,-5.7220001220703125 5.954999923706055,-4.5289998054504395 C5.729000091552734,-3.3359999656677246 6.51200008392334,-2.186000108718872 7.704999923706055,-1.9600000381469727 C8.89799976348877,-1.7339999675750732 10.04800033569336,-2.5169999599456787 10.27400016784668,-3.7100000381469727 C10.5,-4.9029998779296875 9.717000007629395,-6.052999973297119 8.52400016784668,-6.2789998054504395z"></path><path stroke-linecap="butt" stroke-linejoin="miter" fill-opacity="0" stroke-miterlimit="4" stroke="#000000" stroke-opacity="1" stroke-width="0px" d=" M8.52400016784668,-6.2789998054504395 C7.330999851226807,-6.505000114440918 6.181000232696533,-5.7220001220703125 5.954999923706055,-4.5289998054504395 C5.729000091552734,-3.3359999656677246 6.51200008392334,-2.186000108718872 7.704999923706055,-1.9600000381469727 C8.89799976348877,-1.7339999675750732 10.04800033569336,-2.5169999599456787 10.27400016784668,-3.7100000381469727 C10.5,-4.9029998779296875 9.717000007629395,-6.052999973297119 8.52400016784668,-6.2789998054504395z"></path></g><g opacity="1" transform="matrix(1,0,0,1,0,0)"><path fill="#792F6C" fill-opacity="1" d="M0 0"></path><path stroke-linecap="butt" stroke-linejoin="miter" fill-opacity="0" stroke-miterlimit="4" stroke="#000000" stroke-opacity="1" stroke-width="0px" d="M0 0"></path></g><g opacity="1" transform="matrix(1,0,0,1,0,0)"><path fill="#792F6C" fill-opacity="1" d=" M10.326000213623047,-2.1440000534057617"></path><path stroke-linecap="butt" stroke-linejoin="miter" fill-opacity="0" stroke-miterlimit="4" stroke="#000000" stroke-opacity="1" stroke-width="0px" d=" M10.326000213623047,-2.1440000534057617"></path></g></g><g transform="matrix(10.144020080566406,0,0,10.144020080566406,302.25,313)" opacity="1" style="display: block;"><g opacity="1" transform="matrix(1,0,0,1,0,0)"><path fill="#792F6C" fill-opacity="1" d=" M-5.841000080108643,-3.2780001163482666 C-5.614999771118164,-4.46999979019165 -6.3979997634887695,-5.620999813079834 -7.591000080108643,-5.8470001220703125 C-8.784000396728516,-6.072999954223633 -9.932999610900879,-5.289999961853027 -10.159000396728516,-4.0970001220703125 C-10.385000228881836,-2.9040000438690186 -9.60200023651123,-1.753999948501587 -8.409000396728516,-1.527999997138977 C-7.216000080108643,-1.3020000457763672 -6.066999912261963,-2.0850000381469727 -5.841000080108643,-3.2780001163482666z"></path><path stroke-linecap="butt" stroke-linejoin="miter" fill-opacity="0" stroke-miterlimit="4" stroke="#000000" stroke-opacity="1" stroke-width="0px" d=" M-5.841000080108643,-3.2780001163482666 C-5.614999771118164,-4.46999979019165 -6.3979997634887695,-5.620999813079834 -7.591000080108643,-5.8470001220703125 C-8.784000396728516,-6.072999954223633 -9.932999610900879,-5.289999961853027 -10.159000396728516,-4.0970001220703125 C-10.385000228881836,-2.9040000438690186 -9.60200023651123,-1.753999948501587 -8.409000396728516,-1.527999997138977 C-7.216000080108643,-1.3020000457763672 -6.066999912261963,-2.0850000381469727 -5.841000080108643,-3.2780001163482666z"></path></g><g opacity="1" transform="matrix(1,0,0,1,0,0)"><path fill="#792F6C" fill-opacity="1" d="M0 0"></path><path stroke-linecap="butt" stroke-linejoin="miter" fill-opacity="0" stroke-miterlimit="4" stroke="#000000" stroke-opacity="1" stroke-width="0px" d="M0 0"></path></g></g><g transform="matrix(10.144020080566406,0,0,10.144020080566406,294,319)" opacity="1" style="display: block;"><g opacity="1" transform="matrix(1,0,0,1,0,0)"><path fill="#792F6C" fill-opacity="1" d=" M8.52400016784668,-6.2789998054504395 C7.330999851226807,-6.505000114440918 6.181000232696533,-5.7220001220703125 5.954999923706055,-4.5289998054504395 C5.729000091552734,-3.3359999656677246 6.51200008392334,-2.186000108718872 7.704999923706055,-1.9600000381469727 C8.89799976348877,-1.7339999675750732 10.04800033569336,-2.5169999599456787 10.27400016784668,-3.7100000381469727 C10.5,-4.9029998779296875 9.717000007629395,-6.052999973297119 8.52400016784668,-6.2789998054504395z"></path><path stroke-linecap="butt" stroke-linejoin="miter" fill-opacity="0" stroke-miterlimit="4" stroke="#000000" stroke-opacity="1" stroke-width="0px" d=" M8.52400016784668,-6.2789998054504395 C7.330999851226807,-6.505000114440918 6.181000232696533,-5.7220001220703125 5.954999923706055,-4.5289998054504395 C5.729000091552734,-3.3359999656677246 6.51200008392334,-2.186000108718872 7.704999923706055,-1.9600000381469727 C8.89799976348877,-1.7339999675750732 10.04800033569336,-2.5169999599456787 10.27400016784668,-3.7100000381469727 C10.5,-4.9029998779296875 9.717000007629395,-6.052999973297119 8.52400016784668,-6.2789998054504395z"></path></g><g opacity="1" transform="matrix(1,0,0,1,0,0)"><path fill="#792F6C" fill-opacity="1" d=" M9.069000244140625,-1.2319999933242798"></path><path stroke-linecap="butt" stroke-linejoin="miter" fill-opacity="0" stroke-miterlimit="4" stroke="#000000" stroke-opacity="1" stroke-width="0px" d=" M9.069000244140625,-1.2319999933242798"></path></g></g><g transform="matrix(10.144020080566406,0,0,10.144020080566406,302.25,313)" opacity="1" style="display: block;"><g opacity="1" transform="matrix(1,0,0,1,0,0)"><path fill="#792F6C" fill-opacity="1" d=" M-5.841000080108643,-3.2780001163482666 C-5.614999771118164,-4.46999979019165 -6.3979997634887695,-5.620999813079834 -7.591000080108643,-5.8470001220703125 C-8.784000396728516,-6.072999954223633 -9.932999610900879,-5.289999961853027 -10.159000396728516,-4.0970001220703125 C-10.385000228881836,-2.9040000438690186 -9.60200023651123,-1.753999948501587 -8.409000396728516,-1.527999997138977 C-7.216000080108643,-1.3020000457763672 -6.066999912261963,-2.0850000381469727 -5.841000080108643,-3.2780001163482666z"></path><path stroke-linecap="butt" stroke-linejoin="miter" fill-opacity="0" stroke-miterlimit="4" stroke="#000000" stroke-opacity="1" stroke-width="0px" d=" M-5.841000080108643,-3.2780001163482666 C-5.614999771118164,-4.46999979019165 -6.3979997634887695,-5.620999813079834 -7.591000080108643,-5.8470001220703125 C-8.784000396728516,-6.072999954223633 -9.932999610900879,-5.289999961853027 -10.159000396728516,-4.0970001220703125 C-10.385000228881836,-2.9040000438690186 -9.60200023651123,-1.753999948501587 -8.409000396728516,-1.527999997138977 C-7.216000080108643,-1.3020000457763672 -6.066999912261963,-2.0850000381469727 -5.841000080108643,-3.2780001163482666z"></path></g></g><g transform="matrix(10.144020080566406,0,0,10.144020080566406,294,319)" opacity="1" style="display: block;"><g opacity="1" transform="matrix(1,0,0,1,0,0)"><path fill="#792F6C" fill-opacity="1" d=" M8.52400016784668,-6.2789998054504395 C7.330999851226807,-6.505000114440918 6.181000232696533,-5.7220001220703125 5.954999923706055,-4.5289998054504395 C5.729000091552734,-3.3359999656677246 6.51200008392334,-2.186000108718872 7.704999923706055,-1.9600000381469727 C8.89799976348877,-1.7339999675750732 10.04800033569336,-2.5169999599456787 10.27400016784668,-3.7100000381469727 C10.5,-4.9029998779296875 9.717000007629395,-6.052999973297119 8.52400016784668,-6.2789998054504395z"></path><path stroke-linecap="butt" stroke-linejoin="miter" fill-opacity="0" stroke-miterlimit="4" stroke="#000000" stroke-opacity="1" stroke-width="0px" d=" M8.52400016784668,-6.2789998054504395 C7.330999851226807,-6.505000114440918 6.181000232696533,-5.7220001220703125 5.954999923706055,-4.5289998054504395 C5.729000091552734,-3.3359999656677246 6.51200008392334,-2.186000108718872 7.704999923706055,-1.9600000381469727 C8.89799976348877,-1.7339999675750732 10.04800033569336,-2.5169999599456787 10.27400016784668,-3.7100000381469727 C10.5,-4.9029998779296875 9.717000007629395,-6.052999973297119 8.52400016784668,-6.2789998054504395z"></path></g><g opacity="1" transform="matrix(1,0,0,1,0,0)"><path fill="#792F6C" fill-opacity="1" d=" M9.069000244140625,-1.2319999933242798"></path><path stroke-linecap="butt" stroke-linejoin="miter" fill-opacity="0" stroke-miterlimit="4" stroke="#000000" stroke-opacity="1" stroke-width="0px" d=" M9.069000244140625,-1.2319999933242798"></path></g></g><g transform="matrix(10.144020080566406,0,0,10.144020080566406,302.25,313)" opacity="1" style="display: block;"><g opacity="1" transform="matrix(1,0,0,1,0,0)"><path fill="#792F6C" fill-opacity="1" d=" M-5.841000080108643,-3.2780001163482666 C-5.614999771118164,-4.46999979019165 -6.3979997634887695,-5.620999813079834 -7.591000080108643,-5.8470001220703125 C-8.784000396728516,-6.072999954223633 -9.932999610900879,-5.289999961853027 -10.159000396728516,-4.0970001220703125 C-10.385000228881836,-2.9040000438690186 -9.60200023651123,-1.753999948501587 -8.409000396728516,-1.527999997138977 C-7.216000080108643,-1.3020000457763672 -6.066999912261963,-2.0850000381469727 -5.841000080108643,-3.2780001163482666z"></path><path stroke-linecap="butt" stroke-linejoin="miter" fill-opacity="0" stroke-miterlimit="4" stroke="#000000" stroke-opacity="1" stroke-width="0px" d=" M-5.841000080108643,-3.2780001163482666 C-5.614999771118164,-4.46999979019165 -6.3979997634887695,-5.620999813079834 -7.591000080108643,-5.8470001220703125 C-8.784000396728516,-6.072999954223633 -9.932999610900879,-5.289999961853027 -10.159000396728516,-4.0970001220703125 C-10.385000228881836,-2.9040000438690186 -9.60200023651123,-1.753999948501587 -8.409000396728516,-1.527999997138977 C-7.216000080108643,-1.3020000457763672 -6.066999912261963,-2.0850000381469727 -5.841000080108643,-3.2780001163482666z"></path></g></g><g transform="matrix(10.144020080566406,0,0,10.144020080566406,386.75,252.625)" opacity="1" style="display: block;"><g opacity="1" transform="matrix(1,0,0,1,0,0)"><path fill="#792F6C" fill-opacity="1" d=" M8.82800006866455,-0.6060000061988831 C8.918999671936035,-0.46399998664855957 8.640000343322754,-3.388000011444092 6.671000003814697,-5.822000026702881 C6.593999862670898,-5.834000110626221 6.515999794006348,-5.8460001945495605 6.439000129699707,-5.859000205993652 C6.432000160217285,-5.849999904632568 6.426000118255615,-5.8420000076293945 6.420000076293945,-5.833000183105469 C6.383999824523926,-5.783999919891357 6.3480000495910645,-5.734000205993652 6.313000202178955,-5.684000015258789 C6.168000221252441,-5.4770002365112305 6.031000137329102,-5.263999938964844 5.881999969482422,-5.059000015258789 C5.690999984741211,-4.796000003814697 5.479000091552734,-4.553999900817871 5.239999771118164,-4.3420000076293945 C5.408999919891357,-4.104000091552734 5.640999794006348,-3.9010000228881836 5.724999904632568,-3.8350000381469727 C5.9039998054504395,-3.7009999752044678 6.381999969482422,-2.5999999046325684 6.559000015258789,-1.909999966621399 C6.65500020980835,-1.5700000524520874 6.688000202178955,-1.2209999561309814 6.729000091552734,-0.8730000257492065 C6.7789998054504395,-0.6359999775886536 6.8470001220703125,-0.39800000190734863 6.859000205993652,-0.15299999713897705 C6.861000061035156,0.1679999977350235 6.698999881744385,0.4620000123977661 6.671000003814697,0.7720000147819519 C6.627999782562256,1.1740000247955322 6.63700008392334,1.5870000123977661 6.559000015258789,1.9950000047683716 C6.559000015258789,1.9950000047683716 6.35699987411499,2.4570000171661377 6.35699987411499,2.4570000171661377 C6.14900016784668,2.9010000228881836 6,3.374000072479248 5.730999946594238,3.7939999103546143 C5.611999988555908,3.9730000495910645 5.421000003814697,4.0980000495910645 5.296999931335449,4.264999866485596 C5.165999889373779,4.442999839782715 5.1519999504089355,4.627999782562256 5.052000045776367,4.833000183105469 C4.763999938964844,5.388000011444092 4.021999835968018,5.764999866485596 3.500999927520752,6.047999858856201 C3.117000102996826,6.2789998054504395 2.744999885559082,6.554999828338623 2.309999942779541,6.698999881744385 C1.8969999551773071,6.84499979019165 1.4559999704360962,6.642000198364258 1.0789999961853027,6.71999979019165 C0.8069999814033508,6.75 0.546999990940094,6.877999782562256 0.2669999897480011,6.880000114440918 C-0.23999999463558197,6.925000190734863 -0.7549999952316284,6.894999980926514 -1.2519999742507935,6.789999961853027 C-1.7170000076293945,6.703999996185303 -2.3259999752044678,6.574999809265137 -2.885999917984009,6.400000095367432 C-3.443000078201294,6.2220001220703125 -3.946000099182129,5.99399995803833 -4.199999809265137,5.8460001945495605 C-5.006999969482422,5.395999908447266 -5.656000137329102,4.682000160217285 -6.1479997634887695,3.9059998989105225 C-6.186999797821045,3.8380000591278076 -6.224999904632568,3.7690000534057617 -6.24399995803833,3.691999912261963 C-6.264999866485596,3.6050000190734863 -6.258999824523926,3.51200008392334 -6.263000011444092,3.4230000972747803 C-6.2779998779296875,2.8469998836517334 -6.690999984741211,2.424999952316284 -6.8520002365112305,1.8969999551773071 C-6.978000164031982,1.4450000524520874 -7.071000099182129,0.9829999804496765 -7.1020002365112305,0.5139999985694885 C-7.164999961853027,-0.23399999737739563 -7.070000171661377,-0.9879999756813049 -6.886000156402588,-1.7089999914169312 C-6.728000164031982,-2.3469998836517334 -6.501999855041504,-2.9719998836517334 -6.184000015258789,-3.553999900817871 C-6.033999919891357,-3.875999927520752 -5.821000099182129,-4.160999774932861 -5.63100004196167,-4.465000152587891 C-5.293000221252441,-4.961999893188477 -4.394000053405762,-5.809000015258789 -3.8310000896453857,-5.995999813079834 C-2.928999900817871,-6.318999767303467 -2.700000047683716,-6.560999870300293 -1.7640000581741333,-6.811999797821045 C-0.652999997138977,-7.158999919891357 1.1449999809265137,-6.8480000495910645 1.6330000162124634,-6.771999835968018 C1.6330000162124634,-6.771999835968018 4.423999786376953,-5.297999858856201 4.423999786376953,-5.297999858856201 C4.501999855041504,-5.2129998207092285 4.576000213623047,-5.169000148773193 4.645999908447266,-5.139999866485596 C4.651000022888184,-5.144999980926514 4.6579999923706055,-5.150000095367432 4.663000106811523,-5.15500020980835 C4.750999927520752,-5.239999771118164 4.834000110626221,-5.330999851226807 4.9120001792907715,-5.425000190734863 C4.929999828338623,-5.446000099182129 4.947000026702881,-5.4679999351501465 4.964000225067139,-5.489999771118164 C4.964000225067139,-5.489999771118164 4.965000152587891,-5.491000175476074 4.965000152587891,-5.491000175476074 C5.000999927520752,-5.539999961853027 5.035999774932861,-5.5879998207092285 5.071000099182129,-5.63700008392334 C5.239999771118164,-5.875 5.409999847412109,-6.11299991607666 5.585999965667725,-6.3470001220703125 C5.572999954223633,-6.363999843597412 5.553999900817871,-6.376999855041504 5.544000148773193,-6.394000053405762 C5.473999977111816,-6.513999938964844 5.4670000076293945,-6.646999835968018 5.493000030517578,-6.78000020980835 C5.5,-6.815000057220459 5.505000114440918,-6.848999977111816 5.511000156402588,-6.883999824523926 C5.514999866485596,-6.915999889373779 5.510000228881836,-6.947999954223633 5.51200008392334,-6.980000019073486 C4.433000087738037,-7.888999938964844 3.0409998893737793,-8.619999885559082 1.1829999685287476,-8.880000114440918 C0.4740000069141388,-8.972999572753906 -0.27399998903274536,-8.98900032043457 -0.8379999995231628,-8.892999649047852 C-2.128000020980835,-8.704999923706055 -3.4830000400543213,-8.454000473022461 -4.611000061035156,-7.72599983215332 C-4.928999900817871,-7.5289998054504395 -5.270999908447266,-7.440999984741211 -5.559999942779541,-7.2170000076293945 C-5.8429999351501465,-7.076000213623047 -6.815000057220459,-5.946000099182129 -7.110000133514404,-5.550000190734863 C-7.611999988555908,-4.929999828338623 -8.065999984741211,-4.103000164031982 -8.35200023651123,-3.367000102996826 C-8.625,-2.624000072479248 -8.746000289916992,-1.9900000095367432 -8.8100004196167,-1.777999997138977 C-8.979999542236328,-1.149999976158142 -9.003999710083008,-0.4779999852180481 -8.979000091552734,0.1679999977350235 C-8.958000183105469,0.5389999747276306 -8.932999610900879,0.9089999794960022 -8.866999626159668,1.274999976158142 C-8.812000274658203,1.746000051498413 -8.526000022888184,2.257999897003174 -8.515999794006348,2.7219998836517334 C-8.508000373840332,3.61899995803833 -8.045999526977539,4.421999931335449 -7.550000190734863,5.184000015258789 C-6.9629998207092285,6.072999954223633 -6.183000087738037,6.849999904632568 -5.251999855041504,7.360000133514404 C-4.834000110626221,7.598999977111816 -3.940000057220459,8.152999877929688 -2.8340001106262207,8.491999626159668 C-1.7389999628067017,8.857000350952148 -0.4620000123977661,8.98900032043457 0.4659999907016754,8.92300033569336 C0.4830000102519989,8.927000045776367 0.49799999594688416,8.935999870300293 0.515999972820282,8.939000129699707 C0.527999997138977,8.940999984741211 0.5440000295639038,8.942000389099121 0.5630000233650208,8.942999839782715 C0.8840000033378601,8.958999633789062 2.1389999389648438,8.819000244140625 3.2909998893737793,8.300999641418457 C4.521999835968018,7.7820000648498535 5.565999984741211,6.914000034332275 5.764999866485596,6.730999946594238 C5.985000133514404,6.566999912261963 6.616000175476074,6.035999774932861 7.146999835968018,5.302000045776367 C7.701000213623047,4.586999893188477 8.133999824523926,3.683000087738037 8.293999671936035,3.0940001010894775 C8.619000434875488,1.9429999589920044 8.753999710083008,1.4630000591278076 8.760000228881836,1.440999984741211 C9.003999710083008,0.8109999895095825 8.82800006866455,-0.597000002861023 8.82800006866455,-0.6060000061988831z"></path><path stroke-linecap="butt" stroke-linejoin="miter" fill-opacity="0" stroke-miterlimit="4" stroke="#000000" stroke-opacity="1" stroke-width="0px" d=" M8.82800006866455,-0.6060000061988831 C8.918999671936035,-0.46399998664855957 8.640000343322754,-3.388000011444092 6.671000003814697,-5.822000026702881 C6.593999862670898,-5.834000110626221 6.515999794006348,-5.8460001945495605 6.439000129699707,-5.859000205993652 C6.432000160217285,-5.849999904632568 6.426000118255615,-5.8420000076293945 6.420000076293945,-5.833000183105469 C6.383999824523926,-5.783999919891357 6.3480000495910645,-5.734000205993652 6.313000202178955,-5.684000015258789 C6.168000221252441,-5.4770002365112305 6.031000137329102,-5.263999938964844 5.881999969482422,-5.059000015258789 C5.690999984741211,-4.796000003814697 5.479000091552734,-4.553999900817871 5.239999771118164,-4.3420000076293945 C5.408999919891357,-4.104000091552734 5.640999794006348,-3.9010000228881836 5.724999904632568,-3.8350000381469727 C5.9039998054504395,-3.7009999752044678 6.381999969482422,-2.5999999046325684 6.559000015258789,-1.909999966621399 C6.65500020980835,-1.5700000524520874 6.688000202178955,-1.2209999561309814 6.729000091552734,-0.8730000257492065 C6.7789998054504395,-0.6359999775886536 6.8470001220703125,-0.39800000190734863 6.859000205993652,-0.15299999713897705 C6.861000061035156,0.1679999977350235 6.698999881744385,0.4620000123977661 6.671000003814697,0.7720000147819519 C6.627999782562256,1.1740000247955322 6.63700008392334,1.5870000123977661 6.559000015258789,1.9950000047683716 C6.559000015258789,1.9950000047683716 6.35699987411499,2.4570000171661377 6.35699987411499,2.4570000171661377 C6.14900016784668,2.9010000228881836 6,3.374000072479248 5.730999946594238,3.7939999103546143 C5.611999988555908,3.9730000495910645 5.421000003814697,4.0980000495910645 5.296999931335449,4.264999866485596 C5.165999889373779,4.442999839782715 5.1519999504089355,4.627999782562256 5.052000045776367,4.833000183105469 C4.763999938964844,5.388000011444092 4.021999835968018,5.764999866485596 3.500999927520752,6.047999858856201 C3.117000102996826,6.2789998054504395 2.744999885559082,6.554999828338623 2.309999942779541,6.698999881744385 C1.8969999551773071,6.84499979019165 1.4559999704360962,6.642000198364258 1.0789999961853027,6.71999979019165 C0.8069999814033508,6.75 0.546999990940094,6.877999782562256 0.2669999897480011,6.880000114440918 C-0.23999999463558197,6.925000190734863 -0.7549999952316284,6.894999980926514 -1.2519999742507935,6.789999961853027 C-1.7170000076293945,6.703999996185303 -2.3259999752044678,6.574999809265137 -2.885999917984009,6.400000095367432 C-3.443000078201294,6.2220001220703125 -3.946000099182129,5.99399995803833 -4.199999809265137,5.8460001945495605 C-5.006999969482422,5.395999908447266 -5.656000137329102,4.682000160217285 -6.1479997634887695,3.9059998989105225 C-6.186999797821045,3.8380000591278076 -6.224999904632568,3.7690000534057617 -6.24399995803833,3.691999912261963 C-6.264999866485596,3.6050000190734863 -6.258999824523926,3.51200008392334 -6.263000011444092,3.4230000972747803 C-6.2779998779296875,2.8469998836517334 -6.690999984741211,2.424999952316284 -6.8520002365112305,1.8969999551773071 C-6.978000164031982,1.4450000524520874 -7.071000099182129,0.9829999804496765 -7.1020002365112305,0.5139999985694885 C-7.164999961853027,-0.23399999737739563 -7.070000171661377,-0.9879999756813049 -6.886000156402588,-1.7089999914169312 C-6.728000164031982,-2.3469998836517334 -6.501999855041504,-2.9719998836517334 -6.184000015258789,-3.553999900817871 C-6.033999919891357,-3.875999927520752 -5.821000099182129,-4.160999774932861 -5.63100004196167,-4.465000152587891 C-5.293000221252441,-4.961999893188477 -4.394000053405762,-5.809000015258789 -3.8310000896453857,-5.995999813079834 C-2.928999900817871,-6.318999767303467 -2.700000047683716,-6.560999870300293 -1.7640000581741333,-6.811999797821045 C-0.652999997138977,-7.158999919891357 1.1449999809265137,-6.8480000495910645 1.6330000162124634,-6.771999835968018 C1.6330000162124634,-6.771999835968018 4.423999786376953,-5.297999858856201 4.423999786376953,-5.297999858856201 C4.501999855041504,-5.2129998207092285 4.576000213623047,-5.169000148773193 4.645999908447266,-5.139999866485596 C4.651000022888184,-5.144999980926514 4.6579999923706055,-5.150000095367432 4.663000106811523,-5.15500020980835 C4.750999927520752,-5.239999771118164 4.834000110626221,-5.330999851226807 4.9120001792907715,-5.425000190734863 C4.929999828338623,-5.446000099182129 4.947000026702881,-5.4679999351501465 4.964000225067139,-5.489999771118164 C4.964000225067139,-5.489999771118164 4.965000152587891,-5.491000175476074 4.965000152587891,-5.491000175476074 C5.000999927520752,-5.539999961853027 5.035999774932861,-5.5879998207092285 5.071000099182129,-5.63700008392334 C5.239999771118164,-5.875 5.409999847412109,-6.11299991607666 5.585999965667725,-6.3470001220703125 C5.572999954223633,-6.363999843597412 5.553999900817871,-6.376999855041504 5.544000148773193,-6.394000053405762 C5.473999977111816,-6.513999938964844 5.4670000076293945,-6.646999835968018 5.493000030517578,-6.78000020980835 C5.5,-6.815000057220459 5.505000114440918,-6.848999977111816 5.511000156402588,-6.883999824523926 C5.514999866485596,-6.915999889373779 5.510000228881836,-6.947999954223633 5.51200008392334,-6.980000019073486 C4.433000087738037,-7.888999938964844 3.0409998893737793,-8.619999885559082 1.1829999685287476,-8.880000114440918 C0.4740000069141388,-8.972999572753906 -0.27399998903274536,-8.98900032043457 -0.8379999995231628,-8.892999649047852 C-2.128000020980835,-8.704999923706055 -3.4830000400543213,-8.454000473022461 -4.611000061035156,-7.72599983215332 C-4.928999900817871,-7.5289998054504395 -5.270999908447266,-7.440999984741211 -5.559999942779541,-7.2170000076293945 C-5.8429999351501465,-7.076000213623047 -6.815000057220459,-5.946000099182129 -7.110000133514404,-5.550000190734863 C-7.611999988555908,-4.929999828338623 -8.065999984741211,-4.103000164031982 -8.35200023651123,-3.367000102996826 C-8.625,-2.624000072479248 -8.746000289916992,-1.9900000095367432 -8.8100004196167,-1.777999997138977 C-8.979999542236328,-1.149999976158142 -9.003999710083008,-0.4779999852180481 -8.979000091552734,0.1679999977350235 C-8.958000183105469,0.5389999747276306 -8.932999610900879,0.9089999794960022 -8.866999626159668,1.274999976158142 C-8.812000274658203,1.746000051498413 -8.526000022888184,2.257999897003174 -8.515999794006348,2.7219998836517334 C-8.508000373840332,3.61899995803833 -8.045999526977539,4.421999931335449 -7.550000190734863,5.184000015258789 C-6.9629998207092285,6.072999954223633 -6.183000087738037,6.849999904632568 -5.251999855041504,7.360000133514404 C-4.834000110626221,7.598999977111816 -3.940000057220459,8.152999877929688 -2.8340001106262207,8.491999626159668 C-1.7389999628067017,8.857000350952148 -0.4620000123977661,8.98900032043457 0.4659999907016754,8.92300033569336 C0.4830000102519989,8.927000045776367 0.49799999594688416,8.935999870300293 0.515999972820282,8.939000129699707 C0.527999997138977,8.940999984741211 0.5440000295639038,8.942000389099121 0.5630000233650208,8.942999839782715 C0.8840000033378601,8.958999633789062 2.1389999389648438,8.819000244140625 3.2909998893737793,8.300999641418457 C4.521999835968018,7.7820000648498535 5.565999984741211,6.914000034332275 5.764999866485596,6.730999946594238 C5.985000133514404,6.566999912261963 6.616000175476074,6.035999774932861 7.146999835968018,5.302000045776367 C7.701000213623047,4.586999893188477 8.133999824523926,3.683000087738037 8.293999671936035,3.0940001010894775 C8.619000434875488,1.9429999589920044 8.753999710083008,1.4630000591278076 8.760000228881836,1.440999984741211 C9.003999710083008,0.8109999895095825 8.82800006866455,-0.597000002861023 8.82800006866455,-0.6060000061988831z"></path></g><g opacity="1" transform="matrix(1,0,0,1,0,0)"><path fill="#792F6C" fill-opacity="1" d=" M-1.9220000505447388,4.005000114440918"></path><path stroke-linecap="butt" stroke-linejoin="miter" fill-opacity="0" stroke-miterlimit="4" stroke="#000000" stroke-opacity="1" stroke-width="0px" d=" M-1.9220000505447388,4.005000114440918"></path></g><g opacity="1" transform="matrix(1,0,0,1,0,0)"><path fill="#792F6C" fill-opacity="1" d=" M2.8340001106262207,-0.5550000071525574"></path><path stroke-linecap="butt" stroke-linejoin="miter" fill-opacity="0" stroke-miterlimit="4" stroke="#000000" stroke-opacity="1" stroke-width="0px" d=" M2.8340001106262207,-0.5550000071525574"></path></g><g opacity="1" transform="matrix(1,0,0,1,0,0)"><path fill="#792F6C" fill-opacity="1" d=" M1.75,-2.6489999294281006"></path><path stroke-linecap="butt" stroke-linejoin="miter" fill-opacity="0" stroke-miterlimit="4" stroke="#000000" stroke-opacity="1" stroke-width="0px" d=" M1.75,-2.6489999294281006"></path></g><g opacity="1" transform="matrix(1,0,0,1,0,0)"><path fill="#792F6C" fill-opacity="1" d="M0 0"></path><path stroke-linecap="butt" stroke-linejoin="miter" fill-opacity="0" stroke-miterlimit="4" stroke="#000000" stroke-opacity="1" stroke-width="0px" d="M0 0"></path></g></g><g transform="matrix(0.9102100133895874,0,0,0.9016299843788147,302,307)" opacity="1" style="display: block;"><g opacity="1" transform="matrix(1,0,0,1,0,0)"><path fill="#792F6C" fill-opacity="1" d=" M50.119998931884766,103.6780014038086 C49.400001525878906,103.09500122070312 29.68899917602539,101.76899719238281 28.69499969482422,102.98799896240234 C28.215999603271484,103.57499694824219 12.187000274658203,89.89900207519531 7.553999900817871,84.26899719238281 C-1.0989999771118164,73.75599670410156 -7.690999984741211,74.30999755859375 -16.55500030517578,83.15899658203125 C-25.81800079345703,93.71900177001953 -37.775001525878906,103.5770034790039 -38.24399948120117,102.98799896240234 C-39.215999603271484,101.76699829101562 -57.29800033569336,101.98699951171875 -58.020999908447266,102.56900024414062 C-58.74700164794922,103.15299987792969 -62.3120002746582,114.71900177001953 -61.41400146484375,116.93099975585938 C-61.11000061035156,117.68099975585938 -52.345001220703125,117.6050033569336 -46.27199935913086,119.50800323486328 C-46.090999603271484,119.56500244140625 -45.78799819946289,119.59600067138672 -45.380001068115234,119.59700012207031 C-41.82099914550781,119.60900115966797 -30.215999603271484,117.427001953125 -20.670000076293945,111.38999938964844 C-11.666000366210938,105.69599914550781 -7.521999835968018,93.69400024414062 -5.598999977111816,93.62899780273438 C-5.455999851226807,93.63400268554688 6.809999942779541,105.8740005493164 7.0229997634887695,105.94499969482422 C10.847999572753906,107.22000122070312 17.363000869750977,112.79100036621094 22.990999221801758,115.0719985961914 C37.354000091552734,120.89299774169922 48.316001892089844,117.68399810791016 48.569000244140625,116.93099975585938 C49.31399917602539,114.70899963378906 50.84299850463867,104.26300048828125 50.119998931884766,103.6780014038086z"></path><path stroke-linecap="butt" stroke-linejoin="miter" fill-opacity="0" stroke-miterlimit="4" stroke="#000000" stroke-opacity="1" stroke-width="0px" d=" M50.119998931884766,103.6780014038086 C49.400001525878906,103.09500122070312 29.68899917602539,101.76899719238281 28.69499969482422,102.98799896240234 C28.215999603271484,103.57499694824219 12.187000274658203,89.89900207519531 7.553999900817871,84.26899719238281 C-1.0989999771118164,73.75599670410156 -7.690999984741211,74.30999755859375 -16.55500030517578,83.15899658203125 C-25.81800079345703,93.71900177001953 -37.775001525878906,103.5770034790039 -38.24399948120117,102.98799896240234 C-39.215999603271484,101.76699829101562 -57.29800033569336,101.98699951171875 -58.020999908447266,102.56900024414062 C-58.74700164794922,103.15299987792969 -62.3120002746582,114.71900177001953 -61.41400146484375,116.93099975585938 C-61.11000061035156,117.68099975585938 -52.345001220703125,117.6050033569336 -46.27199935913086,119.50800323486328 C-46.090999603271484,119.56500244140625 -45.78799819946289,119.59600067138672 -45.380001068115234,119.59700012207031 C-41.82099914550781,119.60900115966797 -30.215999603271484,117.427001953125 -20.670000076293945,111.38999938964844 C-11.666000366210938,105.69599914550781 -7.521999835968018,93.69400024414062 -5.598999977111816,93.62899780273438 C-5.455999851226807,93.63400268554688 6.809999942779541,105.8740005493164 7.0229997634887695,105.94499969482422 C10.847999572753906,107.22000122070312 17.363000869750977,112.79100036621094 22.990999221801758,115.0719985961914 C37.354000091552734,120.89299774169922 48.316001892089844,117.68399810791016 48.569000244140625,116.93099975585938 C49.31399917602539,114.70899963378906 50.84299850463867,104.26300048828125 50.119998931884766,103.6780014038086z"></path></g></g></g></svg>