<svg xmlns:xlink="http://www.w3.org/1999/xlink" xmlns="http://www.w3.org/2000/svg" viewBox="0 0 600 600" width="600" height="600" preserveAspectRatio="xMidYMid meet" style="width: 100%; height: 100%; transform: translate3d(0px, 0px, 0px);"><defs><clipPath id="__lottie_element_112"><rect width="600" height="600" x="0" y="0"></rect></clipPath></defs><g clip-path="url(#__lottie_element_112)"><g transform="matrix(8.6873197555542,0,0,8.6873197555542,401.5,323.75)" opacity="1" style="display: block;"><g opacity="1" transform="matrix(1,0,0,1,0,0)"><path fill="#792F6B" fill-opacity="1" d=" M8.656999588012695,1.430999994277954 C8.52299976348877,0.020999999716877937 8.41100025177002,-1.399999976158142 8.58899974822998,-2.86899995803833 C8.822999954223633,-4.797999858856201 8.819999694824219,-6.764999866485596 8.708999633789062,-8.729999542236328 C8.647000312805176,-9.821999549865723 8.553000450134277,-10.913000106811523 8.446000099182129,-11.996000289916992 C8.37399959564209,-12.72700023651123 8.295999526977539,-13.454999923706055 8.220000267028809,-14.177000045776367 C8.072999954223633,-15.470000267028809 8.119999885559082,-16.868000030517578 8.053999900817871,-18.209999084472656 C7.994999885559082,-19.424999237060547 7.8429999351501465,-20.593000411987305 7.375,-21.593000411987305 C6.861999988555908,-22.687999725341797 5.968999862670898,-23.582000732421875 4.39900016784668,-24.114999771118164 C3.062999963760376,-24.610000610351562 1.7829999923706055,-24.42799949645996 1.3049999475479126,-24.204999923706055 C0.8149999976158142,-24.009000778198242 -0.47099998593330383,-23.533000946044922 -1.3869999647140503,-22.55500030517578 C-2.7290000915527344,-21.121000289916992 -3.0810000896453857,-19.395999908447266 -2.075000047683716,-18.788999557495117 C-1.5800000429153442,-18.489999771118164 -0.7570000290870667,-18.461999893188477 0.43799999356269836,-18.871999740600586 C0.28700000047683716,-19.510000228881836 0.7070000171661377,-19.908000946044922 1.2610000371932983,-20.05900001525879 C1.6729999780654907,-20.17099952697754 2.1589999198913574,-20.14699935913086 2.5369999408721924,-19.983999252319336 C3.3929998874664307,-19.614999771118164 3.990000009536743,-18.444000244140625 4.083000183105469,-17.58099937438965 C4.185999870300293,-16.625999450683594 4.0960001945495605,-15.086000442504883 4.065999984741211,-14.069999694824219 C4.006999969482422,-12.07699966430664 4.409999847412109,-10.147000312805176 4.269999980926514,-8.13700008392334 C4.127999782562256,-6.099999904632568 3.7249999046325684,-3.928999900817871 3.61299991607666,-1.9850000143051147 C3.546999931335449,-0.8330000042915344 3.5399999618530273,0.32100000977516174 3.7850000858306885,1.468000054359436 C3.8980000019073486,1.99399995803833 3.9159998893737793,3.134000062942505 3.8980000019073486,4.396999835968018 C3.881999969482422,5.0279998779296875 3.865999937057495,5.690999984741211 3.8499999046325684,6.322000026702881 C3.813999891281128,6.909999847412109 3.753999948501587,7.380000114440918 3.7209999561309814,7.820000171661377 C3.7060000896453857,7.834000110626221 3.680000066757202,7.8429999351501465 3.6689999103546143,7.859000205993652 C3.5299999713897705,8.048999786376953 3.4170000553131104,9.236000061035156 3.0929999351501465,10.406000137329102 C2.753000020980835,11.565999984741211 2.246999979019165,12.697999954223633 2.053999900817871,12.878000259399414 C1.8769999742507935,13.069000244140625 1.465999960899353,13.687000274658203 0.9390000104904175,14.307999610900879 C0.42500001192092896,14.937000274658203 -0.17299999296665192,15.588000297546387 -0.531000018119812,16.016000747680664 C-1.225000023841858,16.844999313354492 -2.5320000648498535,17.739999771118164 -3.9140000343322754,18.382999420166016 C-5.123000144958496,18.945999145507812 -6.388999938964844,19.315000534057617 -7.349999904632568,19.27899932861328 C-7.817999839782715,19.26099967956543 -8.432999610900879,19.1299991607666 -8.711999893188477,19.674999237060547 C-8.987000465393066,20.20400047302246 -9.039999961853027,22.040000915527344 -8.822999954223633,23.49799919128418 C-8.65999984741211,24.608999252319336 -6.927999973297119,24.152000427246094 -6.646999835968018,23.888999938964844 C-6.495999813079834,23.780000686645508 -5.938000202178955,23.753999710083008 -5.2779998779296875,23.674999237060547 C-4.630000114440918,23.551000595092773 -3.8480000495910645,23.474000930786133 -3.315000057220459,23.23699951171875 C-1.9880000352859497,22.756999969482422 -0.4480000138282776,22.354000091552734 0.8009999990463257,21.545000076293945 C1.3760000467300415,21.18000030517578 1.75,20.55500030517578 2.236999988555908,20.110000610351562 C3.305000066757202,19.135000228881836 4.443999767303467,18.454999923706055 5.201000213623047,17.04599952697754 C5.918000221252441,15.807999610900879 6.385000228881836,14.657999992370605 7,13.397000312805176 C7.250999927520752,12.810999870300293 7.495999813079834,12.208000183105469 7.730000019073486,11.593000411987305 C7.910999774932861,10.963000297546387 8.152999877929688,10.335000038146973 8.288999557495117,9.680999755859375 C8.418999671936035,9.027000427246094 8.604000091552734,8.371000289916992 8.656999588012695,7.703000068664551 C8.73799991607666,7.031000137329102 8.8149995803833,6.3460001945495605 8.847000122070312,5.815000057220459 C8.958000183105469,4.335999965667725 8.795999526977539,2.8889999389648438 8.656999588012695,1.430999994277954z"></path><path stroke-linecap="butt" stroke-linejoin="miter" fill-opacity="0" stroke-miterlimit="4" stroke="#000000" stroke-opacity="1" stroke-width="0px" d=" M8.656999588012695,1.430999994277954 C8.52299976348877,0.020999999716877937 8.41100025177002,-1.399999976158142 8.58899974822998,-2.86899995803833 C8.822999954223633,-4.797999858856201 8.819999694824219,-6.764999866485596 8.708999633789062,-8.729999542236328 C8.647000312805176,-9.821999549865723 8.553000450134277,-10.913000106811523 8.446000099182129,-11.996000289916992 C8.37399959564209,-12.72700023651123 8.295999526977539,-13.454999923706055 8.220000267028809,-14.177000045776367 C8.072999954223633,-15.470000267028809 8.119999885559082,-16.868000030517578 8.053999900817871,-18.209999084472656 C7.994999885559082,-19.424999237060547 7.8429999351501465,-20.593000411987305 7.375,-21.593000411987305 C6.861999988555908,-22.687999725341797 5.968999862670898,-23.582000732421875 4.39900016784668,-24.114999771118164 C3.062999963760376,-24.610000610351562 1.7829999923706055,-24.42799949645996 1.3049999475479126,-24.204999923706055 C0.8149999976158142,-24.009000778198242 -0.47099998593330383,-23.533000946044922 -1.3869999647140503,-22.55500030517578 C-2.7290000915527344,-21.121000289916992 -3.0810000896453857,-19.395999908447266 -2.075000047683716,-18.788999557495117 C-1.5800000429153442,-18.489999771118164 -0.7570000290870667,-18.461999893188477 0.43799999356269836,-18.871999740600586 C0.28700000047683716,-19.510000228881836 0.7070000171661377,-19.908000946044922 1.2610000371932983,-20.05900001525879 C1.6729999780654907,-20.17099952697754 2.1589999198913574,-20.14699935913086 2.5369999408721924,-19.983999252319336 C3.3929998874664307,-19.614999771118164 3.990000009536743,-18.444000244140625 4.083000183105469,-17.58099937438965 C4.185999870300293,-16.625999450683594 4.0960001945495605,-15.086000442504883 4.065999984741211,-14.069999694824219 C4.006999969482422,-12.07699966430664 4.409999847412109,-10.147000312805176 4.269999980926514,-8.13700008392334 C4.127999782562256,-6.099999904632568 3.7249999046325684,-3.928999900817871 3.61299991607666,-1.9850000143051147 C3.546999931335449,-0.8330000042915344 3.5399999618530273,0.32100000977516174 3.7850000858306885,1.468000054359436 C3.8980000019073486,1.99399995803833 3.9159998893737793,3.134000062942505 3.8980000019073486,4.396999835968018 C3.881999969482422,5.0279998779296875 3.865999937057495,5.690999984741211 3.8499999046325684,6.322000026702881 C3.813999891281128,6.909999847412109 3.753999948501587,7.380000114440918 3.7209999561309814,7.820000171661377 C3.7060000896453857,7.834000110626221 3.680000066757202,7.8429999351501465 3.6689999103546143,7.859000205993652 C3.5299999713897705,8.048999786376953 3.4170000553131104,9.236000061035156 3.0929999351501465,10.406000137329102 C2.753000020980835,11.565999984741211 2.246999979019165,12.697999954223633 2.053999900817871,12.878000259399414 C1.8769999742507935,13.069000244140625 1.465999960899353,13.687000274658203 0.9390000104904175,14.307999610900879 C0.42500001192092896,14.937000274658203 -0.17299999296665192,15.588000297546387 -0.531000018119812,16.016000747680664 C-1.225000023841858,16.844999313354492 -2.5320000648498535,17.739999771118164 -3.9140000343322754,18.382999420166016 C-5.123000144958496,18.945999145507812 -6.388999938964844,19.315000534057617 -7.349999904632568,19.27899932861328 C-7.817999839782715,19.26099967956543 -8.432999610900879,19.1299991607666 -8.711999893188477,19.674999237060547 C-8.987000465393066,20.20400047302246 -9.039999961853027,22.040000915527344 -8.822999954223633,23.49799919128418 C-8.65999984741211,24.608999252319336 -6.927999973297119,24.152000427246094 -6.646999835968018,23.888999938964844 C-6.495999813079834,23.780000686645508 -5.938000202178955,23.753999710083008 -5.2779998779296875,23.674999237060547 C-4.630000114440918,23.551000595092773 -3.8480000495910645,23.474000930786133 -3.315000057220459,23.23699951171875 C-1.9880000352859497,22.756999969482422 -0.4480000138282776,22.354000091552734 0.8009999990463257,21.545000076293945 C1.3760000467300415,21.18000030517578 1.75,20.55500030517578 2.236999988555908,20.110000610351562 C3.305000066757202,19.135000228881836 4.443999767303467,18.454999923706055 5.201000213623047,17.04599952697754 C5.918000221252441,15.807999610900879 6.385000228881836,14.657999992370605 7,13.397000312805176 C7.250999927520752,12.810999870300293 7.495999813079834,12.208000183105469 7.730000019073486,11.593000411987305 C7.910999774932861,10.963000297546387 8.152999877929688,10.335000038146973 8.288999557495117,9.680999755859375 C8.418999671936035,9.027000427246094 8.604000091552734,8.371000289916992 8.656999588012695,7.703000068664551 C8.73799991607666,7.031000137329102 8.8149995803833,6.3460001945495605 8.847000122070312,5.815000057220459 C8.958000183105469,4.335999965667725 8.795999526977539,2.8889999389648438 8.656999588012695,1.430999994277954z"></path></g></g><g transform="matrix(8.6873197555542,0,0,8.6873197555542,356,164)" opacity="1" style="display: block;"><g opacity="1" transform="matrix(1,0,0,1,0,0)"><path fill="#792F6B" fill-opacity="1" d=" M2.309999942779541,10.824999809265137 C3.3610000610351562,10.795000076293945 4.150000095367432,11.428000450134277 4.795000076293945,10.388999938964844 C4.795000076293945,10.388999938964844 5.041999816894531,9.513999938964844 5.264999866485596,8.425999641418457 C5.510000228881836,7.228000164031982 5.723999977111816,5.770999908447266 5.544000148773193,4.940000057220459 C5.296999931335449,3.802999973297119 5.440999984741211,2.697999954223633 5.583000183105469,1.5980000495910645 C5.692999839782715,0.746999979019165 5.801000118255615,-0.10100000351667404 5.728000164031982,-0.9610000252723694 C5.616000175476074,-2.2780001163482666 5.683000087738037,-4.658999919891357 5.218999862670898,-5.872000217437744 C4.666999816894531,-7.316999912261963 3.503000020980835,-8.118000030517578 2.322000026702881,-8.982999801635742 C1.7979999780654907,-9.368000030517578 1.2760000228881836,-9.609999656677246 0.7620000243186951,-9.732999801635742 C0.07000000029802322,-9.89900016784668 -0.6060000061988831,-9.848999977111816 -1.2480000257492065,-9.645999908447266 C-2.063999891281128,-9.387999534606934 -2.8239998817443848,-8.880999565124512 -3.492000102996826,-8.251999855041504 C-4.385000228881836,-7.410999774932861 -5.111999988555908,-6.3520002365112305 -5.583000183105469,-5.375999927520752 C-5.76200008392334,-5.0289998054504395 -5.896999835968018,-4.47599983215332 -5.533999919891357,-4.23199987411499 C-4.150000095367432,-3.253999948501587 -2.8389999866485596,-4.1479997634887695 -1.944000005722046,-4.940000057220459 C-1.2519999742507935,-5.552000045776367 -1.2940000295639038,-6.22599983215332 -0.1589999943971634,-6.165999889373779 C1.0379999876022339,-6.103000164031982 1.6579999923706055,-5.045000076293945 1.3760000467300415,-3.9600000381469727 C1.1399999856948853,-2.4539999961853027 1.840999960899353,-1.3389999866485596 1.4459999799728394,0.2409999966621399 C1.1890000104904175,1.2690000534057617 1.1820000410079956,1.9889999628067017 1.2489999532699585,2.6540000438690186 C1.347000002861023,3.632999897003174 1.6050000190734863,4.492000102996826 1.4559999704360962,6.040999889373779 C1.3669999837875366,6.965000152587891 0.5540000200271606,10.87600040435791 2.309999942779541,10.824999809265137z"></path><path stroke-linecap="butt" stroke-linejoin="miter" fill-opacity="0" stroke-miterlimit="4" stroke="#000000" stroke-opacity="1" stroke-width="0px" d=" M2.309999942779541,10.824999809265137 C3.3610000610351562,10.795000076293945 4.150000095367432,11.428000450134277 4.795000076293945,10.388999938964844 C4.795000076293945,10.388999938964844 5.041999816894531,9.513999938964844 5.264999866485596,8.425999641418457 C5.510000228881836,7.228000164031982 5.723999977111816,5.770999908447266 5.544000148773193,4.940000057220459 C5.296999931335449,3.802999973297119 5.440999984741211,2.697999954223633 5.583000183105469,1.5980000495910645 C5.692999839782715,0.746999979019165 5.801000118255615,-0.10100000351667404 5.728000164031982,-0.9610000252723694 C5.616000175476074,-2.2780001163482666 5.683000087738037,-4.658999919891357 5.218999862670898,-5.872000217437744 C4.666999816894531,-7.316999912261963 3.503000020980835,-8.118000030517578 2.322000026702881,-8.982999801635742 C1.7979999780654907,-9.368000030517578 1.2760000228881836,-9.609999656677246 0.7620000243186951,-9.732999801635742 C0.07000000029802322,-9.89900016784668 -0.6060000061988831,-9.848999977111816 -1.2480000257492065,-9.645999908447266 C-2.063999891281128,-9.387999534606934 -2.8239998817443848,-8.880999565124512 -3.492000102996826,-8.251999855041504 C-4.385000228881836,-7.410999774932861 -5.111999988555908,-6.3520002365112305 -5.583000183105469,-5.375999927520752 C-5.76200008392334,-5.0289998054504395 -5.896999835968018,-4.47599983215332 -5.533999919891357,-4.23199987411499 C-4.150000095367432,-3.253999948501587 -2.8389999866485596,-4.1479997634887695 -1.944000005722046,-4.940000057220459 C-1.2519999742507935,-5.552000045776367 -1.2940000295639038,-6.22599983215332 -0.1589999943971634,-6.165999889373779 C1.0379999876022339,-6.103000164031982 1.6579999923706055,-5.045000076293945 1.3760000467300415,-3.9600000381469727 C1.1399999856948853,-2.4539999961853027 1.840999960899353,-1.3389999866485596 1.4459999799728394,0.2409999966621399 C1.1890000104904175,1.2690000534057617 1.1820000410079956,1.9889999628067017 1.2489999532699585,2.6540000438690186 C1.347000002861023,3.632999897003174 1.6050000190734863,4.492000102996826 1.4559999704360962,6.040999889373779 C1.3669999837875366,6.965000152587891 0.5540000200271606,10.87600040435791 2.309999942779541,10.824999809265137z"></path></g></g><g transform="matrix(8.6873197555542,0,0,8.6873197555542,197,399.25)" opacity="1" style="display: block;"><g opacity="1" transform="matrix(1,0,0,1,0,0)"><path fill="#792F6B" fill-opacity="1" d=" M13.505999565124512,-19.01099967956543 C14.4399995803833,-19.016000747680664 14.555000305175781,-18.725000381469727 14.845000267028809,-18.934999465942383 C15.258000373840332,-19.233999252319336 15.553000450134277,-20.020000457763672 15.583000183105469,-21.253000259399414 C15.598999977111816,-21.94099998474121 15.607000350952148,-23.166000366210938 15.562000274658203,-23.733999252319336 C15.53600025177002,-24.05500030517578 15.562999725341797,-24.6560001373291 15.597999572753906,-25.23900032043457 C15.628000259399414,-25.731000900268555 15.664999961853027,-26.209999084472656 15.682000160217285,-26.496000289916992 C15.729999542236328,-27.299999237060547 15.475000381469727,-28.066999435424805 15.461999893188477,-28.992000579833984 C15.444000244140625,-30.250999450683594 15.687000274658203,-30.343000411987305 15.727999687194824,-31.599000930786133 C15.744000434875488,-32.082000732421875 15.461000442504883,-32.263999938964844 15.348999977111816,-33.07099914550781 C15.307000160217285,-33.37200164794922 15.215999603271484,-33.72200012207031 15.138999938964844,-34.04499816894531 C15.043000221252441,-34.44499969482422 14.968999862670898,-34.80400085449219 15.036999702453613,-34.97999954223633 C15.043000221252441,-34.99599838256836 14.480999946594238,-36.85300064086914 14.484000205993652,-36.86899948120117 C14.515999794006348,-37.05400085449219 14.482000350952148,-37.4900016784668 13.765999794006348,-38.25600051879883 C13.067999839782715,-39.04100036621094 11.951000213623047,-38.76100158691406 11.774999618530273,-38.87799835205078 C11.604000091552734,-39.007999420166016 9.321999549865723,-38.95100021362305 8.607000350952148,-38.948001861572266 C6.99399995803833,-38.94200134277344 6.4710001945495605,-38.611000061035156 6.072000026702881,-37.96900177001953 C5.7230000495910645,-37.40700149536133 5.46999979019165,-36.608001708984375 4.665999889373779,-35.577999114990234 C4.314000129699707,-35.12699890136719 4.2230000495910645,-34.8390007019043 3.938999891281128,-34.24800109863281 C3.8350000381469727,-34.04499816894531 4.085000038146973,-33.71200180053711 4.381999969482422,-33.422000885009766 C4.589000225067139,-33.220001220703125 4.818999767303467,-33.03900146484375 4.9679999351501465,-32.939998626708984 C5.048999786376953,-32.882999420166016 5.129000186920166,-32.775001525878906 5.2170000076293945,-32.643001556396484 C5.326000213623047,-32.48099899291992 5.447999954223633,-32.28300094604492 5.5970001220703125,-32.097999572753906 C5.85699987411499,-31.777000427246094 6.201000213623047,-31.49799919128418 6.715000152587891,-31.520000457763672 C6.925000190734863,-31.52899932861328 7.034999847412109,-32.86600112915039 7.059999942779541,-33.07400131225586 C7.166999816894531,-33.97800064086914 7.810999870300293,-35.01499938964844 8.03600025177002,-35.54899978637695 C8.45300006866455,-36.53900146484375 9.015000343322754,-35.95000076293945 9.506999969482422,-36.202999114990234 C9.968999862670898,-36.441001892089844 11.312000274658203,-36.207000732421875 11.66100025177002,-35.84700012207031 C12.08899974822998,-35.39699935913086 12.345999717712402,-33.68000030517578 12.166000366210938,-33.21099853515625 C12.064000129699707,-32.56999969482422 12.121999740600586,-31.625 12.230999946594238,-31.23900032043457 C12.425000190734863,-30.542999267578125 12.008000373840332,-29.733999252319336 11.833000183105469,-29.040000915527344 C11.656999588012695,-28.341999053955078 12.057999610900879,-27.87299919128418 12.03600025177002,-27.173999786376953 C11.993000030517578,-26.30299949645996 12.090999603271484,-25.93000030517578 12.182999610900879,-25.55900001525879 C12.27400016784668,-25.190000534057617 12.357999801635742,-24.822999954223633 12.284000396728516,-23.9689998626709 C12.204000473022461,-23.048999786376953 12.366000175476074,-22.56100082397461 12.357999801635742,-22.014999389648438 C12.350000381469727,-21.45800018310547 12.11299991607666,-20.323999404907227 11.802000045776367,-19.368000030517578 C11.729999542236328,-19.145999908447266 12.833000183105469,-19.007999420166016 13.505999565124512,-19.01099967956543z"></path><path stroke-linecap="butt" stroke-linejoin="miter" fill-opacity="0" stroke-miterlimit="4" stroke="#000000" stroke-opacity="1" stroke-width="0px" d=" M13.505999565124512,-19.01099967956543 C14.4399995803833,-19.016000747680664 14.555000305175781,-18.725000381469727 14.845000267028809,-18.934999465942383 C15.258000373840332,-19.233999252319336 15.553000450134277,-20.020000457763672 15.583000183105469,-21.253000259399414 C15.598999977111816,-21.94099998474121 15.607000350952148,-23.166000366210938 15.562000274658203,-23.733999252319336 C15.53600025177002,-24.05500030517578 15.562999725341797,-24.6560001373291 15.597999572753906,-25.23900032043457 C15.628000259399414,-25.731000900268555 15.664999961853027,-26.209999084472656 15.682000160217285,-26.496000289916992 C15.729999542236328,-27.299999237060547 15.475000381469727,-28.066999435424805 15.461999893188477,-28.992000579833984 C15.444000244140625,-30.250999450683594 15.687000274658203,-30.343000411987305 15.727999687194824,-31.599000930786133 C15.744000434875488,-32.082000732421875 15.461000442504883,-32.263999938964844 15.348999977111816,-33.07099914550781 C15.307000160217285,-33.37200164794922 15.215999603271484,-33.72200012207031 15.138999938964844,-34.04499816894531 C15.043000221252441,-34.44499969482422 14.968999862670898,-34.80400085449219 15.036999702453613,-34.97999954223633 C15.043000221252441,-34.99599838256836 14.480999946594238,-36.85300064086914 14.484000205993652,-36.86899948120117 C14.515999794006348,-37.05400085449219 14.482000350952148,-37.4900016784668 13.765999794006348,-38.25600051879883 C13.067999839782715,-39.04100036621094 11.951000213623047,-38.76100158691406 11.774999618530273,-38.87799835205078 C11.604000091552734,-39.007999420166016 9.321999549865723,-38.95100021362305 8.607000350952148,-38.948001861572266 C6.99399995803833,-38.94200134277344 6.4710001945495605,-38.611000061035156 6.072000026702881,-37.96900177001953 C5.7230000495910645,-37.40700149536133 5.46999979019165,-36.608001708984375 4.665999889373779,-35.577999114990234 C4.314000129699707,-35.12699890136719 4.2230000495910645,-34.8390007019043 3.938999891281128,-34.24800109863281 C3.8350000381469727,-34.04499816894531 4.085000038146973,-33.71200180053711 4.381999969482422,-33.422000885009766 C4.589000225067139,-33.220001220703125 4.818999767303467,-33.03900146484375 4.9679999351501465,-32.939998626708984 C5.048999786376953,-32.882999420166016 5.129000186920166,-32.775001525878906 5.2170000076293945,-32.643001556396484 C5.326000213623047,-32.48099899291992 5.447999954223633,-32.28300094604492 5.5970001220703125,-32.097999572753906 C5.85699987411499,-31.777000427246094 6.201000213623047,-31.49799919128418 6.715000152587891,-31.520000457763672 C6.925000190734863,-31.52899932861328 7.034999847412109,-32.86600112915039 7.059999942779541,-33.07400131225586 C7.166999816894531,-33.97800064086914 7.810999870300293,-35.01499938964844 8.03600025177002,-35.54899978637695 C8.45300006866455,-36.53900146484375 9.015000343322754,-35.95000076293945 9.506999969482422,-36.202999114990234 C9.968999862670898,-36.441001892089844 11.312000274658203,-36.207000732421875 11.66100025177002,-35.84700012207031 C12.08899974822998,-35.39699935913086 12.345999717712402,-33.68000030517578 12.166000366210938,-33.21099853515625 C12.064000129699707,-32.56999969482422 12.121999740600586,-31.625 12.230999946594238,-31.23900032043457 C12.425000190734863,-30.542999267578125 12.008000373840332,-29.733999252319336 11.833000183105469,-29.040000915527344 C11.656999588012695,-28.341999053955078 12.057999610900879,-27.87299919128418 12.03600025177002,-27.173999786376953 C11.993000030517578,-26.30299949645996 12.090999603271484,-25.93000030517578 12.182999610900879,-25.55900001525879 C12.27400016784668,-25.190000534057617 12.357999801635742,-24.822999954223633 12.284000396728516,-23.9689998626709 C12.204000473022461,-23.048999786376953 12.366000175476074,-22.56100082397461 12.357999801635742,-22.014999389648438 C12.350000381469727,-21.45800018310547 12.11299991607666,-20.323999404907227 11.802000045776367,-19.368000030517578 C11.729999542236328,-19.145999908447266 12.833000183105469,-19.007999420166016 13.505999565124512,-19.01099967956543z"></path></g></g><g transform="matrix(8.6873197555542,0,0,8.6873197555542,195,398.5)" opacity="1" style="display: block;"><g opacity="1" transform="matrix(1,0,0,1,0,0)"><path fill="#792F6B" fill-opacity="1" d=" M4.8470001220703125,-19.13800048828125 C6.361999988555908,-19.204999923706055 7.019000053405762,-19.201000213623047 7.254000186920166,-19.802000045776367 C7.47599983215332,-20.3700008392334 7.321000099182129,-21.47599983215332 7.1579999923706055,-23.68899917602539 C6.997000217437744,-25.87299919128418 7.659999847412109,-27.895999908447266 7.697999954223633,-29.731000900268555 C7.730999946594238,-31.301000595092773 7.306000232696533,-32.73400115966797 5.517000198364258,-34.00899887084961 C4.7270002365112305,-34.571998596191406 3.7190001010894775,-34.91299819946289 2.752000093460083,-34.76900100708008 C2.318000078201294,-34.70800018310547 1.3849999904632568,-34.70000076293945 0.42399999499320984,-34.34400177001953 C-0.5450000166893005,-34.02199935913086 -1.4639999866485596,-33.35200119018555 -2.000999927520752,-32.736000061035156 C-2.0179998874664307,-32.731998443603516 -2.0429999828338623,-32.73899841308594 -2.055999994277954,-32.72700119018555 C-3.7279999256134033,-31.094999313354492 -3.3359999656677246,-29.594999313354492 -3.3970000743865967,-30.110000610351562 C-3.240999937057495,-28.832000732421875 -3.808000087738037,-28.243999481201172 -3.805999994277954,-26.968000411987305 C-3.805000066757202,-26.0049991607666 -3.503000020980835,-24.312000274658203 -3.743000030517578,-23.37299919128418 C-3.818000078201294,-23.07900047302246 -3.8970000743865967,-22.674999237060547 -3.5320000648498535,-22.492000579833984 C-3.1670000553131104,-22.30900001525879 -1.7979999780654907,-20.270999908447266 -0.75,-20.371000289916992 C0.05400000140070915,-20.447999954223633 -0.36399999260902405,-22.341999053955078 -0.4779999852180481,-22.496000289916992 C-0.5920000076293945,-22.649999618530273 -0.3630000054836273,-23.545000076293945 -0.3799999952316284,-24.084999084472656 C-0.4090000092983246,-25.016000747680664 -0.6330000162124634,-26.97800064086914 -0.27399998903274536,-28.4950008392334 C-0.03799999877810478,-29.493000030517578 0.45100000500679016,-30.29800033569336 1.4140000343322754,-30.492000579833984 C2.5299999713897705,-30.716999053955078 4.052000045776367,-31.198999404907227 3.9140000343322754,-29.08799934387207 C3.9140000343322754,-29.08799934387207 3.878999948501587,-28.256000518798828 3.878999948501587,-28.2549991607666 C3.8239998817443848,-26.937999725341797 3.9749999046325684,-25.468000411987305 4.059999942779541,-24.0049991607666 C4.151000022888184,-22.43899917602539 4.165999889373779,-20.8799991607666 3.7730000019073486,-19.523000717163086 C3.6449999809265137,-19.086999893188477 4.817999839782715,-19.136999130249023 4.8470001220703125,-19.13800048828125z"></path><path stroke-linecap="butt" stroke-linejoin="miter" fill-opacity="0" stroke-miterlimit="4" stroke="#000000" stroke-opacity="1" stroke-width="0px" d=" M4.8470001220703125,-19.13800048828125 C6.361999988555908,-19.204999923706055 7.019000053405762,-19.201000213623047 7.254000186920166,-19.802000045776367 C7.47599983215332,-20.3700008392334 7.321000099182129,-21.47599983215332 7.1579999923706055,-23.68899917602539 C6.997000217437744,-25.87299919128418 7.659999847412109,-27.895999908447266 7.697999954223633,-29.731000900268555 C7.730999946594238,-31.301000595092773 7.306000232696533,-32.73400115966797 5.517000198364258,-34.00899887084961 C4.7270002365112305,-34.571998596191406 3.7190001010894775,-34.91299819946289 2.752000093460083,-34.76900100708008 C2.318000078201294,-34.70800018310547 1.3849999904632568,-34.70000076293945 0.42399999499320984,-34.34400177001953 C-0.5450000166893005,-34.02199935913086 -1.4639999866485596,-33.35200119018555 -2.000999927520752,-32.736000061035156 C-2.0179998874664307,-32.731998443603516 -2.0429999828338623,-32.73899841308594 -2.055999994277954,-32.72700119018555 C-3.7279999256134033,-31.094999313354492 -3.3359999656677246,-29.594999313354492 -3.3970000743865967,-30.110000610351562 C-3.240999937057495,-28.832000732421875 -3.808000087738037,-28.243999481201172 -3.805999994277954,-26.968000411987305 C-3.805000066757202,-26.0049991607666 -3.503000020980835,-24.312000274658203 -3.743000030517578,-23.37299919128418 C-3.818000078201294,-23.07900047302246 -3.8970000743865967,-22.674999237060547 -3.5320000648498535,-22.492000579833984 C-3.1670000553131104,-22.30900001525879 -1.7979999780654907,-20.270999908447266 -0.75,-20.371000289916992 C0.05400000140070915,-20.447999954223633 -0.36399999260902405,-22.341999053955078 -0.4779999852180481,-22.496000289916992 C-0.5920000076293945,-22.649999618530273 -0.3630000054836273,-23.545000076293945 -0.3799999952316284,-24.084999084472656 C-0.4090000092983246,-25.016000747680664 -0.6330000162124634,-26.97800064086914 -0.27399998903274536,-28.4950008392334 C-0.03799999877810478,-29.493000030517578 0.45100000500679016,-30.29800033569336 1.4140000343322754,-30.492000579833984 C2.5299999713897705,-30.716999053955078 4.052000045776367,-31.198999404907227 3.9140000343322754,-29.08799934387207 C3.9140000343322754,-29.08799934387207 3.878999948501587,-28.256000518798828 3.878999948501587,-28.2549991607666 C3.8239998817443848,-26.937999725341797 3.9749999046325684,-25.468000411987305 4.059999942779541,-24.0049991607666 C4.151000022888184,-22.43899917602539 4.165999889373779,-20.8799991607666 3.7730000019073486,-19.523000717163086 C3.6449999809265137,-19.086999893188477 4.817999839782715,-19.136999130249023 4.8470001220703125,-19.13800048828125z"></path></g></g><g transform="matrix(8.6873197555542,0,0,8.6873197555542,194,377)" opacity="1" style="display: block;"><g opacity="1" transform="matrix(1,0,0,1,0,0)"><path fill="#792F6B" fill-opacity="1" d=" M11.310999870300293,17.14699935913086 C11.310999870300293,17.14699935913086 11.22599983215332,15.942999839782715 11.295999526977539,15.104999542236328 C11.357000350952148,14.267999649047852 11.234999656677246,13.298999786376953 10.758999824523926,13.517000198364258 C10.246000289916992,13.814000129699707 8.093000411987305,13.098999977111816 7.451000213623047,13.027999877929688 C7.298999786376953,13.029000282287598 7.067999839782715,12.95300006866455 6.776000022888184,12.866999626159668 C6.741000175476074,12.857000350952148 6.704999923706055,12.845999717712402 6.669000148773193,12.836000442504883 C6.324999809265137,12.739999771118164 5.916999816894531,12.604999542236328 5.500999927520752,12.413000106811523 C5.074999809265137,12.246999740600586 4.631999969482422,12.057000160217285 4.21999979019165,11.84000015258789 C3.7950000762939453,11.649999618530273 3.390000104904175,11.458999633789062 3.046999931335449,11.288000106811523 C1.6269999742507935,10.67300033569336 0.7080000042915344,9.340999603271484 -0.38999998569488525,8.29699993133545 C-0.7239999771118164,8.008999824523926 -0.753000020980835,7.535999774932861 -0.9909999966621399,7.199999809265137 C-1.0839999914169312,7.056000232696533 -1.4809999465942383,6.718999862670898 -1.8289999961853027,6.294000148773193 C-2.177000045776367,5.869999885559082 -2.565000057220459,5.427000045776367 -2.703000068664551,5.165999889373779 C-3.2079999446868896,4.329999923706055 -3.7339999675750732,3.2799999713897705 -4.136000156402588,2.390000104904175 C-4.50600004196167,1.5720000267028809 -4.770999908447266,0.8899999856948853 -4.822000026702881,0.6340000033378601 C-4.926000118255615,-0.16099999845027924 -5.252999782562256,-0.8330000042915344 -5.442999839782715,-1.6610000133514404 C-5.732999801635742,-2.9800000190734863 -5.8470001220703125,-4.35099983215332 -5.9629998207092285,-5.72599983215332 C-6.040999889373779,-6.64900016784668 -6.119999885559082,-7.573999881744385 -6.25600004196167,-8.487000465393066 C-6.456999778747559,-9.838000297546387 -6.7129998207092285,-11.180999755859375 -7.204999923706055,-12.470999717712402 C-7.261000156402588,-12.619000434875488 -7.321000099182129,-12.812999725341797 -7.382999897003174,-13.043000221252441 C-7.418000221252441,-13.133999824523926 -7.429999828338623,-13.128000259399414 -7.451000213623047,-13.187999725341797 C-7.468999862670898,-13.234000205993652 -7.484000205993652,-13.28600025177002 -7.497000217437744,-13.340999603271484 C-7.49399995803833,-13.388999938964844 -7.416999816894531,-13.41100025177002 -7.372000217437744,-13.440999984741211 C-7.318999767303467,-13.468000411987305 -7.261000156402588,-13.48900032043457 -7.203999996185303,-13.503000259399414 C-7.204999923706055,-13.493000030517578 -6.896999835968018,-13.57699966430664 -6.749000072479248,-13.574999809265137 C-6.4019999504089355,-13.592000007629395 -6.173999786376953,-13.517000198364258 -5.942999839782715,-13.388999938964844 C-5.940000057220459,-13.375 -5.942999839782715,-13.35200023651123 -5.938000202178955,-13.342000007629395 C-5.90500020980835,-13.255000114440918 -5.730999946594238,-13.170999526977539 -5.440999984741211,-12.89799976348877 C-5.1539998054504395,-12.63700008392334 -4.754000186920166,-12.187999725341797 -4.396999835968018,-11.600000381469727 C-3.6640000343322754,-10.4399995803833 -3.1419999599456787,-8.925999641418457 -3.1029999256134033,-8.614999771118164 C-3.0920000076293945,-8.553000450134277 -3.0769999027252197,-8.467000007629395 -3.058000087738037,-8.359999656677246 C-3.0179998874664307,-8.175000190734863 -2.9690001010894775,-7.953000068664551 -2.9130001068115234,-7.695000171661377 C-2.7669999599456787,-7.060999870300293 -2.63700008392334,-6.192999839782715 -2.4539999961853027,-5.178999900817871 C-1.9240000247955322,-5.085000038146973 -1.3329999446868896,-4.980999946594238 -0.7170000076293945,-4.872000217437744 C-0.020999999716877937,-4.747000217437744 1.0149999856948853,-4.572000026702881 2.003000020980835,-4.301000118255615 C2.9739999771118164,-4.033999919891357 3.9000000953674316,-3.6730000972747803 4.4079999923706055,-3.1730000972747803 C4.581999778747559,-3.002000093460083 4.585000038146973,-2.828000068664551 4.59499979019165,-2.8299999237060547 C4.739999771118164,-2.200000047683716 5.4679999351501465,-1.906999945640564 5.736000061035156,-1.2549999952316284 C6.359000205993652,0.3569999933242798 7.2820000648498535,1.715000033378601 7.107999801635742,3.7320001125335693 C7.063000202178955,4.320000171661377 6.965000152587891,5.09499979019165 7.4679999351501465,5.433000087738037 C7.7210001945495605,5.611000061035156 8.305000305175781,5.690999984741211 9.010000228881836,5.747000217437744 C9.71500015258789,5.800000190734863 10.562999725341797,6.072000026702881 11.29800033569336,5.940000057220459 C11.774999618530273,5.855999946594238 11.965999603271484,5.468999862670898 12.008000373840332,5.019999980926514 C12.067999839782715,4.385000228881836 11.831999778747559,3.625999927520752 11.696000099182129,3.428999900817871 C11.524999618530273,3.0789999961853027 11.508000373840332,0.875 11.036999702453613,-0.43299999833106995 C10.423999786376953,-2.302000045776367 9.343999862670898,-3.760999917984009 8.045000076293945,-5.059000015258789 C6.892000198364258,-6.211999893188477 5.565000057220459,-7.238999843597412 4.241000175476074,-8.312000274658203 C3.6440000534057617,-8.795999526977539 2.88700008392334,-9.060999870300293 2.13100004196167,-9.319999694824219 C2.13100004196167,-9.319999694824219 1.847000002861023,-9.413000106811523 1.847000002861023,-9.413000106811523 C1.7300000190734863,-9.451000213623047 1.7999999523162842,-9.42199993133545 1.7669999599456787,-9.428999900817871 C1.7669999599456787,-9.428999900817871 1.7089999914169312,-9.416999816894531 1.7089999914169312,-9.416999816894531 C1.7089999914169312,-9.416999816894531 1.5499999523162842,-9.364999771118164 1.524999976158142,-9.357999801635742 C1.4859999418258667,-9.355999946594238 1.4459999799728394,-9.373000144958496 1.406000018119812,-9.402000427246094 C1.406000018119812,-9.402000427246094 1.3480000495910645,-9.45199966430664 1.3480000495910645,-9.45199966430664 C1.3480000495910645,-9.45199966430664 1.1649999618530273,-9.942999839782715 1.1649999618530273,-9.942999839782715 C0.8989999890327454,-10.63599967956543 0.6340000033378601,-11.324999809265137 0.35199999809265137,-12.059000015258789 C-0.22200000286102295,-13.4399995803833 -0.8989999890327454,-14.914999961853027 -2.2330000400543213,-16.29800033569336 C-2.5929999351501465,-16.663999557495117 -3.0190000534057617,-17.018999099731445 -3.50600004196167,-17.326000213623047 C-3.921999931335449,-17.58799934387207 -4.381999969482422,-17.81399917602539 -4.883999824523926,-17.97800064086914 C-5.968999862670898,-18.343000411987305 -7.164000034332275,-18.356000900268555 -8.17300033569336,-18.14699935913086 C-8.42199993133545,-18.09000015258789 -8.913999557495117,-17.981000900268555 -9.288999557495117,-17.77400016784668 C-9.687000274658203,-17.57900047302246 -10.130999565124512,-17.406999588012695 -10.496000289916992,-17.1299991607666 C-10.878000259399414,-16.871999740600586 -11.263999938964844,-16.618000030517578 -11.630999565124512,-16.336000442504883 C-11.630999565124512,-16.336000442504883 -12.177000045776367,-15.925000190734863 -12.177000045776367,-15.925000190734863 C-12.177000045776367,-15.925000190734863 -12.442999839782715,-15.722000122070312 -12.442999839782715,-15.722000122070312 C-12.451000213623047,-15.619000434875488 -12.409000396728516,-15.496000289916992 -12.395000457763672,-15.385000228881836 C-12.3100004196167,-14.9399995803833 -12.225000381469727,-14.501999855041504 -12.145000457763672,-14.081999778747559 C-12.045999526977539,-13.663000106811523 -11.92199993133545,-13.258999824523926 -11.824000358581543,-12.897000312805176 C-11.77299976348877,-12.717000007629395 -11.725000381469727,-12.543999671936035 -11.678000450134277,-12.378999710083008 C-11.626999855041504,-12.192000389099121 -11.609999656677246,-12.178999900817871 -11.57699966430664,-12.07699966430664 C-11.520999908447266,-11.916999816894531 -11.470999717712402,-11.777000427246094 -11.430999755859375,-11.663000106811523 C-10.869999885559082,-10.008000373840332 -10.944999694824219,-8.23900032043457 -10.800999641418457,-6.50600004196167 C-10.656000137329102,-4.763999938964844 -10.121999740600586,-3.0969998836517334 -9.805000305175781,-1.3880000114440918 C-9.805000305175781,-1.3880000114440918 -9.638999938964844,-0.46399998664855957 -9.638999938964844,-0.46399998664855957 C-9.576000213623047,-0.14800000190734863 -9.477999687194824,0.19900000095367432 -9.39799976348877,0.5289999842643738 C-9.22599983215332,1.1950000524520874 -9.071000099182129,1.8739999532699585 -8.831000328063965,2.503000020980835 C-8.465999603271484,3.6410000324249268 -7.936999797821045,4.7270002365112305 -7.373000144958496,5.783999919891357 C-7.373000144958496,5.783999919891357 -6.355000019073486,7.415999889373779 -6.355000019073486,7.415999889373779 C-6.0289998054504395,7.848999977111816 -5.573999881744385,8.517000198364258 -5.11299991607666,9.173999786376953 C-4.61299991607666,9.807000160217285 -4.197000026702881,10.491999626159668 -3.9230000972747803,10.949000358581543 C-3.494999885559082,11.732999801635742 -3.128000020980835,12.204000473022461 -2.6610000133514404,12.574000358581543 C-2.203000068664551,12.954000473022461 -1.7389999628067017,13.321999549865723 -1.0219999551773071,13.859999656677246 C-0.6140000224113464,14.1899995803833 -0.15000000596046448,14.576000213623047 0.375,14.92199993133545 C0.8820000290870667,15.293000221252441 1.4210000038146973,15.652999877929688 1.965000033378601,15.942000389099121 C2.2339999675750732,16.090999603271484 2.49399995803833,16.236000061035156 2.740000009536743,16.37299919128418 C2.999000072479248,16.483999252319336 3.243000030517578,16.586999893188477 3.4660000801086426,16.68199920654297 C3.9170000553131104,16.857999801635742 4.2829999923706055,16.992000579833984 4.526000022888184,17.01099967956543 C5.017000198364258,17.040000915527344 6.159999847412109,17.429000854492188 7.367000102996826,17.676000595092773 C8.565999984741211,17.94099998474121 9.809000015258789,18.12299919128418 10.354000091552734,18.187999725341797 C11.454999923706055,18.356000900268555 11.310999870300293,17.14699935913086 11.310999870300293,17.14699935913086z"></path><path stroke-linecap="butt" stroke-linejoin="miter" fill-opacity="0" stroke-miterlimit="4" stroke="#000000" stroke-opacity="1" stroke-width="0px" d=" M11.310999870300293,17.14699935913086 C11.310999870300293,17.14699935913086 11.22599983215332,15.942999839782715 11.295999526977539,15.104999542236328 C11.357000350952148,14.267999649047852 11.234999656677246,13.298999786376953 10.758999824523926,13.517000198364258 C10.246000289916992,13.814000129699707 8.093000411987305,13.098999977111816 7.451000213623047,13.027999877929688 C7.298999786376953,13.029000282287598 7.067999839782715,12.95300006866455 6.776000022888184,12.866999626159668 C6.741000175476074,12.857000350952148 6.704999923706055,12.845999717712402 6.669000148773193,12.836000442504883 C6.324999809265137,12.739999771118164 5.916999816894531,12.604999542236328 5.500999927520752,12.413000106811523 C5.074999809265137,12.246999740600586 4.631999969482422,12.057000160217285 4.21999979019165,11.84000015258789 C3.7950000762939453,11.649999618530273 3.390000104904175,11.458999633789062 3.046999931335449,11.288000106811523 C1.6269999742507935,10.67300033569336 0.7080000042915344,9.340999603271484 -0.38999998569488525,8.29699993133545 C-0.7239999771118164,8.008999824523926 -0.753000020980835,7.535999774932861 -0.9909999966621399,7.199999809265137 C-1.0839999914169312,7.056000232696533 -1.4809999465942383,6.718999862670898 -1.8289999961853027,6.294000148773193 C-2.177000045776367,5.869999885559082 -2.565000057220459,5.427000045776367 -2.703000068664551,5.165999889373779 C-3.2079999446868896,4.329999923706055 -3.7339999675750732,3.2799999713897705 -4.136000156402588,2.390000104904175 C-4.50600004196167,1.5720000267028809 -4.770999908447266,0.8899999856948853 -4.822000026702881,0.6340000033378601 C-4.926000118255615,-0.16099999845027924 -5.252999782562256,-0.8330000042915344 -5.442999839782715,-1.6610000133514404 C-5.732999801635742,-2.9800000190734863 -5.8470001220703125,-4.35099983215332 -5.9629998207092285,-5.72599983215332 C-6.040999889373779,-6.64900016784668 -6.119999885559082,-7.573999881744385 -6.25600004196167,-8.487000465393066 C-6.456999778747559,-9.838000297546387 -6.7129998207092285,-11.180999755859375 -7.204999923706055,-12.470999717712402 C-7.261000156402588,-12.619000434875488 -7.321000099182129,-12.812999725341797 -7.382999897003174,-13.043000221252441 C-7.418000221252441,-13.133999824523926 -7.429999828338623,-13.128000259399414 -7.451000213623047,-13.187999725341797 C-7.468999862670898,-13.234000205993652 -7.484000205993652,-13.28600025177002 -7.497000217437744,-13.340999603271484 C-7.49399995803833,-13.388999938964844 -7.416999816894531,-13.41100025177002 -7.372000217437744,-13.440999984741211 C-7.318999767303467,-13.468000411987305 -7.261000156402588,-13.48900032043457 -7.203999996185303,-13.503000259399414 C-7.204999923706055,-13.493000030517578 -6.896999835968018,-13.57699966430664 -6.749000072479248,-13.574999809265137 C-6.4019999504089355,-13.592000007629395 -6.173999786376953,-13.517000198364258 -5.942999839782715,-13.388999938964844 C-5.940000057220459,-13.375 -5.942999839782715,-13.35200023651123 -5.938000202178955,-13.342000007629395 C-5.90500020980835,-13.255000114440918 -5.730999946594238,-13.170999526977539 -5.440999984741211,-12.89799976348877 C-5.1539998054504395,-12.63700008392334 -4.754000186920166,-12.187999725341797 -4.396999835968018,-11.600000381469727 C-3.6640000343322754,-10.4399995803833 -3.1419999599456787,-8.925999641418457 -3.1029999256134033,-8.614999771118164 C-3.0920000076293945,-8.553000450134277 -3.0769999027252197,-8.467000007629395 -3.058000087738037,-8.359999656677246 C-3.0179998874664307,-8.175000190734863 -2.9690001010894775,-7.953000068664551 -2.9130001068115234,-7.695000171661377 C-2.7669999599456787,-7.060999870300293 -2.63700008392334,-6.192999839782715 -2.4539999961853027,-5.178999900817871 C-1.9240000247955322,-5.085000038146973 -1.3329999446868896,-4.980999946594238 -0.7170000076293945,-4.872000217437744 C-0.020999999716877937,-4.747000217437744 1.0149999856948853,-4.572000026702881 2.003000020980835,-4.301000118255615 C2.9739999771118164,-4.033999919891357 3.9000000953674316,-3.6730000972747803 4.4079999923706055,-3.1730000972747803 C4.581999778747559,-3.002000093460083 4.585000038146973,-2.828000068664551 4.59499979019165,-2.8299999237060547 C4.739999771118164,-2.200000047683716 5.4679999351501465,-1.906999945640564 5.736000061035156,-1.2549999952316284 C6.359000205993652,0.3569999933242798 7.2820000648498535,1.715000033378601 7.107999801635742,3.7320001125335693 C7.063000202178955,4.320000171661377 6.965000152587891,5.09499979019165 7.4679999351501465,5.433000087738037 C7.7210001945495605,5.611000061035156 8.305000305175781,5.690999984741211 9.010000228881836,5.747000217437744 C9.71500015258789,5.800000190734863 10.562999725341797,6.072000026702881 11.29800033569336,5.940000057220459 C11.774999618530273,5.855999946594238 11.965999603271484,5.468999862670898 12.008000373840332,5.019999980926514 C12.067999839782715,4.385000228881836 11.831999778747559,3.625999927520752 11.696000099182129,3.428999900817871 C11.524999618530273,3.0789999961853027 11.508000373840332,0.875 11.036999702453613,-0.43299999833106995 C10.423999786376953,-2.302000045776367 9.343999862670898,-3.760999917984009 8.045000076293945,-5.059000015258789 C6.892000198364258,-6.211999893188477 5.565000057220459,-7.238999843597412 4.241000175476074,-8.312000274658203 C3.6440000534057617,-8.795999526977539 2.88700008392334,-9.060999870300293 2.13100004196167,-9.319999694824219 C2.13100004196167,-9.319999694824219 1.847000002861023,-9.413000106811523 1.847000002861023,-9.413000106811523 C1.7300000190734863,-9.451000213623047 1.7999999523162842,-9.42199993133545 1.7669999599456787,-9.428999900817871 C1.7669999599456787,-9.428999900817871 1.7089999914169312,-9.416999816894531 1.7089999914169312,-9.416999816894531 C1.7089999914169312,-9.416999816894531 1.5499999523162842,-9.364999771118164 1.524999976158142,-9.357999801635742 C1.4859999418258667,-9.355999946594238 1.4459999799728394,-9.373000144958496 1.406000018119812,-9.402000427246094 C1.406000018119812,-9.402000427246094 1.3480000495910645,-9.45199966430664 1.3480000495910645,-9.45199966430664 C1.3480000495910645,-9.45199966430664 1.1649999618530273,-9.942999839782715 1.1649999618530273,-9.942999839782715 C0.8989999890327454,-10.63599967956543 0.6340000033378601,-11.324999809265137 0.35199999809265137,-12.059000015258789 C-0.22200000286102295,-13.4399995803833 -0.8989999890327454,-14.914999961853027 -2.2330000400543213,-16.29800033569336 C-2.5929999351501465,-16.663999557495117 -3.0190000534057617,-17.018999099731445 -3.50600004196167,-17.326000213623047 C-3.921999931335449,-17.58799934387207 -4.381999969482422,-17.81399917602539 -4.883999824523926,-17.97800064086914 C-5.968999862670898,-18.343000411987305 -7.164000034332275,-18.356000900268555 -8.17300033569336,-18.14699935913086 C-8.42199993133545,-18.09000015258789 -8.913999557495117,-17.981000900268555 -9.288999557495117,-17.77400016784668 C-9.687000274658203,-17.57900047302246 -10.130999565124512,-17.406999588012695 -10.496000289916992,-17.1299991607666 C-10.878000259399414,-16.871999740600586 -11.263999938964844,-16.618000030517578 -11.630999565124512,-16.336000442504883 C-11.630999565124512,-16.336000442504883 -12.177000045776367,-15.925000190734863 -12.177000045776367,-15.925000190734863 C-12.177000045776367,-15.925000190734863 -12.442999839782715,-15.722000122070312 -12.442999839782715,-15.722000122070312 C-12.451000213623047,-15.619000434875488 -12.409000396728516,-15.496000289916992 -12.395000457763672,-15.385000228881836 C-12.3100004196167,-14.9399995803833 -12.225000381469727,-14.501999855041504 -12.145000457763672,-14.081999778747559 C-12.045999526977539,-13.663000106811523 -11.92199993133545,-13.258999824523926 -11.824000358581543,-12.897000312805176 C-11.77299976348877,-12.717000007629395 -11.725000381469727,-12.543999671936035 -11.678000450134277,-12.378999710083008 C-11.626999855041504,-12.192000389099121 -11.609999656677246,-12.178999900817871 -11.57699966430664,-12.07699966430664 C-11.520999908447266,-11.916999816894531 -11.470999717712402,-11.777000427246094 -11.430999755859375,-11.663000106811523 C-10.869999885559082,-10.008000373840332 -10.944999694824219,-8.23900032043457 -10.800999641418457,-6.50600004196167 C-10.656000137329102,-4.763999938964844 -10.121999740600586,-3.0969998836517334 -9.805000305175781,-1.3880000114440918 C-9.805000305175781,-1.3880000114440918 -9.638999938964844,-0.46399998664855957 -9.638999938964844,-0.46399998664855957 C-9.576000213623047,-0.14800000190734863 -9.477999687194824,0.19900000095367432 -9.39799976348877,0.5289999842643738 C-9.22599983215332,1.1950000524520874 -9.071000099182129,1.8739999532699585 -8.831000328063965,2.503000020980835 C-8.465999603271484,3.6410000324249268 -7.936999797821045,4.7270002365112305 -7.373000144958496,5.783999919891357 C-7.373000144958496,5.783999919891357 -6.355000019073486,7.415999889373779 -6.355000019073486,7.415999889373779 C-6.0289998054504395,7.848999977111816 -5.573999881744385,8.517000198364258 -5.11299991607666,9.173999786376953 C-4.61299991607666,9.807000160217285 -4.197000026702881,10.491999626159668 -3.9230000972747803,10.949000358581543 C-3.494999885559082,11.732999801635742 -3.128000020980835,12.204000473022461 -2.6610000133514404,12.574000358581543 C-2.203000068664551,12.954000473022461 -1.7389999628067017,13.321999549865723 -1.0219999551773071,13.859999656677246 C-0.6140000224113464,14.1899995803833 -0.15000000596046448,14.576000213623047 0.375,14.92199993133545 C0.8820000290870667,15.293000221252441 1.4210000038146973,15.652999877929688 1.965000033378601,15.942000389099121 C2.2339999675750732,16.090999603271484 2.49399995803833,16.236000061035156 2.740000009536743,16.37299919128418 C2.999000072479248,16.483999252319336 3.243000030517578,16.586999893188477 3.4660000801086426,16.68199920654297 C3.9170000553131104,16.857999801635742 4.2829999923706055,16.992000579833984 4.526000022888184,17.01099967956543 C5.017000198364258,17.040000915527344 6.159999847412109,17.429000854492188 7.367000102996826,17.676000595092773 C8.565999984741211,17.94099998474121 9.809000015258789,18.12299919128418 10.354000091552734,18.187999725341797 C11.454999923706055,18.356000900268555 11.310999870300293,17.14699935913086 11.310999870300293,17.14699935913086z"></path></g></g><g transform="matrix(8.6873197555542,0,0,8.6873197555542,207,386)" opacity="1" style="display: block;"><g opacity="1" transform="matrix(1,0,0,1,0,0)"><path fill="#792F6B" fill-opacity="1" d=" M22.54800033569336,-7.353000164031982 C22.448999404907227,-8.61400032043457 21.868000030517578,-9.824000358581543 21.131999969482422,-10.829000473022461 C20.85700035095215,-11.208000183105469 20.549999237060547,-11.586000442504883 20.163000106811523,-11.847999572753906 C20.033000946044922,-11.937999725341797 19.68600082397461,-12.241000175476074 19.20400047302246,-12.53499984741211 C18.725000381469727,-12.831000328063965 18.104000091552734,-13.10200023651123 17.541000366210938,-13.22599983215332 C17.365999221801758,-13.269000053405762 17.020000457763672,-13.36299991607666 16.67799949645996,-13.423999786376953 C16.33300018310547,-13.484000205993652 16.003000259399414,-13.503999710083008 15.895999908447266,-13.496999740600586 C15.630999565124512,-13.482000350952148 15.402999877929688,-13.343000411987305 15.135000228881836,-13.3100004196167 C14.159000396728516,-13.210000038146973 13.322999954223633,-12.64799976348877 12.513999938964844,-12.17199993133545 C12.196999549865723,-11.989999771118164 11.83899974822998,-11.687999725341797 11.527999877929688,-11.347999572753906 C11.267000198364258,-11.605999946594238 11.027999877929688,-11.848999977111816 10.77299976348877,-12.083000183105469 C10.416000366210938,-12.407999992370605 10.020000457763672,-12.718000411987305 9.496999740600586,-12.92199993133545 C9.10200023651123,-13.074000358581543 8.706999778747559,-13.401000022888184 8.255000114440918,-13.362000465393066 C8.24899959564209,-13.36299991607666 8.159000396728516,-13.35200023651123 7.979000091552734,-13.366999626159668 C7.798999786376953,-13.383000373840332 7.5279998779296875,-13.416000366210938 7.14300012588501,-13.465999603271484 C6.751999855041504,-13.527000427246094 6.080999851226807,-13.487000465393066 5.517000198364258,-13.331999778747559 C4.947999954223633,-13.182999610900879 4.4710001945495605,-12.954000473022461 4.323999881744385,-12.854000091552734 C4.169000148773193,-12.770999908447266 3.390000104904175,-12.401000022888184 2.736999988555908,-11.843999862670898 C2.0759999752044678,-11.29699993133545 1.5789999961853027,-10.571000099182129 1.5540000200271606,-10.416000366210938 C1.5509999990463257,-10.404000282287598 1.5540000200271606,-10.390999794006348 1.5529999732971191,-10.378999710083008 C1.2760000228881836,-9.913999557495117 1.031000018119812,-9.251999855041504 0.8859999775886536,-8.607999801635742 C1.1920000314712524,-8.604000091552734 1.49399995803833,-8.574000358581543 1.7890000343322754,-8.517000198364258 C2.1649999618530273,-8.444999694824219 2.5290000438690186,-8.329999923706055 2.871999979019165,-8.17300033569336 C2.9089999198913574,-8.293000221252441 2.947000026702881,-8.413000106811523 2.9709999561309814,-8.513999938964844 C3.0810000896453857,-8.95300006866455 3.250999927520752,-9.376999855041504 3.510999917984009,-9.76200008392334 C3.7730000019073486,-10.145999908447266 4.111999988555908,-10.494999885559082 4.493000030517578,-10.767000198364258 C4.915999889373779,-11.059000015258789 5.361999988555908,-11.213000297546387 5.855999946594238,-11.277999877929688 C6.232999801635742,-11.321999549865723 6.64900016784668,-11.371000289916992 7.0279998779296875,-11.414999961853027 C7.123000144958496,-11.425000190734863 7.21999979019165,-11.437000274658203 7.315000057220459,-11.4350004196167 C7.546000003814697,-11.38700008392334 7.751999855041504,-11.246999740600586 7.9670000076293945,-11.187999725341797 C8.437000274658203,-11.071999549865723 8.97700023651123,-10.946999549865723 9.37600040435791,-10.642000198364258 C9.652000427246094,-10.442000389099121 10.093000411987305,-10.107000350952148 10.225000381469727,-9.92300033569336 C10.248000144958496,-9.892000198364258 10.26099967956543,-9.864999771118164 10.262999534606934,-9.843999862670898 C10.277999877929688,-9.78499984741211 10.314000129699707,-9.645999908447266 10.383999824523926,-9.519000053405762 C10.211000442504883,-9.04699993133545 9.994000434875488,-8.269000053405762 9.840999603271484,-8.105999946594238 C9.743000030517578,-8.001999855041504 9.788999557495117,-7.895999908447266 9.904000282287598,-7.802999973297119 C10.015000343322754,-7.714000225067139 10.189000129699707,-7.636000156402588 10.359999656677246,-7.585999965667725 C10.710000038146973,-7.482999801635742 11.177000045776367,-7.25600004196167 11.177000045776367,-7.25600004196167 C11.177000045776367,-7.25600004196167 11.637999534606934,-7.013000011444092 11.756999969482422,-7.456999778747559 C11.817000389099121,-7.678999900817871 11.982999801635742,-8.173999786376953 12.164999961853027,-8.656000137329102 C12.211999893188477,-8.776000022888184 12.256999969482422,-8.895000457763672 12.302000045776367,-9.010000228881836 C12.324999809265137,-9.067000389099121 12.348999977111816,-9.121999740600586 12.371000289916992,-9.175999641418457 C12.388999938964844,-9.218999862670898 12.380999565124512,-9.196999549865723 12.402000427246094,-9.229999542236328 C12.491999626159668,-9.380000114440918 12.583999633789062,-9.496999740600586 12.651000022888184,-9.54699993133545 C12.779000282287598,-9.654000282287598 12.989999771118164,-9.946999549865723 13.277999877929688,-10.243000030517578 C13.560999870300293,-10.543000221252441 13.934000015258789,-10.829999923706055 14.253000259399414,-10.994000434875488 C14.812999725341797,-11.258999824523926 15.029000282287598,-11.175999641418457 15.583999633789062,-11.461000442504883 C15.755000114440918,-11.538000106811523 16.04599952697754,-11.585000038146973 16.32900047302246,-11.569999694824219 C16.570999145507812,-11.565999984741211 16.81399917602539,-11.51099967956543 16.993000030517578,-11.461000442504883 C17.02199935913086,-11.45300006866455 17.049999237060547,-11.444999694824219 17.075000762939453,-11.437000274658203 C17.291000366210938,-11.36299991607666 17.503999710083008,-11.284000396728516 17.70800018310547,-11.182000160217285 C18.093000411987305,-10.996999740600586 18.45400047302246,-10.767999649047852 18.791000366210938,-10.515000343322754 C19.17099952697754,-10.22599983215332 19.513999938964844,-9.888999938964844 19.777999877929688,-9.506999969482422 C20.136999130249023,-8.965999603271484 20.263999938964844,-8.317000389099121 20.42799949645996,-7.659999847412109 C20.493999481201172,-7.4029998779296875 20.55299949645996,-7.129000186920166 20.586999893188477,-6.848999977111816 C20.638999938964844,-6.418000221252441 20.628000259399414,-5.9710001945495605 20.481000900268555,-5.544000148773193 C20.413999557495117,-5.349999904632568 20.26300048828125,-4.99399995803833 20.079999923706055,-4.625999927520752 C19.909000396728516,-4.254000186920166 19.68600082397461,-3.872999906539917 19.566999435424805,-3.561000108718872 C19.298999786376953,-2.8980000019073486 18.93199920654297,-2.236999988555908 18.499000549316406,-1.6200000047683716 C18.364999771118164,-1.4290000200271606 18.224000930786133,-1.2430000305175781 18.07900047302246,-1.062000036239624 C17.947999954223633,-0.8999999761581421 17.812999725341797,-0.7419999837875366 17.673999786376953,-0.5899999737739563 C17.23900032043457,-0.11100000143051147 16.783000946044922,0.2460000067949295 16.242000579833984,0.6119999885559082 C15.819000244140625,0.8989999890327454 15.371000289916992,1.2339999675750732 14.986000061035156,1.5820000171661377 C14.909000396728516,1.652999997138977 14.829000473022461,1.722000002861023 14.74899959564209,1.7899999618530273 C14.732000350952148,1.8049999475479126 14.71399974822998,1.819000005722046 14.696999549865723,1.8339999914169312 C14.425999641418457,1.9910000562667847 14.111000061035156,2.0850000381469727 13.850000381469727,2.257999897003174 C13.281999588012695,2.635999917984009 12.73900032043457,3.1389999389648438 12.154999732971191,3.4709999561309814 C11.895999908447266,3.619999885559082 11.5649995803833,3.8519999980926514 11.288000106811523,4.035999774932861 C11.128000259399414,3.9539999961853027 10.947999954223633,3.8550000190734863 10.772000312805176,3.74399995803833 C10.402999877929688,3.5160000324249268 10.057999610900879,3.247999906539917 9.95300006866455,3.1089999675750732 C9.864999771118164,2.994999885559082 9.635000228881836,2.812000036239624 9.354000091552734,2.6019999980926514 C8.960000038146973,2.308000087738037 8.463000297546387,1.9589999914169312 8.105999946594238,1.6670000553131104 C8.100000381469727,1.6619999408721924 8.095999717712402,1.6579999923706055 8.09000015258789,1.652999997138977 C8.208999633789062,2.11299991607666 8.276000022888184,2.569999933242798 8.284000396728516,3.0209999084472656 C8.291999816894531,3.437999963760376 8.25100040435791,3.8489999771118164 8.156999588012695,4.245999813079834 C8.640000343322754,4.633999824523926 9.163999557495117,4.998000144958496 9.333999633789062,5.146999835968018 C9.366000175476074,5.179999828338623 9.413000106811523,5.216000080108643 9.470000267028809,5.255000114440918 C9.666000366210938,5.388999938964844 9.98799991607666,5.556000232696533 10.27400016784668,5.709000110626221 C10.432999610900879,6.046000003814697 10.616000175476074,6.324999809265137 10.777999877929688,6.4079999923706055 C10.786999702453613,6.413000106811523 10.795999526977539,6.416999816894531 10.805000305175781,6.420000076293945 C11.083999633789062,6.526000022888184 11.449999809265137,6.27400016784668 11.701000213623047,6.078999996185303 C12.550999641418457,5.418000221252441 13.354999542236328,5.211999893188477 14.222000122070312,4.5879998207092285 C14.553999900817871,4.3480000495910645 15.024999618530273,4.258999824523926 15.284000396728516,3.9200000762939453 C15.288000106811523,3.9149999618530273 15.33899974822998,3.8469998836517334 15.472000122070312,3.7360000610351562 C15.604999542236328,3.625 15.817000389099121,3.4679999351501465 16.14299964904785,3.2790000438690186 C16.472000122070312,3.0910000801086426 16.985000610351562,2.7119998931884766 17.416000366210938,2.3369998931884766 C17.849000930786133,1.9600000381469727 18.219999313354492,1.590000033378601 18.332000732421875,1.4500000476837158 C18.447999954223633,1.315999984741211 19.084999084472656,0.7369999885559082 19.658000946044922,0.08900000154972076 C20.232999801635742,-0.5559999942779541 20.72800064086914,-1.2730000019073486 20.76300048828125,-1.4240000247955322 C20.766000747680664,-1.4359999895095825 20.763999938964844,-1.4490000009536743 20.764999389648438,-1.4609999656677246 C21.086999893188477,-1.9850000143051147 21.472000122070312,-2.740000009536743 21.7450008392334,-3.4670000076293945 C22.02400016784668,-4.192999839782715 22.197999954223633,-4.873000144958496 22.30299949645996,-5.185999870300293 C22.54199981689453,-5.866000175476074 22.61400032043457,-6.610000133514404 22.54800033569336,-7.353000164031982z"></path><path stroke-linecap="butt" stroke-linejoin="miter" fill-opacity="0" stroke-miterlimit="4" stroke="#000000" stroke-opacity="1" stroke-width="0px" d=" M22.54800033569336,-7.353000164031982 C22.448999404907227,-8.61400032043457 21.868000030517578,-9.824000358581543 21.131999969482422,-10.829000473022461 C20.85700035095215,-11.208000183105469 20.549999237060547,-11.586000442504883 20.163000106811523,-11.847999572753906 C20.033000946044922,-11.937999725341797 19.68600082397461,-12.241000175476074 19.20400047302246,-12.53499984741211 C18.725000381469727,-12.831000328063965 18.104000091552734,-13.10200023651123 17.541000366210938,-13.22599983215332 C17.365999221801758,-13.269000053405762 17.020000457763672,-13.36299991607666 16.67799949645996,-13.423999786376953 C16.33300018310547,-13.484000205993652 16.003000259399414,-13.503999710083008 15.895999908447266,-13.496999740600586 C15.630999565124512,-13.482000350952148 15.402999877929688,-13.343000411987305 15.135000228881836,-13.3100004196167 C14.159000396728516,-13.210000038146973 13.322999954223633,-12.64799976348877 12.513999938964844,-12.17199993133545 C12.196999549865723,-11.989999771118164 11.83899974822998,-11.687999725341797 11.527999877929688,-11.347999572753906 C11.267000198364258,-11.605999946594238 11.027999877929688,-11.848999977111816 10.77299976348877,-12.083000183105469 C10.416000366210938,-12.407999992370605 10.020000457763672,-12.718000411987305 9.496999740600586,-12.92199993133545 C9.10200023651123,-13.074000358581543 8.706999778747559,-13.401000022888184 8.255000114440918,-13.362000465393066 C8.24899959564209,-13.36299991607666 8.159000396728516,-13.35200023651123 7.979000091552734,-13.366999626159668 C7.798999786376953,-13.383000373840332 7.5279998779296875,-13.416000366210938 7.14300012588501,-13.465999603271484 C6.751999855041504,-13.527000427246094 6.080999851226807,-13.487000465393066 5.517000198364258,-13.331999778747559 C4.947999954223633,-13.182999610900879 4.4710001945495605,-12.954000473022461 4.323999881744385,-12.854000091552734 C4.169000148773193,-12.770999908447266 3.390000104904175,-12.401000022888184 2.736999988555908,-11.843999862670898 C2.0759999752044678,-11.29699993133545 1.5789999961853027,-10.571000099182129 1.5540000200271606,-10.416000366210938 C1.5509999990463257,-10.404000282287598 1.5540000200271606,-10.390999794006348 1.5529999732971191,-10.378999710083008 C1.2760000228881836,-9.913999557495117 1.031000018119812,-9.251999855041504 0.8859999775886536,-8.607999801635742 C1.1920000314712524,-8.604000091552734 1.49399995803833,-8.574000358581543 1.7890000343322754,-8.517000198364258 C2.1649999618530273,-8.444999694824219 2.5290000438690186,-8.329999923706055 2.871999979019165,-8.17300033569336 C2.9089999198913574,-8.293000221252441 2.947000026702881,-8.413000106811523 2.9709999561309814,-8.513999938964844 C3.0810000896453857,-8.95300006866455 3.250999927520752,-9.376999855041504 3.510999917984009,-9.76200008392334 C3.7730000019073486,-10.145999908447266 4.111999988555908,-10.494999885559082 4.493000030517578,-10.767000198364258 C4.915999889373779,-11.059000015258789 5.361999988555908,-11.213000297546387 5.855999946594238,-11.277999877929688 C6.232999801635742,-11.321999549865723 6.64900016784668,-11.371000289916992 7.0279998779296875,-11.414999961853027 C7.123000144958496,-11.425000190734863 7.21999979019165,-11.437000274658203 7.315000057220459,-11.4350004196167 C7.546000003814697,-11.38700008392334 7.751999855041504,-11.246999740600586 7.9670000076293945,-11.187999725341797 C8.437000274658203,-11.071999549865723 8.97700023651123,-10.946999549865723 9.37600040435791,-10.642000198364258 C9.652000427246094,-10.442000389099121 10.093000411987305,-10.107000350952148 10.225000381469727,-9.92300033569336 C10.248000144958496,-9.892000198364258 10.26099967956543,-9.864999771118164 10.262999534606934,-9.843999862670898 C10.277999877929688,-9.78499984741211 10.314000129699707,-9.645999908447266 10.383999824523926,-9.519000053405762 C10.211000442504883,-9.04699993133545 9.994000434875488,-8.269000053405762 9.840999603271484,-8.105999946594238 C9.743000030517578,-8.001999855041504 9.788999557495117,-7.895999908447266 9.904000282287598,-7.802999973297119 C10.015000343322754,-7.714000225067139 10.189000129699707,-7.636000156402588 10.359999656677246,-7.585999965667725 C10.710000038146973,-7.482999801635742 11.177000045776367,-7.25600004196167 11.177000045776367,-7.25600004196167 C11.177000045776367,-7.25600004196167 11.637999534606934,-7.013000011444092 11.756999969482422,-7.456999778747559 C11.817000389099121,-7.678999900817871 11.982999801635742,-8.173999786376953 12.164999961853027,-8.656000137329102 C12.211999893188477,-8.776000022888184 12.256999969482422,-8.895000457763672 12.302000045776367,-9.010000228881836 C12.324999809265137,-9.067000389099121 12.348999977111816,-9.121999740600586 12.371000289916992,-9.175999641418457 C12.388999938964844,-9.218999862670898 12.380999565124512,-9.196999549865723 12.402000427246094,-9.229999542236328 C12.491999626159668,-9.380000114440918 12.583999633789062,-9.496999740600586 12.651000022888184,-9.54699993133545 C12.779000282287598,-9.654000282287598 12.989999771118164,-9.946999549865723 13.277999877929688,-10.243000030517578 C13.560999870300293,-10.543000221252441 13.934000015258789,-10.829999923706055 14.253000259399414,-10.994000434875488 C14.812999725341797,-11.258999824523926 15.029000282287598,-11.175999641418457 15.583999633789062,-11.461000442504883 C15.755000114440918,-11.538000106811523 16.04599952697754,-11.585000038146973 16.32900047302246,-11.569999694824219 C16.570999145507812,-11.565999984741211 16.81399917602539,-11.51099967956543 16.993000030517578,-11.461000442504883 C17.02199935913086,-11.45300006866455 17.049999237060547,-11.444999694824219 17.075000762939453,-11.437000274658203 C17.291000366210938,-11.36299991607666 17.503999710083008,-11.284000396728516 17.70800018310547,-11.182000160217285 C18.093000411987305,-10.996999740600586 18.45400047302246,-10.767999649047852 18.791000366210938,-10.515000343322754 C19.17099952697754,-10.22599983215332 19.513999938964844,-9.888999938964844 19.777999877929688,-9.506999969482422 C20.136999130249023,-8.965999603271484 20.263999938964844,-8.317000389099121 20.42799949645996,-7.659999847412109 C20.493999481201172,-7.4029998779296875 20.55299949645996,-7.129000186920166 20.586999893188477,-6.848999977111816 C20.638999938964844,-6.418000221252441 20.628000259399414,-5.9710001945495605 20.481000900268555,-5.544000148773193 C20.413999557495117,-5.349999904632568 20.26300048828125,-4.99399995803833 20.079999923706055,-4.625999927520752 C19.909000396728516,-4.254000186920166 19.68600082397461,-3.872999906539917 19.566999435424805,-3.561000108718872 C19.298999786376953,-2.8980000019073486 18.93199920654297,-2.236999988555908 18.499000549316406,-1.6200000047683716 C18.364999771118164,-1.4290000200271606 18.224000930786133,-1.2430000305175781 18.07900047302246,-1.062000036239624 C17.947999954223633,-0.8999999761581421 17.812999725341797,-0.7419999837875366 17.673999786376953,-0.5899999737739563 C17.23900032043457,-0.11100000143051147 16.783000946044922,0.2460000067949295 16.242000579833984,0.6119999885559082 C15.819000244140625,0.8989999890327454 15.371000289916992,1.2339999675750732 14.986000061035156,1.5820000171661377 C14.909000396728516,1.652999997138977 14.829000473022461,1.722000002861023 14.74899959564209,1.7899999618530273 C14.732000350952148,1.8049999475479126 14.71399974822998,1.819000005722046 14.696999549865723,1.8339999914169312 C14.425999641418457,1.9910000562667847 14.111000061035156,2.0850000381469727 13.850000381469727,2.257999897003174 C13.281999588012695,2.635999917984009 12.73900032043457,3.1389999389648438 12.154999732971191,3.4709999561309814 C11.895999908447266,3.619999885559082 11.5649995803833,3.8519999980926514 11.288000106811523,4.035999774932861 C11.128000259399414,3.9539999961853027 10.947999954223633,3.8550000190734863 10.772000312805176,3.74399995803833 C10.402999877929688,3.5160000324249268 10.057999610900879,3.247999906539917 9.95300006866455,3.1089999675750732 C9.864999771118164,2.994999885559082 9.635000228881836,2.812000036239624 9.354000091552734,2.6019999980926514 C8.960000038146973,2.308000087738037 8.463000297546387,1.9589999914169312 8.105999946594238,1.6670000553131104 C8.100000381469727,1.6619999408721924 8.095999717712402,1.6579999923706055 8.09000015258789,1.652999997138977 C8.208999633789062,2.11299991607666 8.276000022888184,2.569999933242798 8.284000396728516,3.0209999084472656 C8.291999816894531,3.437999963760376 8.25100040435791,3.8489999771118164 8.156999588012695,4.245999813079834 C8.640000343322754,4.633999824523926 9.163999557495117,4.998000144958496 9.333999633789062,5.146999835968018 C9.366000175476074,5.179999828338623 9.413000106811523,5.216000080108643 9.470000267028809,5.255000114440918 C9.666000366210938,5.388999938964844 9.98799991607666,5.556000232696533 10.27400016784668,5.709000110626221 C10.432999610900879,6.046000003814697 10.616000175476074,6.324999809265137 10.777999877929688,6.4079999923706055 C10.786999702453613,6.413000106811523 10.795999526977539,6.416999816894531 10.805000305175781,6.420000076293945 C11.083999633789062,6.526000022888184 11.449999809265137,6.27400016784668 11.701000213623047,6.078999996185303 C12.550999641418457,5.418000221252441 13.354999542236328,5.211999893188477 14.222000122070312,4.5879998207092285 C14.553999900817871,4.3480000495910645 15.024999618530273,4.258999824523926 15.284000396728516,3.9200000762939453 C15.288000106811523,3.9149999618530273 15.33899974822998,3.8469998836517334 15.472000122070312,3.7360000610351562 C15.604999542236328,3.625 15.817000389099121,3.4679999351501465 16.14299964904785,3.2790000438690186 C16.472000122070312,3.0910000801086426 16.985000610351562,2.7119998931884766 17.416000366210938,2.3369998931884766 C17.849000930786133,1.9600000381469727 18.219999313354492,1.590000033378601 18.332000732421875,1.4500000476837158 C18.447999954223633,1.315999984741211 19.084999084472656,0.7369999885559082 19.658000946044922,0.08900000154972076 C20.232999801635742,-0.5559999942779541 20.72800064086914,-1.2730000019073486 20.76300048828125,-1.4240000247955322 C20.766000747680664,-1.4359999895095825 20.763999938964844,-1.4490000009536743 20.764999389648438,-1.4609999656677246 C21.086999893188477,-1.9850000143051147 21.472000122070312,-2.740000009536743 21.7450008392334,-3.4670000076293945 C22.02400016784668,-4.192999839782715 22.197999954223633,-4.873000144958496 22.30299949645996,-5.185999870300293 C22.54199981689453,-5.866000175476074 22.61400032043457,-6.610000133514404 22.54800033569336,-7.353000164031982z"></path></g><g opacity="1" transform="matrix(1,0,0,1,0.75,-0.25)"><path fill="#792F6B" fill-opacity="1" d=" M16.625,-8.105999946594238 C16.920000076293945,-8.32699966430664 17.24799919128418,-8.564000129699707 17.474000930786133,-8.673999786376953 C17.523000717163086,-8.697999954223633 17.56800079345703,-8.71500015258789 17.606000900268555,-8.72599983215332 C17.652000427246094,-8.73900032043457 17.687999725341797,-8.741000175476074 17.714000701904297,-8.729999542236328 C17.78700065612793,-8.701000213623047 17.999000549316406,-8.36299991607666 18.14900016784668,-7.99399995803833 C18.231000900268555,-7.802000045776367 18.29400062561035,-7.6020002365112305 18.341999053955078,-7.446000099182129 C18.38599967956543,-7.303999900817871 18.416000366210938,-7.196000099182129 18.43600082397461,-7.160999774932861 C18.458999633789062,-7.122000217437744 18.4950008392334,-7.038000106811523 18.5310001373291,-6.927000045776367 C18.562999725341797,-6.829999923706055 18.594999313354492,-6.7129998207092285 18.618999481201172,-6.5879998207092285 C18.649999618530273,-6.434000015258789 18.66900062561035,-6.269999980926514 18.672000885009766,-6.123000144958496 C18.673999786376953,-6.014999866485596 18.667999267578125,-5.915999889373779 18.652999877929688,-5.8379998207092285 C18.632999420166016,-5.736999988555908 18.628999710083008,-5.6620001792907715 18.628999710083008,-5.593999862670898 C18.47599983215332,-5.543000221252441 18.319000244140625,-5.511000156402588 18.15999984741211,-5.492000102996826 C17.881999969482422,-5.458000183105469 17.597999572753906,-5.461999893188477 17.320999145507812,-5.473999977111816 C17.284000396728516,-5.47599983215332 17.246000289916992,-5.480000019073486 17.20800018310547,-5.48199987411499 C17.11199951171875,-5.508999824523926 17.01300048828125,-5.533999919891357 16.906999588012695,-5.550000190734863 C16.874000549316406,-5.554999828338623 16.843000411987305,-5.556000232696533 16.81100082397461,-5.559999942779541 C16.743000030517578,-5.580999851226807 16.68199920654297,-5.607999801635742 16.608999252319336,-5.624000072479248 C16.638999938964844,-5.708000183105469 16.666000366210938,-5.803999900817871 16.684999465942383,-5.9039998054504395 C16.73699951171875,-6.1529998779296875 16.731000900268555,-6.415999889373779 16.69099998474121,-6.494999885559082 C16.652999877929688,-6.574999809265137 16.562999725341797,-6.822000026702881 16.450000762939453,-7.052000045776367 C16.340999603271484,-7.2829999923706055 16.211999893188477,-7.495999813079834 16.207000732421875,-7.567999839782715 C16.191999435424805,-7.78000020980835 16.187000274658203,-7.781000137329102 16.625,-8.105999946594238z"></path><path stroke-linecap="butt" stroke-linejoin="miter" fill-opacity="0" stroke-miterlimit="4" stroke="#000000" stroke-opacity="1" stroke-width="0px" d=" M16.625,-8.105999946594238 C16.920000076293945,-8.32699966430664 17.24799919128418,-8.564000129699707 17.474000930786133,-8.673999786376953 C17.523000717163086,-8.697999954223633 17.56800079345703,-8.71500015258789 17.606000900268555,-8.72599983215332 C17.652000427246094,-8.73900032043457 17.687999725341797,-8.741000175476074 17.714000701904297,-8.729999542236328 C17.78700065612793,-8.701000213623047 17.999000549316406,-8.36299991607666 18.14900016784668,-7.99399995803833 C18.231000900268555,-7.802000045776367 18.29400062561035,-7.6020002365112305 18.341999053955078,-7.446000099182129 C18.38599967956543,-7.303999900817871 18.416000366210938,-7.196000099182129 18.43600082397461,-7.160999774932861 C18.458999633789062,-7.122000217437744 18.4950008392334,-7.038000106811523 18.5310001373291,-6.927000045776367 C18.562999725341797,-6.829999923706055 18.594999313354492,-6.7129998207092285 18.618999481201172,-6.5879998207092285 C18.649999618530273,-6.434000015258789 18.66900062561035,-6.269999980926514 18.672000885009766,-6.123000144958496 C18.673999786376953,-6.014999866485596 18.667999267578125,-5.915999889373779 18.652999877929688,-5.8379998207092285 C18.632999420166016,-5.736999988555908 18.628999710083008,-5.6620001792907715 18.628999710083008,-5.593999862670898 C18.47599983215332,-5.543000221252441 18.319000244140625,-5.511000156402588 18.15999984741211,-5.492000102996826 C17.881999969482422,-5.458000183105469 17.597999572753906,-5.461999893188477 17.320999145507812,-5.473999977111816 C17.284000396728516,-5.47599983215332 17.246000289916992,-5.480000019073486 17.20800018310547,-5.48199987411499 C17.11199951171875,-5.508999824523926 17.01300048828125,-5.533999919891357 16.906999588012695,-5.550000190734863 C16.874000549316406,-5.554999828338623 16.843000411987305,-5.556000232696533 16.81100082397461,-5.559999942779541 C16.743000030517578,-5.580999851226807 16.68199920654297,-5.607999801635742 16.608999252319336,-5.624000072479248 C16.638999938964844,-5.708000183105469 16.666000366210938,-5.803999900817871 16.684999465942383,-5.9039998054504395 C16.73699951171875,-6.1529998779296875 16.731000900268555,-6.415999889373779 16.69099998474121,-6.494999885559082 C16.652999877929688,-6.574999809265137 16.562999725341797,-6.822000026702881 16.450000762939453,-7.052000045776367 C16.340999603271484,-7.2829999923706055 16.211999893188477,-7.495999813079834 16.207000732421875,-7.567999839782715 C16.191999435424805,-7.78000020980835 16.187000274658203,-7.781000137329102 16.625,-8.105999946594238z"></path></g><g opacity="1" transform="matrix(1,0,0,1,0,-0.5)"><path fill="#792F6B" fill-opacity="1" d=" M16.479999542236328,-10.197999954223633 C16.759000778198242,-10.204000473022461 17.01300048828125,-10.08899974822998 17.19099998474121,-9.899999618530273 C17.34600067138672,-9.734999656677246 17.44300079345703,-9.513999938964844 17.447999954223633,-9.270000457763672 C17.451000213623047,-9.12399959564209 17.42099952697754,-8.986000061035156 17.364999771118164,-8.862000465393066 C17.31599998474121,-8.751999855041504 17.246000289916992,-8.652999877929688 17.160999298095703,-8.569999694824219 C16.9950008392334,-8.407999992370605 16.770000457763672,-8.307000160217285 16.520000457763672,-8.302000045776367 C16.243000030517578,-8.295999526977539 15.991999626159668,-8.409000396728516 15.8149995803833,-8.593999862670898 C15.656999588012695,-8.758999824523926 15.557000160217285,-8.982999801635742 15.552000045776367,-9.229999542236328 C15.545999526977539,-9.532999992370605 15.680999755859375,-9.805000305175781 15.89799976348877,-9.982999801635742 C16.05699920654297,-10.11299991607666 16.259000778198242,-10.192999839782715 16.479999542236328,-10.197999954223633z"></path><path stroke-linecap="butt" stroke-linejoin="miter" fill-opacity="0" stroke-miterlimit="4" stroke="#000000" stroke-opacity="1" stroke-width="0px" d=" M16.479999542236328,-10.197999954223633 C16.759000778198242,-10.204000473022461 17.01300048828125,-10.08899974822998 17.19099998474121,-9.899999618530273 C17.34600067138672,-9.734999656677246 17.44300079345703,-9.513999938964844 17.447999954223633,-9.270000457763672 C17.451000213623047,-9.12399959564209 17.42099952697754,-8.986000061035156 17.364999771118164,-8.862000465393066 C17.31599998474121,-8.751999855041504 17.246000289916992,-8.652999877929688 17.160999298095703,-8.569999694824219 C16.9950008392334,-8.407999992370605 16.770000457763672,-8.307000160217285 16.520000457763672,-8.302000045776367 C16.243000030517578,-8.295999526977539 15.991999626159668,-8.409000396728516 15.8149995803833,-8.593999862670898 C15.656999588012695,-8.758999824523926 15.557000160217285,-8.982999801635742 15.552000045776367,-9.229999542236328 C15.545999526977539,-9.532999992370605 15.680999755859375,-9.805000305175781 15.89799976348877,-9.982999801635742 C16.05699920654297,-10.11299991607666 16.259000778198242,-10.192999839782715 16.479999542236328,-10.197999954223633z"></path></g></g></g></svg>