<?xml version="1.0" encoding="UTF-8" standalone="no"?>
<svg
   version="1.1"
   id="Layer_1"
   x="0px"
   y="0px"
   width="100%"
   viewBox="0 0 1200 630"
   enable-background="new 0 0 1200 630"
   xml:space="preserve"
   sodipodi:docname="loginimg.svg"
   inkscape:version="1.2.2 (732a01da63, 2022-12-09)"
   xmlns:inkscape="http://www.inkscape.org/namespaces/inkscape"
   xmlns:sodipodi="http://sodipodi.sourceforge.net/DTD/sodipodi-0.dtd"
   xmlns="http://www.w3.org/2000/svg"
   xmlns:svg="http://www.w3.org/2000/svg"><defs
   id="defs71" /><sodipodi:namedview
   id="namedview69"
   pagecolor="#ffffff"
   bordercolor="#000000"
   borderopacity="0.25"
   inkscape:showpageshadow="2"
   inkscape:pageopacity="0.0"
   inkscape:pagecheckerboard="0"
   inkscape:deskcolor="#d1d1d1"
   showgrid="false"
   inkscape:zoom="0.7719249"
   inkscape:cx="388.63884"
   inkscape:cy="474.78712"
   inkscape:window-width="1920"
   inkscape:window-height="991"
   inkscape:window-x="-9"
   inkscape:window-y="-9"
   inkscape:window-maximized="1"
   inkscape:current-layer="Layer_1" />

<path
   fill="#efd0ad"
   opacity="1"
   stroke="none"
   d="m 735.25011,293.52464 c 10.86576,-9.98677 23.32566,-16.86534 39.5896,-13.7212 4.07728,0.78823 9.01797,3.80877 10.64477,6.99415 1.18877,2.328 -1.29777,8.36074 -4.03646,9.73865 -21.67559,10.9048 -27.51915,31.33534 -37.07176,49.12468 -13.61274,25.34999 -25.02635,51.72933 -50.85202,69.78692 -6.00753,4.20045 -12.16434,3.3523 -19.00344,-0.1674 -4.51722,-2.32465 -10.77744,-1.9421 -14.42064,-2.49363 -7.3238,17.58993 -13.64935,33.96529 -21.03194,49.95044 -3.09739,6.70679 -7.24978,13.70878 -13.02707,18.58267 -8.83916,7.45693 -7.18719,15.27027 -5.63495,24.23997 1.84479,10.66021 2.43006,21.52103 3.03615,32.31841 0.55941,9.96736 1.07229,18.87526 15.72507,21.11366 6.69853,1.02314 10.62218,7.13722 8.86774,13.92011 -1.95802,7.56947 -8.27689,11.46875 -16.52779,11.62885 -18.56609,0.36047 -37.14749,0.0759 -55.7227,0.0754 -46.81053,-10e-4 -93.62323,0.2466 -140.43056,-0.0945 -20.20385,-0.14721 -40.11459,-4.66214 -55.28848,-16.31356 -9.74155,-7.48011 -14.88221,-19.78983 -21.89249,-30.04005 -1.46093,-2.13608 -2.07436,-4.73525 -3.07861,-7.12152 -28.35167,13.26583 -62.80939,2.96603 -78.46703,-21.8666 -12.34049,-19.57182 -17.46461,-40.22725 -16.36531,-62.24939 0.49858,-9.98871 2.67568,-19.91502 4.24111,-29.85075 0.18636,-1.18221 1.01868,-2.59315 2.0585,-3.31081 13.14886,-9.07457 10.85386,-24.99767 20.01865,-35.86853 4.06734,-4.82461 7.0245,-10.40016 11.1241,-15.19892 1.66579,-1.94976 5.03043,-2.73938 10.03018,-5.28126 -1.43705,4.78927 -2.09253,6.97365 -2.91988,9.73092 1.8599,-0.32629 3.12059,-0.2098 3.79696,-0.71669 10.3471,-7.7533 20.44144,-15.78684 31.00993,-23.28739 3.3407,-2.37094 7.90153,-3.36781 13.69072,-5.71929 -7.21977,15.53616 -14.83301,28.46165 -19.23579,42.20907 -6.49483,20.27938 -11.9722,41.32594 -8.76942,62.44848 1.86677,12.31172 3.74504,26.68391 21.28988,31.91505 7.95357,2.3713 13.57029,-0.36711 15.45448,-6.26086 14.04009,-43.9163 51.56799,-64.7154 95.41619,-80.82847 39.37411,-14.46885 79.18667,-28.97729 109.88662,-58.42985 -6.55347,-2.55654 -12.91065,-4.74888 -18.98235,-7.45341 -31.26664,-13.92747 -33.89973,-41.10496 -7.22658,-60.97915 16.73728,-12.47092 29.69312,-27.8283 38.23046,-46.49574 4.23513,-9.26055 12.91705,-17.99704 22.01313,-24.06275 8.71649,-5.8126 20.43559,-10.45877 31.08267,-10.90589 13.1807,-0.55355 27.52187,1.89428 39.61681,6.61712 7.7734,3.03542 14.57277,11.71092 18.01742,19.24414 8.62471,18.86197 20.07832,32.02746 41.44039,27.64903 9.61738,6.6181 16.59093,11.4168 25.10677,17.27685 0.29488,14.60024 -7.23291,26.01242 -29.07233,35.36668 -9.90261,0.45689 -18.62951,0.45689 -27.99841,0.45689 5.88138,8.70388 10.52719,15.57923 14.20645,22.44521 -9.63508,0.6353 -18.29394,1.67201 -26.97403,1.84148 -17.10122,0.33383 -20.38231,2.90502 -22.00026,18.43084 -13.44129,-1.54409 -26.13035,-3.45838 -38.81314,-5.4051 -2.80564,-0.43055 -5.58896,-0.97589 -8.38263,-1.46842 1.81976,2.38578 3.15141,6.28543 5.54188,6.90157 11.86348,3.05788 24.00604,5.24993 36.03472,8.5223 -0.33339,12.69513 7.98255,10.47881 16.90132,8.71714 6.75024,-3.69782 13.1411,-7.02414 18.48145,-11.38025 7.22461,-5.89314 13.64255,-12.57675 21.03085,-18.51028 5.15216,2.91116 10.43168,8.14485 14.05323,7.34878 7.80756,-1.71624 10.58694,-8.53903 9.27039,-15.781 -0.81877,-4.50367 -2.42802,-8.89251 -3.68252,-13.33286 M 580.62208,540.13452 c -2.70202,-8.99227 -5.40403,-17.98454 -8.34799,-27.78213 -11.98241,8.16676 -22.79707,15.53762 -34.68497,23.64002 14.07221,8.41001 28.0838,3.19846 43.03296,4.14211 m 95.96043,-303.56371 c 0.21064,-2.86087 1.26034,-5.9957 0.25405,-8.45929 -0.45722,-1.1198 -5.34157,-1.76587 -7.55024,-1.02853 -1.70423,0.56894 -3.69572,5.03895 -3.27769,5.35392 2.68004,2.01947 5.99039,3.37037 10.57388,4.1339 z"
   id="path4"
   style="fill:#a05a2c;stroke-width:2.10806" />
<path
   fill="#683d37"
   opacity="1"
   stroke="none"
   d="m 915.56289,70.980337 c -3.68565,-14.558968 4.11824,-23.909459 19.07856,-30.759109 8.65913,9.976881 18.6906,16.255252 31.12233,20.023077 7.32191,2.219083 14.41533,5.14859 21.37717,8.187711 16.97635,7.410923 34.01715,12.841151 52.41445,3.72409 7.2686,2.914999 14.3589,6.276334 21.8373,8.666255 29.5989,9.459225 48.5784,27.921399 55.6868,54.923299 3.5726,13.57125 13.8069,21.43018 24.1691,29.66743 10.6248,8.44618 22.1151,16.01602 32.9056,24.30343 14.2052,10.91009 17.2686,24.64859 10.4903,39.86175 -5.9317,13.31318 -6.7976,25.64863 -1.1318,39.83335 5.465,13.6819 6.094,28.77455 -0.774,43.34444 -5.7521,12.20259 -16.8924,16.31872 -31.6044,18.80153 -31.1968,5.37494 -52.3936,-3.32882 -63.9973,-28.71944 -0.5492,-1.20187 -1.4804,-2.29247 -2.3803,-3.33357 -6.9099,-7.99369 -15.2317,-13.47471 -27.367,-12.17619 -0.029,-0.0769 0.01,-0.23565 -0.5483,-0.69011 -3.9635,-1.29773 -7.3703,-2.14095 -11.4427,-3.35048 -3.8971,-8.19528 -8.5165,-15.82515 -9.967,-23.90955 -1.4256,-7.94734 -4.4988,-13.97552 -12.1527,-17.76275 -10.0329,-4.96422 -20.3388,-9.48687 -30.83226,-14.67086 -1.51454,-1.43336 -2.72427,-2.3954 -4.36114,-3.93389 -2.88265,-4.19935 -6.59021,-7.57641 -7.55201,-11.49257 -2.57566,-10.48648 -3.97399,-21.20405 -5.84002,-31.82979 -5.09976,-6.95273 -10.19952,-13.90542 -15.95395,-21.86654 -1.80289,-1.94396 -2.95083,-2.87942 -4.09892,-3.81488 0,0 0.0901,0.008 -0.13743,-0.66739 -8.34602,-11.08148 -8.31568,-22.1052 -3.5063,-33.57052 3.29252,-7.84992 3.3841,-15.2047 -3.13399,-22.232155 -9.03008,-9.735998 -17.47299,-19.907411 -26.26956,-30.009724 -1.273,0.728917 -3.65176,2.091037 -6.03053,3.453156 z"
   id="path6"
   style="stroke-width:2.10806" />
<path
   fill="#f5a87f"
   opacity="1"
   stroke="none"
   d="m 1019.8265,480.90439 c 7.0454,2.66293 13.9164,5.82209 21.1805,7.8631 9.0798,2.55112 18.4833,4.18274 28.3171,6.9995 -2.191,13.46535 -4.9522,26.14259 -7.7133,38.81978 -27.1007,-10.78077 -56.0508,-10.89799 -84.87349,-11.8021 -13.08816,-0.41053 -26.17089,-0.9569 -40.48689,-1.07473 -17.81194,-1.34214 -34.39294,-3.05125 -50.97394,-4.76044 -23.66367,-2.21698 -46.19709,-7.45803 -64.80645,-21.51598 -18.28156,-13.81031 -21.93768,-42.52543 -4.01509,-57.26053 9.53505,-7.83937 19.85746,-15.14302 30.8069,-21.28946 6.33058,-3.55364 6.75854,-6.95162 5.24128,-13.08139 0.29243,-2.1935 0.61671,-3.93638 -0.17349,-4.57278 -4.4979,-3.62183 -9.26182,-6.97955 -15.0964,-11.28365 5.6638,-1.84215 9.8743,-2.44466 13.02068,-4.40933 5.08533,-3.17541 9.47096,-7.24659 14.15229,-10.93929 -4.83128,-2.45415 -9.66243,-4.90831 -14.2089,-8.08238 6.20049,-1.1605 12.66755,-3.19774 17.92965,-1.74526 16.41526,4.53112 30.51067,1.50966 43.52944,-7.68492 14.46554,-10.21658 29.12663,-20.23048 43.20789,-30.85668 8.56714,-6.465 16.1993,-13.92017 24.36229,-21.64531 3.09617,-7.60201 6.08143,-14.48934 9.84886,-21.07314 22.68987,8.2569 45.54287,6.54675 68.32267,5.58334 0,0 -0.037,0.15876 0,1.03896 -0.77,3.74398 -0.9291,6.93697 -2.4984,9.41674 -8.6828,13.72174 -17.7092,27.26963 -27.3479,41.18208 -18.8553,9.45135 -36.98047,18.59763 -55.8409,27.83596 -6.41957,1.87658 -12.10379,3.66125 -18.25107,5.5913 36.30959,30.40685 50.27237,70.0932 66.36437,108.74661 M 893.43539,460.61747 c 25.36274,3.82926 50.72561,7.65852 76.08834,11.48773 -22.80584,-6.58629 -46.13422,-10.95341 -69.54874,-14.91297 -2.35863,-0.39879 -5.2387,1.66812 -6.5396,3.42524 m 86.22445,12.45777 c -0.68446,0.13151 -1.3688,0.26309 -2.05326,0.39472 0.22153,0.41875 0.4432,0.83756 0.66473,1.25631 0.77809,-0.48682 1.55618,-0.97363 1.38853,-1.65103 z"
   id="path8"
   style="fill:#ffccaa;stroke-width:2.10806" />
<path
   fill="#8fc3c6"
   opacity="1"
   stroke="none"
   d="m 972.44857,366.4745 c 18.12507,-9.14635 36.25023,-18.29263 56.15033,-27.58449 11.7353,0.006 21.6984,0.0663 31.6549,0.32891 23.082,0.60841 45.4999,3.79818 66.0091,14.07613 5.4311,2.72175 10.8292,5.49629 16.2423,8.24663 1.3698,9.93408 2.145,19.9683 4.2126,29.78487 8.8931,42.22092 -15.7013,77.26211 -63.0079,85.44784 -14.5886,2.52429 -29.6557,2.83647 -45.4933,3.23989 -7.9642,-17.96167 -13.8309,-35.45063 -22.1852,-51.93171 -11.2679,-22.22878 -21.75579,-45.21774 -43.58283,-61.60807 z"
   id="path10"
   style="stroke-width:2.10806" />
<path
   fill="#ee9e79"
   opacity="1"
   stroke="none"
   d="m 979.11581,303.29735 c -8.05223,7.01033 -15.68439,14.4655 -24.25153,20.9305 -14.08126,10.6262 -28.74235,20.6401 -43.20789,30.85668 -13.01877,9.19458 -27.11418,12.21604 -43.52944,7.68492 -5.2621,-1.45248 -11.72916,0.58476 -18.8347,1.8059 -3.59911,0.70921 -6.00849,0.63786 -8.41773,0.56657 -0.27733,-8.70723 -2.00496,-17.62857 -0.44661,-26.06474 1.75295,-9.48851 6.4702,-18.5393 10.71907,-29.994 -14.91895,-8.44669 -31.86654,-17.93368 -48.68173,-27.60492 -9.38238,-5.39623 -14.16317,-12.80122 -12.85248,-23.25497 1.26456,-10.08562 1.06263,-20.33231 2.64969,-30.36345 0.52812,-3.33834 4.59928,-6.22864 7.0507,-9.32376 2.03014,2.7143 4.11865,5.39529 6.08034,8.1486 8.86107,12.4381 2.45905,31.30326 20.0345,39.78833 9.06083,4.3743 19.18483,7.10809 29.03191,10.03647 21.66076,6.44151 43.45079,12.53569 66.26602,19.08092 5.89377,-10.10873 11.85205,-20.32804 18.62433,-31.12524 3.87344,1.23167 6.67336,3.80615 10.03746,4.7198 15.39781,4.18232 21.72798,14.48589 24.89122,27.47014 0.58799,2.41352 3.17332,4.4381 4.83687,6.64225 z"
   id="path12"
   style="fill:#ffccaa;stroke-width:2.10806" />
<path
   fill="#cd5153"
   opacity="1"
   stroke="none"
   d="m 1143.3156,361.53225 c -6.2235,-2.74091 -11.6216,-5.51545 -17.0527,-8.2372 -20.5092,-10.27795 -42.9271,-13.46772 -66.0091,-14.07613 -9.9565,-0.2626 -19.9196,-0.32252 -30.9247,-0.6339 7.8637,-13.76695 16.8901,-27.31484 25.573,-41.03658 1.5692,-2.47977 1.7283,-5.67276 2.5275,-9.33985 12.0954,-2.17872 20.4172,3.3023 27.3271,11.29599 0.8999,1.0411 1.8311,2.1317 2.3803,3.33357 11.6037,25.39062 32.8005,34.09438 63.1369,28.74475 0.9019,6.69341 1.5952,13.41273 0.4637,19.87675 -0.6259,3.57524 -4.3075,6.72279 -7.422,10.0726 z"
   id="path14"
   style="stroke-width:2.10806" />
<path
   fill="#8fc3c6"
   opacity="1"
   stroke="none"
   d="m 1039.6236,71.351884 c -18.4655,9.921283 -35.5063,4.491055 -52.48265,-2.919868 -6.96184,-3.039121 -14.05526,-5.968628 -21.37717,-8.187711 -12.43173,-3.767825 -22.4632,-10.046196 -30.3158,-20.099905 2.17982,-3.32213 4.56185,-7.398146 8.31213,-9.664128 12.05099,-7.281355 24.65051,-4.840124 37.89109,-0.640745 3.99808,-4.044264 8.53257,-7.493557 13.47939,0.5648 0.89919,1.464647 4.95331,1.957819 7.53571,1.925521 15.8532,-0.198184 28.7652,5.121854 35.2861,18.081437 2.9065,5.776347 1.2983,13.368418 1.6712,20.940599 z"
   id="path16"
   style="stroke-width:2.10806" />
<path
   fill="#cd5153"
   opacity="1"
   stroke="none"
   d="m 979.22657,302.58261 c -1.77431,-1.48941 -4.35964,-3.51399 -4.94763,-5.92751 -3.16324,-12.98425 -9.49341,-23.28782 -24.89122,-27.47014 -3.3641,-0.91365 -6.16402,-3.48813 -10.01922,-5.43004 -12.49746,-9.10468 -12.66524,-11.7586 -4.58118,-23.51568 5.83554,-8.48696 10.81242,-17.44565 16.99658,-25.66238 0.33298,3.09715 -0.44796,5.649 -0.60146,8.23062 -0.8034,13.50991 -4.11769,27.46956 7.9899,39.52525 0.74625,2.20658 1.50529,3.74946 2.30393,5.69618 0.35067,0.81273 0.66174,1.22163 0.97295,1.63052 0.0999,-0.23638 0.36251,-0.58153 0.27147,-0.69023 -0.39285,-0.46948 -0.88926,-0.86979 -1.33886,-1.9604 -0.73155,-2.21972 -1.47222,-3.77428 -2.24868,-6.12429 -5.82015,-16.70001 -6.09026,-32.80447 -1.86153,-49.28111 0.50593,-0.70093 0.64854,-1.17963 0.79115,-1.65832 -0.22847,0.0698 -0.61643,0.096 -0.65807,0.21703 -0.19187,0.56 -0.28753,1.14636 -1.12835,1.73513 -1.65796,-0.0187 -2.60492,-0.0492 -3.55188,-0.0797 6.778,-10.64728 13.55586,-21.29456 21.15141,-32.03555 2.68372,10.53213 4.08205,21.2497 6.65771,31.73618 0.9618,3.91616 4.66936,7.29322 7.45989,12.40421 -1.58122,16.9176 -3.22925,32.37985 -5.57222,47.75755 -0.73536,4.82619 -0.71128,7.93724 5.7649,7.9533 -0.0248,-0.0159 -0.0699,-0.0523 -0.0193,0.35336 0.0505,0.40573 0.12642,1.21926 0.12655,1.21926 -2.98539,6.88734 -5.97065,13.77467 -9.06682,21.37675 z"
   id="path18"
   style="stroke-width:2.10806" />
<path
   fill="#a63a38"
   opacity="1"
   stroke="none"
   d="m 1061.9677,535.25334 c 2.4042,-13.34376 5.1654,-26.021 8.2583,-39.36579 7.93,0.56651 15.5281,1.80073 24.0475,3.98128 -2.0062,13.09763 8.5072,18.3736 16.3309,25.02534 -3.6723,13.4732 -7.7658,26.86811 -10.9173,40.43796 -4.652,20.03102 -21.3394,27.33333 -44.2318,17.16955 3.4466,-4.88167 6.2169,-10.07765 10.2733,-14.28174 8.0516,-8.34486 6.6255,-24.99329 -3.7609,-32.9666 z"
   id="path20"
   style="stroke-width:2.10806" />
<path
   fill="#a63a38"
   opacity="1"
   stroke="none"
   d="m 910.22568,582.28251 c -17.2041,1.37413 -34.38941,3.03276 -51.62399,3.94222 -4.91782,0.25944 -10.33206,-0.94662 -14.88221,-2.75842 -5.28061,-2.10256 -3.85615,-9.63517 2.29154,-12.14079 10.95203,-4.46366 22.62527,-7.74552 32.92576,-13.15281 4.93661,-2.59151 7.42505,-8.9107 12.15346,-14.3753 15.91708,-2.21333 30.70281,-3.593 45.48854,-4.97267 0.83211,6.69578 1.66422,13.39157 2.02224,21.44919 -6.29656,5.43163 -12.19523,9.41832 -17.91428,13.60131 -3.62509,2.65154 -6.9832,5.59489 -10.46106,8.40727 z"
   id="path22"
   style="stroke-width:2.10806" />
<path
   fill="#abdde0"
   opacity="1"
   stroke="none"
   d="m 971.71321,366.56648 c 22.5624,16.29835 33.05029,39.28731 44.31819,61.51609 8.3543,16.48108 14.221,33.97004 21.162,51.79004 -5.1787,0.87271 -10.3235,0.96548 -16.4176,1.04498 -17.0413,-38.66661 -31.00407,-78.35296 -67.31366,-108.75981 6.14728,-1.93005 11.8315,-3.71472 18.25107,-5.5913 z"
   id="path24"
   style="stroke-width:2.10806" />
<path
   fill="#ee9e79"
   opacity="1"
   stroke="none"
   d="m 915.34163,71.850773 c 2.60003,-2.232555 4.97879,-3.594675 6.25179,-4.323592 8.79657,10.102313 17.23948,20.273726 26.26956,30.009724 6.51809,7.027455 6.42651,14.382235 3.13399,22.232155 -4.80938,11.46532 -4.83972,22.48904 3.48697,33.60717 -10.80683,-0.60759 -17.56783,-6.72644 -23.09732,-14.86302 -3.97032,-5.84232 -4.06027,-15.31694 -15.80359,-14.96574 -0.85034,0.0255 -3.07561,-4.04472 -2.54273,-4.60778 7.79136,-8.23306 1.00207,-16.99129 1.46065,-25.420705 0.37666,-6.925205 0.42524,-13.864637 0.84068,-21.668212 z"
   id="path26"
   style="fill:#ffccaa;stroke-width:2.10806" />
<path
   fill="#ee9e79"
   opacity="1"
   stroke="none"
   d="m 936.70846,537.92885 c -14.91541,2.27556 -29.70114,3.65523 -45.43533,5.15248 -2.54478,-8.08676 -4.14124,-16.29111 -5.8671,-25.31361 16.45145,0.89097 33.03245,2.60008 50.3654,4.63799 0.85688,5.09494 0.96166,9.86103 0.93703,15.52314 z"
   id="path28"
   style="fill:#ffccaa;stroke-width:2.10806" />
<path
   fill="#cd5153"
   opacity="1"
   stroke="none"
   d="m 734.9306,292.88447 c 1.57401,5.08052 3.18326,9.46936 4.00203,13.97303 1.31655,7.24197 -1.46283,14.06476 -9.27039,15.781 -3.62155,0.79607 -8.90107,-4.43762 -14.17746,-8.05635 -0.74203,-3.05649 -0.73564,-4.99439 -0.72938,-6.93228 -4.64581,-6.87541 -9.29162,-13.75076 -15.173,-22.45464 9.3689,0 18.0958,0 27.63821,0.18559 3.00703,2.41151 5.19883,4.6375 7.70999,7.50365 z"
   id="path30"
   style="stroke-width:2.10806" />
<path
   fill="#683d37"
   opacity="1"
   stroke="none"
   d="m 840.23142,365.50562 c 3.05234,-0.29241 5.46172,-0.22106 8.77616,-0.21035 5.73619,2.39351 10.56734,4.84767 15.39862,7.30182 -4.68133,3.6927 -9.06696,7.76388 -14.15229,10.93929 -3.14638,1.96467 -7.35688,2.56718 -13.02068,4.40933 5.83458,4.3041 10.5985,7.66182 15.0964,11.28365 0.7902,0.6364 0.46592,2.37928 0.0562,3.82263 -11.90307,-0.6224 -20.24528,-5.94575 -22.21186,-15.62716 -1.62068,-7.97861 0.34087,-16.45358 10.05746,-21.91921 z"
   id="path32"
   style="stroke-width:2.10806" />
<path
   fill="#cd5153"
   opacity="1"
   stroke="none"
   d="m 911.16189,582.41658 c 2.54165,-2.94645 5.89976,-5.8898 9.52485,-8.54134 5.71905,-4.18299 11.61772,-8.16968 17.93116,-12.77397 1.32634,5.71893 5.11813,13.48908 2.30541,17.87042 -4.22968,6.58903 -13.67044,7.16204 -22.2833,3.82799 -1.87025,-0.72399 -4.34549,-0.19891 -7.47812,-0.3831 z"
   id="path34"
   style="stroke-width:2.10806" />
<path
   fill="#cd5153"
   opacity="1"
   stroke="none"
   d="m 1110.7751,524.13873 c -7.9944,-5.8963 -18.5078,-11.17227 -15.5523,-24.14873 3.3226,-0.92247 6.6716,-1.40801 9.9014,-1.04505 10.2094,1.14743 13.81,7.15432 9.7103,15.55155 -1.4223,2.91312 -2.5996,5.92179 -4.0594,9.64223 z"
   id="path36"
   style="stroke-width:2.10806" />
<path
   fill="#a63a38"
   opacity="1"
   stroke="none"
   d="m 952.55818,212.18581 c 1.11325,-0.33775 2.06021,-0.30728 3.69994,-0.30609 0.6929,-0.0293 0.65017,-0.0541 0.65017,-0.0541 -3.8654,16.25443 -3.59529,32.35889 2.22786,49.05707 0.0386,0.7937 0.0489,0.7864 0.0489,0.7864 -12.12025,-11.39204 -8.80596,-25.35169 -8.00256,-38.8616 0.1535,-2.58162 0.93444,-5.13347 1.30471,-8.57933 -0.12138,-0.88032 -0.0951,-1.67414 0.071,-2.04234 z"
   id="path38"
   style="stroke-width:2.10806" />
<path
   fill="#ee9e79"
   opacity="1"
   stroke="none"
   d="m 955.03301,154.40938 c 0.75578,0.53305 1.90372,1.46851 3.51215,2.72297 -0.73304,-0.56088 -1.92644,-1.44072 -3.51215,-2.72297 z"
   id="path40"
   style="stroke-width:2.10806" />


<path
   fill="#a63a38"
   opacity="1"
   stroke="none"
   d="m 664.81456,327.91276 c 0.95185,-0.0438 1.14944,0.2943 1.23667,1.64805 -2.35359,2.71937 -4.59696,4.42314 -6.84033,6.12703 -12.04419,-2.4971 -24.18675,-4.68915 -36.05023,-7.74703 -2.39047,-0.61614 -3.72212,-4.51579 -5.54188,-6.90157 2.79367,0.49253 5.57699,1.03787 8.38263,1.46842 12.68279,1.94672 25.37185,3.86101 38.81314,5.4051 z"
   id="path46"
   style="stroke-width:2.10806" />
<path
   fill="#8fc3c6"
   opacity="1"
   stroke="none"
   d="m 659.19525,336.46305 c 2.25902,-2.4791 4.50239,-4.18287 7.20556,-6.4229 8.22681,1.89014 10.6004,6.79839 8.76078,14.37401 -7.98365,2.52776 -16.29959,4.74408 -15.96634,-7.95111 z"
   id="path48"
   style="stroke-width:2.10806" />
<path
   fill="#683d37"
   opacity="1"
   stroke="none"
   d="m 675.84224,236.97435 c -3.84322,-1.16707 -7.15357,-2.51797 -9.83361,-4.53744 -0.41803,-0.31497 1.57346,-4.78498 3.27769,-5.35392 2.20867,-0.73734 7.09302,-0.0913 7.55024,1.02853 1.00629,2.46359 -0.0434,5.59842 -0.99432,8.86283 z"
   id="path50"
   style="fill:#280b0b;stroke-width:2.10806" />
<path
   fill="#cd5153"
   opacity="1"
   stroke="none"
   d="m 992.75169,227.416 c 10.18851,4.71263 20.49441,9.23528 30.52731,14.1995 7.6539,3.78723 10.7271,9.81541 12.1527,17.76275 1.4505,8.0844 6.0699,15.71427 9.2711,24.43536 -3.6663,1.20035 -7.3906,2.12039 -10.9222,1.71083 -15.2522,-1.76892 -30.4481,-3.92708 -45.66438,-5.94351 0,0 0.0452,0.0364 -0.2874,-0.66894 -0.1109,-7.42251 -0.31814,-14.17827 0.4315,-20.84801 1.15163,-10.247 2.96104,-20.43499 4.49137,-30.64798 z"
   id="path52"
   style="stroke-width:2.10806" />
<path
   fill="#a63a38"
   opacity="1"
   stroke="none"
   d="m 992.44674,226.94464 c -1.22538,10.68435 -3.03479,20.87234 -4.18642,31.11934 -0.74964,6.66974 -0.5424,13.4255 -0.40673,20.86395 -6.14361,0.68925 -6.16769,-2.4218 -5.43233,-7.24799 2.34297,-15.3777 3.991,-30.83995 5.9995,-47.18113 1.30171,0.0504 2.51144,1.01247 4.02598,2.44583 z"
   id="path54"
   style="stroke-width:2.10806" />
<path
   fill="#a63a38"
   opacity="1"
   stroke="none"
   d="m 988.16684,279.9866 c 15.16566,1.61076 30.36156,3.76892 45.61376,5.53784 3.5316,0.40956 7.2559,-0.51048 11.5876,-1.34451 4.1029,0.3174 7.5097,1.16062 11.4732,2.45835 -22.2231,1.41787 -45.0761,3.12802 -67.76611,-5.12888 -0.78203,-0.30354 -0.85797,-1.11707 -0.90845,-1.5228 z"
   id="path56"
   style="stroke-width:2.10806" />
<path
   fill="#ee9e79"
   opacity="1"
   stroke="none"
   d="m 892.76671,460.20024 c 1.96958,-1.33989 4.84965,-3.4068 7.20828,-3.00801 23.41452,3.95956 46.7429,8.32668 69.54874,14.91297 -25.36273,-3.82921 -50.7256,-7.65847 -76.75702,-11.90496 z"
   id="path58"
   style="stroke-width:2.10806" />
<path
   fill="#ee9e79"
   opacity="1"
   stroke="none"
   d="m 980.13271,473.1705 c -0.30522,0.58214 -1.08331,1.06895 -1.8614,1.55577 -0.22153,-0.41875 -0.4432,-0.83756 -0.66473,-1.25637 0.68446,-0.13157 1.3688,-0.26315 2.52613,-0.2994 z"
   id="path60"
   style="stroke-width:2.10806" />
<path
   fill="#a63a38"
   opacity="1"
   stroke="none"
   d="m 961.4368,267.62506 c -0.75917,-1.54287 -1.51821,-3.08575 -2.26446,-5.29233 0.0127,-0.66365 0.002,-0.65635 -5.4e-4,-0.65452 0.73781,1.55631 1.47848,3.11087 2.22717,5.32037 0.008,0.65495 0.0378,0.62648 0.0378,0.62648 z"
   id="path62"
   style="stroke-width:2.10806" />
<path
   fill="#a63a38"
   opacity="1"
   stroke="none"
   d="m 961.38986,267.66375 c 0.44157,0.43566 0.93798,0.83597 1.33083,1.30545 0.091,0.1087 -0.17159,0.45385 -0.27147,0.69023 -0.31121,-0.40889 -0.62228,-0.81779 -0.97295,-1.63052 -0.0395,-0.40385 -0.0693,-0.37538 -0.0864,-0.36516 z"
   id="path64"
   style="stroke-width:2.10806" />
<path
   fill="#a63a38"
   opacity="1"
   stroke="none"
   d="m 956.96912,211.86792 c 0.14805,-0.55945 0.24371,-1.14581 0.43558,-1.70581 0.0416,-0.12108 0.4296,-0.1472 0.65807,-0.21703 -0.14261,0.47869 -0.28522,0.95739 -0.79115,1.65832 -0.36333,0.22221 -0.3206,0.247 -0.3025,0.26452 z"
   id="path66"
   style="stroke-width:2.10806" />
<ellipse
   style="fill:#2b1100"
   id="path516"
   cx="747.48096"
   cy="236.90839"
   rx="16.259542"
   ry="15" /></svg>
