<svg xmlns:xlink="http://www.w3.org/1999/xlink" xmlns="http://www.w3.org/2000/svg" viewBox="0 0 600 600" width="600" height="600" preserveAspectRatio="xMidYMid meet" style="width: 100%; height: 100%; transform: translate3d(0px, 0px, 0px);"><defs><clipPath id="__lottie_element_131"><rect width="600" height="600" x="0" y="0"></rect></clipPath></defs><g clip-path="url(#__lottie_element_131)"><g transform="matrix(1,0,0,1,284,424)" opacity="1" style="display: block;"><g opacity="1" transform="matrix(1,0,0,1,0,0)"><path fill="#792F6B" fill-opacity="1" d=" M239.697998046875,-31.336999893188477 C229.73899841308594,-35.970001220703125 230.03700256347656,-55.35100173950195 224.50599670410156,-53.50600051879883 C219.25100708007812,-52.99100112915039 215.0780029296875,-50.70800018310547 210.35699462890625,-47.53499984741211 C204.6230010986328,-43.680999755859375 198.0800018310547,-38.51599884033203 187.80499267578125,-33.61399841308594 C176.29100036621094,-28.246999740600586 173.75799560546875,-25.336999893188477 161.3489990234375,-22.611000061035156 C155.10000610351562,-19.820999145507812 135.3159942626953,-17.18000030517578 125.96600341796875,-15.156999588012695 C121.40899658203125,-14.170999526977539 112.81999969482422,-12.151000022888184 105.15399932861328,-10.4350004196167 C98.71299743652344,-8.993000030517578 92.9229965209961,-7.767000198364258 90.72100067138672,-7.547999858856201 C70.29299926757812,-2.9539999961853027 46.87099838256836,-8.262999534606934 25.753000259399414,-4.164000034332275 C15.62399959564209,-2.2209999561309814 -15.656999588012695,-14.10200023651123 -29.579999923706055,-14.82699966430664 C-53.80500030517578,-15.052000045776367 -62.28499984741211,-18.448999404907227 -87.44999694824219,-20.226999282836914 C-112.4520034790039,-24.298999786376953 -148.10899353027344,-25.92799949645996 -171.86700439453125,-18.875 C-186.62100219726562,-17.406999588012695 -196.72300720214844,-12.694000244140625 -205.9219970703125,-6.586999893188477 C-213.6719970703125,-1.4420000314712524 -220.7830047607422,4.690999984741211 -229.4949951171875,10.704999923706055 C-233.593994140625,15.793000221252441 -245.58700561523438,20.893999099731445 -245.56300354003906,29.336999893188477 C-245.8520050048828,33.630001068115234 -235.2100067138672,47.75600051879883 -228.79299926757812,53.39099884033203 C-225.20700073242188,56.69499969482422 -220.31300354003906,51.45800018310547 -217.71099853515625,48.393001556396484 C-211.97500610351562,41.07699966430664 -209.11199951171875,34.165000915527344 -198.5709991455078,29.149999618530273 C-189.02499389648438,26.875999450683594 -185.1580047607422,19.576000213623047 -174.76800537109375,16.097000122070312 C-152.9290008544922,11.204999923706055 -140.0030059814453,9.656000137329102 -115.71499633789062,12.177000045776367 C-96.4469985961914,12.652000427246094 -58.07699966430664,18.233999252319336 -46.74399948120117,19.50200080871582 C-35.777000427246094,19.882999420166016 -22.85300064086914,21.729999542236328 -9.965999603271484,23.628999710083008 C-2.4240000247955322,24.739999771118164 5.105999946594238,25.8700008392334 12.222999572753906,26.733999252319336 C17.655000686645508,27.39299964904785 22.84600067138672,27.898000717163086 27.6200008392334,28.121999740600586 C39.27199935913086,33.12300109863281 73.99800109863281,26.917999267578125 87.63300323486328,27.878000259399414 C93.39900207519531,28.284000396728516 109.75499725341797,23.20800018310547 115.15399932861328,23.4950008392334 C133.38699340820312,25.52400016784668 138.26600646972656,20.46299934387207 155.7030029296875,16.624000549316406 C168.83799743652344,15.616000175476074 181.33299255371094,14.140999794006348 189.6959991455078,9.39900016784668 C202.95700073242188,2.5899999141693115 221.3979949951172,-3.7690000534057617 232.0780029296875,-12.809000015258789 C239.09300231933594,-17.666000366210938 246.7270050048828,-27.731000900268555 239.697998046875,-31.336999893188477z"></path><path stroke-linecap="butt" stroke-linejoin="miter" fill-opacity="0" stroke-miterlimit="4" stroke="#000000" stroke-opacity="1" stroke-width="0px" d=" M239.697998046875,-31.336999893188477 C229.73899841308594,-35.970001220703125 230.03700256347656,-55.35100173950195 224.50599670410156,-53.50600051879883 C219.25100708007812,-52.99100112915039 215.0780029296875,-50.70800018310547 210.35699462890625,-47.53499984741211 C204.6230010986328,-43.680999755859375 198.0800018310547,-38.51599884033203 187.80499267578125,-33.61399841308594 C176.29100036621094,-28.246999740600586 173.75799560546875,-25.336999893188477 161.3489990234375,-22.611000061035156 C155.10000610351562,-19.820999145507812 135.3159942626953,-17.18000030517578 125.96600341796875,-15.156999588012695 C121.40899658203125,-14.170999526977539 112.81999969482422,-12.151000022888184 105.15399932861328,-10.4350004196167 C98.71299743652344,-8.993000030517578 92.9229965209961,-7.767000198364258 90.72100067138672,-7.547999858856201 C70.29299926757812,-2.9539999961853027 46.87099838256836,-8.262999534606934 25.753000259399414,-4.164000034332275 C15.62399959564209,-2.2209999561309814 -15.656999588012695,-14.10200023651123 -29.579999923706055,-14.82699966430664 C-53.80500030517578,-15.052000045776367 -62.28499984741211,-18.448999404907227 -87.44999694824219,-20.226999282836914 C-112.4520034790039,-24.298999786376953 -148.10899353027344,-25.92799949645996 -171.86700439453125,-18.875 C-186.62100219726562,-17.406999588012695 -196.72300720214844,-12.694000244140625 -205.9219970703125,-6.586999893188477 C-213.6719970703125,-1.4420000314712524 -220.7830047607422,4.690999984741211 -229.4949951171875,10.704999923706055 C-233.593994140625,15.793000221252441 -245.58700561523438,20.893999099731445 -245.56300354003906,29.336999893188477 C-245.8520050048828,33.630001068115234 -235.2100067138672,47.75600051879883 -228.79299926757812,53.39099884033203 C-225.20700073242188,56.69499969482422 -220.31300354003906,51.45800018310547 -217.71099853515625,48.393001556396484 C-211.97500610351562,41.07699966430664 -209.11199951171875,34.165000915527344 -198.5709991455078,29.149999618530273 C-189.02499389648438,26.875999450683594 -185.1580047607422,19.576000213623047 -174.76800537109375,16.097000122070312 C-152.9290008544922,11.204999923706055 -140.0030059814453,9.656000137329102 -115.71499633789062,12.177000045776367 C-96.4469985961914,12.652000427246094 -58.07699966430664,18.233999252319336 -46.74399948120117,19.50200080871582 C-35.777000427246094,19.882999420166016 -22.85300064086914,21.729999542236328 -9.965999603271484,23.628999710083008 C-2.4240000247955322,24.739999771118164 5.105999946594238,25.8700008392334 12.222999572753906,26.733999252319336 C17.655000686645508,27.39299964904785 22.84600067138672,27.898000717163086 27.6200008392334,28.121999740600586 C39.27199935913086,33.12300109863281 73.99800109863281,26.917999267578125 87.63300323486328,27.878000259399414 C93.39900207519531,28.284000396728516 109.75499725341797,23.20800018310547 115.15399932861328,23.4950008392334 C133.38699340820312,25.52400016784668 138.26600646972656,20.46299934387207 155.7030029296875,16.624000549316406 C168.83799743652344,15.616000175476074 181.33299255371094,14.140999794006348 189.6959991455078,9.39900016784668 C202.95700073242188,2.5899999141693115 221.3979949951172,-3.7690000534057617 232.0780029296875,-12.809000015258789 C239.09300231933594,-17.666000366210938 246.7270050048828,-27.731000900268555 239.697998046875,-31.336999893188477z"></path></g></g><g transform="matrix(1,0,0,1,284,298)" opacity="1" style="display: block;"><g opacity="1" transform="matrix(1,0,0,1,0,-107.80000305175781)"><path fill="#792F6B" fill-opacity="1" d=" M239.697998046875,-31.336999893188477 C229.73899841308594,-35.970001220703125 230.03700256347656,-55.35100173950195 224.50599670410156,-53.50600051879883 C219.25100708007812,-52.99100112915039 215.0780029296875,-50.70800018310547 210.35699462890625,-47.53499984741211 C204.6230010986328,-43.680999755859375 198.0800018310547,-38.51599884033203 187.80499267578125,-33.61399841308594 C176.29100036621094,-28.246999740600586 173.75799560546875,-25.336999893188477 161.3489990234375,-22.611000061035156 C155.10000610351562,-19.820999145507812 135.3159942626953,-17.18000030517578 125.96600341796875,-15.156999588012695 C121.40899658203125,-14.170999526977539 112.81999969482422,-12.151000022888184 105.15399932861328,-10.4350004196167 C98.71299743652344,-8.993000030517578 92.9229965209961,-7.767000198364258 90.72100067138672,-7.547999858856201 C70.29299926757812,-2.9539999961853027 46.87099838256836,-8.262999534606934 25.753000259399414,-4.164000034332275 C15.62399959564209,-2.2209999561309814 -15.656999588012695,-14.10200023651123 -29.579999923706055,-14.82699966430664 C-53.80500030517578,-15.052000045776367 -62.28499984741211,-18.448999404907227 -87.44999694824219,-20.226999282836914 C-112.4520034790039,-24.298999786376953 -148.10899353027344,-25.92799949645996 -171.86700439453125,-18.875 C-186.62100219726562,-17.406999588012695 -196.72300720214844,-12.694000244140625 -205.9219970703125,-6.586999893188477 C-213.6719970703125,-1.4420000314712524 -220.7830047607422,4.690999984741211 -229.4949951171875,10.704999923706055 C-233.593994140625,15.793000221252441 -245.58700561523438,20.893999099731445 -245.56300354003906,29.336999893188477 C-245.8520050048828,33.630001068115234 -235.2100067138672,47.75600051879883 -228.79299926757812,53.39099884033203 C-225.20700073242188,56.69499969482422 -220.31300354003906,51.45800018310547 -217.71099853515625,48.393001556396484 C-211.97500610351562,41.07699966430664 -209.11199951171875,34.165000915527344 -198.5709991455078,29.149999618530273 C-189.02499389648438,26.875999450683594 -185.1580047607422,19.576000213623047 -174.76800537109375,16.097000122070312 C-152.9290008544922,11.204999923706055 -140.0030059814453,9.656000137329102 -115.71499633789062,12.177000045776367 C-96.4469985961914,12.652000427246094 -58.07699966430664,18.233999252319336 -46.74399948120117,19.50200080871582 C-35.777000427246094,19.882999420166016 -22.85300064086914,21.729999542236328 -9.965999603271484,23.628999710083008 C-2.4240000247955322,24.739999771118164 5.105999946594238,25.8700008392334 12.222999572753906,26.733999252319336 C17.655000686645508,27.39299964904785 22.84600067138672,27.898000717163086 27.6200008392334,28.121999740600586 C39.27199935913086,33.12300109863281 73.99800109863281,26.917999267578125 87.63300323486328,27.878000259399414 C93.39900207519531,28.284000396728516 109.75499725341797,23.20800018310547 115.15399932861328,23.4950008392334 C133.38699340820312,25.52400016784668 138.26600646972656,20.46299934387207 155.7030029296875,16.624000549316406 C168.83799743652344,15.616000175476074 181.33299255371094,14.140999794006348 189.6959991455078,9.39900016784668 C202.95700073242188,2.5899999141693115 221.3979949951172,-3.7690000534057617 232.0780029296875,-12.809000015258789 C239.09300231933594,-17.666000366210938 246.7270050048828,-27.731000900268555 239.697998046875,-31.336999893188477z"></path><path stroke-linecap="butt" stroke-linejoin="miter" fill-opacity="0" stroke-miterlimit="4" stroke="#000000" stroke-opacity="1" stroke-width="0px" d=" M239.697998046875,-31.336999893188477 C229.73899841308594,-35.970001220703125 230.03700256347656,-55.35100173950195 224.50599670410156,-53.50600051879883 C219.25100708007812,-52.99100112915039 215.0780029296875,-50.70800018310547 210.35699462890625,-47.53499984741211 C204.6230010986328,-43.680999755859375 198.0800018310547,-38.51599884033203 187.80499267578125,-33.61399841308594 C176.29100036621094,-28.246999740600586 173.75799560546875,-25.336999893188477 161.3489990234375,-22.611000061035156 C155.10000610351562,-19.820999145507812 135.3159942626953,-17.18000030517578 125.96600341796875,-15.156999588012695 C121.40899658203125,-14.170999526977539 112.81999969482422,-12.151000022888184 105.15399932861328,-10.4350004196167 C98.71299743652344,-8.993000030517578 92.9229965209961,-7.767000198364258 90.72100067138672,-7.547999858856201 C70.29299926757812,-2.9539999961853027 46.87099838256836,-8.262999534606934 25.753000259399414,-4.164000034332275 C15.62399959564209,-2.2209999561309814 -15.656999588012695,-14.10200023651123 -29.579999923706055,-14.82699966430664 C-53.80500030517578,-15.052000045776367 -62.28499984741211,-18.448999404907227 -87.44999694824219,-20.226999282836914 C-112.4520034790039,-24.298999786376953 -148.10899353027344,-25.92799949645996 -171.86700439453125,-18.875 C-186.62100219726562,-17.406999588012695 -196.72300720214844,-12.694000244140625 -205.9219970703125,-6.586999893188477 C-213.6719970703125,-1.4420000314712524 -220.7830047607422,4.690999984741211 -229.4949951171875,10.704999923706055 C-233.593994140625,15.793000221252441 -245.58700561523438,20.893999099731445 -245.56300354003906,29.336999893188477 C-245.8520050048828,33.630001068115234 -235.2100067138672,47.75600051879883 -228.79299926757812,53.39099884033203 C-225.20700073242188,56.69499969482422 -220.31300354003906,51.45800018310547 -217.71099853515625,48.393001556396484 C-211.97500610351562,41.07699966430664 -209.11199951171875,34.165000915527344 -198.5709991455078,29.149999618530273 C-189.02499389648438,26.875999450683594 -185.1580047607422,19.576000213623047 -174.76800537109375,16.097000122070312 C-152.9290008544922,11.204999923706055 -140.0030059814453,9.656000137329102 -115.71499633789062,12.177000045776367 C-96.4469985961914,12.652000427246094 -58.07699966430664,18.233999252319336 -46.74399948120117,19.50200080871582 C-35.777000427246094,19.882999420166016 -22.85300064086914,21.729999542236328 -9.965999603271484,23.628999710083008 C-2.4240000247955322,24.739999771118164 5.105999946594238,25.8700008392334 12.222999572753906,26.733999252319336 C17.655000686645508,27.39299964904785 22.84600067138672,27.898000717163086 27.6200008392334,28.121999740600586 C39.27199935913086,33.12300109863281 73.99800109863281,26.917999267578125 87.63300323486328,27.878000259399414 C93.39900207519531,28.284000396728516 109.75499725341797,23.20800018310547 115.15399932861328,23.4950008392334 C133.38699340820312,25.52400016784668 138.26600646972656,20.46299934387207 155.7030029296875,16.624000549316406 C168.83799743652344,15.616000175476074 181.33299255371094,14.140999794006348 189.6959991455078,9.39900016784668 C202.95700073242188,2.5899999141693115 221.3979949951172,-3.7690000534057617 232.0780029296875,-12.809000015258789 C239.09300231933594,-17.666000366210938 246.7270050048828,-27.731000900268555 239.697998046875,-31.336999893188477z"></path></g></g><g transform="matrix(1,0,0,0.9180999994277954,273,331)" opacity="1" style="display: block;"><g opacity="1" transform="matrix(1,0,0,1,0,0)"><path fill="#792F6B" fill-opacity="1" d=" M-221.96400451660156,-121.41699981689453 C-222.2310028076172,-120.83699798583984 -226.1320037841797,-122.5199966430664 -229.4709930419922,-123.68299865722656 C-232.6510009765625,-124.79100036621094 -235.3209991455078,-125.427001953125 -233.85899353027344,-123.18699645996094 C-233.8489990234375,-123.09700012207031 -235.6179962158203,-104.8290023803711 -235.7449951171875,-104.08699798583984 C-235.85800170898438,-103.43099975585938 -236.79400634765625,-82.8270034790039 -236.53900146484375,-81.65899658203125 C-236.02200317382812,-76.52200317382812 -237.93699645996094,-48.242000579833984 -236.98500061035156,-42.43299865722656 C-234.81300354003906,-29.18600082397461 -235.84500122070312,-24.999000549316406 -237.13699340820312,-11.680999755859375 C-238.3419952392578,0.7440000176429749 -237.5,14.704999923706055 -239.01600646972656,25.82900047302246 C-237.4949951171875,30.67099952697754 -237.82000732421875,47.185001373291016 -239.50399780273438,56.20000076293945 C-239.68299865722656,65.05699920654297 -240.15899658203125,73.9280014038086 -240.4949951171875,82.79900360107422 C-240.8040008544922,90.97000122070312 -241.49400329589844,92.06199645996094 -241.2239990234375,100.2239990234375 C-240.44900512695312,104.0459976196289 -240.08399963378906,113.68399810791016 -241.50399780273438,115.802001953125 C-241.56199645996094,116.05699920654297 -240.802001953125,125.26599884033203 -240.79800415039062,125.31500244140625 C-241.07699584960938,126.00800323486328 -233.18600463867188,140.15699768066406 -229.83299255371094,144.82000732421875 C-228.50900268554688,146.66099548339844 -217.38600158691406,160.89199829101562 -215.45599365234375,161.02099609375 C-214.156005859375,161.10800170898438 -201.4010009765625,146.93099975585938 -202.10800170898438,146.2310028076172 C-202.43600463867188,145.906005859375 -200.10000610351562,129.54100036621094 -200.16600036621094,128.4530029296875 C-200.1739959716797,124.04900360107422 -201.125,105.60700225830078 -201.23699951171875,98.26799774169922 C-202.5,92.58300018310547 -202.4219970703125,89.38099670410156 -201.8280029296875,78.31199645996094 C-201.29800415039062,68.4229965209961 -201.33599853515625,65.26300048828125 -200.8699951171875,55.3650016784668 C-200.58399963378906,49.29899978637695 -200.45799255371094,37.305999755859375 -201.2259979248047,31.423999786376953 C-202.156005859375,24.304000854492188 -200.78399658203125,17.08099937438965 -199.88299560546875,10.032999992370605 C-198.49600219726562,-0.8230000138282776 -197.84800720214844,-11.949999809265137 -198.15899658203125,-23.02400016784668 C-198.2689971923828,-26.93899917602539 -199.7259979248047,-42.63199996948242 -200.3719940185547,-46.53300094604492 C-201.9720001220703,-56.20100021362305 -199.45899963378906,-66.1760025024414 -198.74600219726562,-75.8219985961914 C-198.66200256347656,-76.95999908447266 -195.9199981689453,-121.61299896240234 -195.7429962158203,-122.22200012207031 C-195.20199584960938,-124.08799743652344 -221.96400451660156,-121.41699981689453 -221.96400451660156,-121.41699981689453z"></path><path stroke-linecap="butt" stroke-linejoin="miter" fill-opacity="0" stroke-miterlimit="4" stroke="#000000" stroke-opacity="1" stroke-width="0px" d=" M-221.96400451660156,-121.41699981689453 C-222.2310028076172,-120.83699798583984 -226.1320037841797,-122.5199966430664 -229.4709930419922,-123.68299865722656 C-232.6510009765625,-124.79100036621094 -235.3209991455078,-125.427001953125 -233.85899353027344,-123.18699645996094 C-233.8489990234375,-123.09700012207031 -235.6179962158203,-104.8290023803711 -235.7449951171875,-104.08699798583984 C-235.85800170898438,-103.43099975585938 -236.79400634765625,-82.8270034790039 -236.53900146484375,-81.65899658203125 C-236.02200317382812,-76.52200317382812 -237.93699645996094,-48.242000579833984 -236.98500061035156,-42.43299865722656 C-234.81300354003906,-29.18600082397461 -235.84500122070312,-24.999000549316406 -237.13699340820312,-11.680999755859375 C-238.3419952392578,0.7440000176429749 -237.5,14.704999923706055 -239.01600646972656,25.82900047302246 C-237.4949951171875,30.67099952697754 -237.82000732421875,47.185001373291016 -239.50399780273438,56.20000076293945 C-239.68299865722656,65.05699920654297 -240.15899658203125,73.9280014038086 -240.4949951171875,82.79900360107422 C-240.8040008544922,90.97000122070312 -241.49400329589844,92.06199645996094 -241.2239990234375,100.2239990234375 C-240.44900512695312,104.0459976196289 -240.08399963378906,113.68399810791016 -241.50399780273438,115.802001953125 C-241.56199645996094,116.05699920654297 -240.802001953125,125.26599884033203 -240.79800415039062,125.31500244140625 C-241.07699584960938,126.00800323486328 -233.18600463867188,140.15699768066406 -229.83299255371094,144.82000732421875 C-228.50900268554688,146.66099548339844 -217.38600158691406,160.89199829101562 -215.45599365234375,161.02099609375 C-214.156005859375,161.10800170898438 -201.4010009765625,146.93099975585938 -202.10800170898438,146.2310028076172 C-202.43600463867188,145.906005859375 -200.10000610351562,129.54100036621094 -200.16600036621094,128.4530029296875 C-200.1739959716797,124.04900360107422 -201.125,105.60700225830078 -201.23699951171875,98.26799774169922 C-202.5,92.58300018310547 -202.4219970703125,89.38099670410156 -201.8280029296875,78.31199645996094 C-201.29800415039062,68.4229965209961 -201.33599853515625,65.26300048828125 -200.8699951171875,55.3650016784668 C-200.58399963378906,49.29899978637695 -200.45799255371094,37.305999755859375 -201.2259979248047,31.423999786376953 C-202.156005859375,24.304000854492188 -200.78399658203125,17.08099937438965 -199.88299560546875,10.032999992370605 C-198.49600219726562,-0.8230000138282776 -197.84800720214844,-11.949999809265137 -198.15899658203125,-23.02400016784668 C-198.2689971923828,-26.93899917602539 -199.7259979248047,-42.63199996948242 -200.3719940185547,-46.53300094604492 C-201.9720001220703,-56.20100021362305 -199.45899963378906,-66.1760025024414 -198.74600219726562,-75.8219985961914 C-198.66200256347656,-76.95999908447266 -195.9199981689453,-121.61299896240234 -195.7429962158203,-122.22200012207031 C-195.20199584960938,-124.08799743652344 -221.96400451660156,-121.41699981689453 -221.96400451660156,-121.41699981689453z"></path></g></g><g transform="matrix(1,0,0,0.9584900140762329,526,275)" opacity="1" style="display: block;"><g opacity="1" transform="matrix(1,0,0,1,0,0)"><path fill="#792F6B" fill-opacity="1" d=" M-17.804000854492188,144.93800354003906 C-17.63800048828125,144.53500366210938 -11.152000427246094,140.91700744628906 -4.343999862670898,138.45599365234375 C-0.6759999990463257,137.1300048828125 3.0850000381469727,136.14100646972656 6,136.17100524902344 C13.644000053405762,136.25100708007812 21.533000946044922,128.56500244140625 20.040000915527344,126.3280029296875 C19.099000930786133,119.39900207519531 20.677000045776367,118.10099792480469 21.468000411987305,115.33799743652344 C22.031999588012695,113.36699676513672 22.19499969482422,110.64900207519531 20.756999969482422,104.60900115966797 C19.34000015258789,93.09300231933594 22.89900016784668,82.38200378417969 20.8439998626709,71.25499725341797 C18.319000244140625,57.58399963378906 17.993000030517578,43.643001556396484 18.929000854492188,29.798999786376953 C19.33799934387207,23.742000579833984 20.45400047302246,17.593000411987305 21.101999282836914,11.461000442504883 C21.836000442504883,4.517000198364258 21.972000122070312,-2.4049999713897705 19.80699920654297,-9.142000198364258 C18.156999588012695,-14.118000030517578 18.040000915527344,-31.24799919128418 19.482999801635742,-40.643001556396484 C19.371999740600586,-58.292999267578125 20.35700035095215,-76.02799987792969 19.339000701904297,-93.65899658203125 C18.46299934387207,-97.5989990234375 18.527999877929688,-100.25399780273438 19.891000747680664,-102.49099731445312 C22.125999450683594,-114.1259994506836 15.043999671936035,-125.43299865722656 18.54199981689453,-137.18299865722656 C19.465999603271484,-139.76199340820312 22.475000381469727,-155.81700134277344 18.12700080871582,-157.44000244140625 C16.121000289916992,-158.18899536132812 11.256999969482422,-155.9510040283203 5.36899995803833,-153.24099731445312 C2.496000051498413,-151.91900634765625 -0.6200000047683716,-150.48399353027344 -3.7679998874664307,-149.22900390625 C-5.748000144958496,-148.44000244140625 -7.739999771118164,-147.7220001220703 -9.690999984741211,-147.14700317382812 C-12.064000129699707,-146.447998046875 -14.378000259399414,-145.96200561523438 -16.535999298095703,-145.8179931640625 C-26.159000396728516,-145.177001953125 -22.299999237060547,-138.20399475097656 -20.905000686645508,-136.84500122070312 C-19.510000228881836,-135.48699951171875 -21.888999938964844,-127.64299774169922 -21.48900032043457,-122.90499877929688 C-21.25200080871582,-114.26100158691406 -25.812000274658203,-105.27799987792969 -20.743000030517578,-96.69400024414062 C-24.7810001373291,-85.3030014038086 -18.472000122070312,-73.97799682617188 -18.770000457763672,-62.486000061035156 C-19.035999298095703,-52.21799850463867 -21.23699951171875,-42.09600067138672 -21.43899917602539,-31.82200050354004 C-21.562000274658203,-25.524999618530273 -19.04599952697754,-19.93400001525879 -18.121000289916992,-13.857999801635742 C-17.000999450683594,-6.502999782562256 -18.179000854492188,1.0240000486373901 -18.891000747680664,8.357000350952148 C-19.763999938964844,17.347999572753906 -20.165000915527344,26.503999710083008 -19.986000061035156,35.6510009765625 C-19.780000686645508,46.19499969482422 -18.80299949645996,56.72800064086914 -16.89299964904785,66.98600006103516 C-15.03499984741211,76.96399688720703 -17.281999588012695,87.3759994506836 -17.736000061035156,97.39700317382812 C-18.382999420166016,111.62799835205078 -11.616999626159668,113.5510025024414 -15.116000175476074,127.43599700927734 C-15.475000381469727,128.86000061035156 -15.934000015258789,131.60800170898438 -16.371000289916992,134.51199340820312 C-16.676000595092773,136.54100036621094 -16.969999313354492,138.64599609375 -17.211999893188477,140.4290008544922 C-17.365999221801758,141.56399536132812 -17.499000549316406,142.5679931640625 -17.599000930786133,143.33900451660156 C-17.72800064086914,144.33200073242188 -17.804000854492188,144.93800354003906 -17.804000854492188,144.93800354003906z"></path><path stroke-linecap="butt" stroke-linejoin="miter" fill-opacity="0" stroke-miterlimit="4" stroke="#000000" stroke-opacity="1" stroke-width="0px" d=" M-17.804000854492188,144.93800354003906 C-17.63800048828125,144.53500366210938 -11.152000427246094,140.91700744628906 -4.343999862670898,138.45599365234375 C-0.6759999990463257,137.1300048828125 3.0850000381469727,136.14100646972656 6,136.17100524902344 C13.644000053405762,136.25100708007812 21.533000946044922,128.56500244140625 20.040000915527344,126.3280029296875 C19.099000930786133,119.39900207519531 20.677000045776367,118.10099792480469 21.468000411987305,115.33799743652344 C22.031999588012695,113.36699676513672 22.19499969482422,110.64900207519531 20.756999969482422,104.60900115966797 C19.34000015258789,93.09300231933594 22.89900016784668,82.38200378417969 20.8439998626709,71.25499725341797 C18.319000244140625,57.58399963378906 17.993000030517578,43.643001556396484 18.929000854492188,29.798999786376953 C19.33799934387207,23.742000579833984 20.45400047302246,17.593000411987305 21.101999282836914,11.461000442504883 C21.836000442504883,4.517000198364258 21.972000122070312,-2.4049999713897705 19.80699920654297,-9.142000198364258 C18.156999588012695,-14.118000030517578 18.040000915527344,-31.24799919128418 19.482999801635742,-40.643001556396484 C19.371999740600586,-58.292999267578125 20.35700035095215,-76.02799987792969 19.339000701904297,-93.65899658203125 C18.46299934387207,-97.5989990234375 18.527999877929688,-100.25399780273438 19.891000747680664,-102.49099731445312 C22.125999450683594,-114.1259994506836 15.043999671936035,-125.43299865722656 18.54199981689453,-137.18299865722656 C19.465999603271484,-139.76199340820312 22.475000381469727,-155.81700134277344 18.12700080871582,-157.44000244140625 C16.121000289916992,-158.18899536132812 11.256999969482422,-155.9510040283203 5.36899995803833,-153.24099731445312 C2.496000051498413,-151.91900634765625 -0.6200000047683716,-150.48399353027344 -3.7679998874664307,-149.22900390625 C-5.748000144958496,-148.44000244140625 -7.739999771118164,-147.7220001220703 -9.690999984741211,-147.14700317382812 C-12.064000129699707,-146.447998046875 -14.378000259399414,-145.96200561523438 -16.535999298095703,-145.8179931640625 C-26.159000396728516,-145.177001953125 -22.299999237060547,-138.20399475097656 -20.905000686645508,-136.84500122070312 C-19.510000228881836,-135.48699951171875 -21.888999938964844,-127.64299774169922 -21.48900032043457,-122.90499877929688 C-21.25200080871582,-114.26100158691406 -25.812000274658203,-105.27799987792969 -20.743000030517578,-96.69400024414062 C-24.7810001373291,-85.3030014038086 -18.472000122070312,-73.97799682617188 -18.770000457763672,-62.486000061035156 C-19.035999298095703,-52.21799850463867 -21.23699951171875,-42.09600067138672 -21.43899917602539,-31.82200050354004 C-21.562000274658203,-25.524999618530273 -19.04599952697754,-19.93400001525879 -18.121000289916992,-13.857999801635742 C-17.000999450683594,-6.502999782562256 -18.179000854492188,1.0240000486373901 -18.891000747680664,8.357000350952148 C-19.763999938964844,17.347999572753906 -20.165000915527344,26.503999710083008 -19.986000061035156,35.6510009765625 C-19.780000686645508,46.19499969482422 -18.80299949645996,56.72800064086914 -16.89299964904785,66.98600006103516 C-15.03499984741211,76.96399688720703 -17.281999588012695,87.3759994506836 -17.736000061035156,97.39700317382812 C-18.382999420166016,111.62799835205078 -11.616999626159668,113.5510025024414 -15.116000175476074,127.43599700927734 C-15.475000381469727,128.86000061035156 -15.934000015258789,131.60800170898438 -16.371000289916992,134.51199340820312 C-16.676000595092773,136.54100036621094 -16.969999313354492,138.64599609375 -17.211999893188477,140.4290008544922 C-17.365999221801758,141.56399536132812 -17.499000549316406,142.5679931640625 -17.599000930786133,143.33900451660156 C-17.72800064086914,144.33200073242188 -17.804000854492188,144.93800354003906 -17.804000854492188,144.93800354003906z"></path></g></g><g transform="matrix(1,0,0,1,303.5,316)" opacity="1" style="display: block;"><g opacity="1" transform="matrix(1,0,0,1,0,0.31200000643730164)"><path fill="#792F6B" fill-opacity="1" d=" M32.472999572753906,-55.54100036621094 C32.472999572753906,-55.54100036621094 35.527000427246094,-61.441001892089844 38.32899856567383,-65.17500305175781 C41.17599868774414,-68.85099792480469 43.191001892089844,-73.9260025024414 39.047000885009766,-74.72599792480469 C37.01900100708008,-75.10800170898438 32.22700119018555,-77.7959976196289 26.923999786376953,-79.97100067138672 C21.64900016784668,-82.18599700927734 15.897000312805176,-83.83399963378906 13.170999526977539,-83.9540023803711 C10.46399974822998,-84.0999984741211 3.9089999198913574,-85.20500183105469 -3.5390000343322754,-84.9260025024414 C-10.97599983215332,-84.76000213623047 -19.26799964904785,-83.34200286865234 -24.9060001373291,-80.9520034790039 C-30.378999710083008,-78.74800109863281 -36.11600112915039,-76.71600341796875 -41.57699966430664,-74.16300201416016 C-47.06800079345703,-71.59700012207031 -52.279998779296875,-68.50399780273438 -56.6619987487793,-64.18299865722656 C-58.694000244140625,-61.983001708984375 -61.624000549316406,-61.12799835205078 -63.77399826049805,-59.21099853515625 C-64.06400299072266,-58.952999114990234 -64.33999633789062,-58.67499923706055 -64.59700012207031,-58.37200164794922 C-65.68599700927734,-57.470001220703125 -74.58999633789062,-42.79600143432617 -75.59100341796875,-40.75299835205078 C-79.05000305175781,-34.430999755859375 -82.21499633789062,-26.43899917602539 -83.4000015258789,-19.350000381469727 C-84.83300018310547,-12.32800006866455 -85.05500030517578,-6.48199987411499 -85.29100036621094,-4.505000114440918 C-85.78700256347656,-1.5950000286102295 -85.875,1.3869999647140503 -85.54900360107422,4.348999977111816 C-85.4000015258789,7.320000171661377 -84.94200134277344,10.25100040435791 -84.34400177001953,13.133000373840332 C-83.17400360107422,20.118000030517578 -81.53399658203125,27.301000595092773 -79.0719985961914,34.26100158691406 C-76.18800354003906,42.41699981689453 -72.1760025024414,50.266998291015625 -66.47899627685547,57.137001037597656 C-63.2599983215332,61.020999908447266 -59.60200119018555,64.62799835205078 -55.54999923706055,67.67900085449219 C-51.82099914550781,70.48699951171875 -47.75899887084961,72.8219985961914 -43.39899826049805,74.46499633789062 C-39.25400161743164,75.98500061035156 -30.753999710083008,80.29000091552734 -20.46299934387207,82.47000122070312 C-10.258000373840332,84.90499877929688 1.3300000429153442,85.20500183105469 9.725000381469727,84.14099884033203 C9.885000228881836,84.18599700927734 10.02299976348877,84.29000091552734 10.194000244140625,84.30999755859375 C12.236000061035156,84.71900177001953 24.26099967956543,82.50199890136719 35.042999267578125,76.88500213623047 C45.99399948120117,71.5459976196289 54.84700012207031,63.016998291015625 56.79600143432617,61.47600173950195 C58.83599853515625,59.99800109863281 64.22899627685547,54.80699920654297 69.05000305175781,48.108001708984375 C73.73799896240234,41.31999969482422 77.48899841308594,33.01599884033203 78.7300033569336,27.565000534057617 C79.97100067138672,22.24799919128418 80.93000030517578,18.52199935913086 81.58799743652344,16.08099937438965 C82.19599914550781,13.628999710083008 82.70800018310547,12.494999885559082 82.74500274658203,12.416000366210938 C85.375,6.675000190734863 83.21399688720703,-0.08299999684095383 83.09500122070312,-6.008999824523926 C83.00800323486328,-9.942000389099121 79.53099822998047,-23.7549991607666 78.25700378417969,-26.90399932861328 C76.64099884033203,-30.899999618530273 74.80899810791016,-34.7239990234375 72.85399627685547,-38.775001525878906 C71.7020034790039,-41.1619987487793 70.50800323486328,-43.62699890136719 69.29100036621094,-46.250999450683594 C67.37799835205078,-50.41999816894531 63.81999969482422,-55.875 59.83000183105469,-56.02899932861328 C57.948001861572266,-56.13399887084961 55.36600112915039,-54.57899856567383 52.62799835205078,-52.23699951171875 C49.55699920654297,-49.61000061035156 46.28900146484375,-45.99300003051758 43.58700180053711,-42.612998962402344 C39.84299850463867,-37.83700180053711 46.7239990234375,-32.99800109863281 48.32400131225586,-31.834999084472656 C50.180999755859375,-30.945999145507812 53.388999938964844,-21.538999557495117 54.915000915527344,-15.996000289916992 C57.172000885009766,-9.12600040435791 56.22999954223633,-1.1540000438690186 55.50899887084961,5.872000217437744 C55.069000244140625,9.08899974822998 55.9370002746582,12.57800006866455 55.297000885009766,15.916999816894531 C54.85499954223633,17.2189998626709 54.34199905395508,18.492000579833984 53.63800048828125,19.687000274658203 C51.27399826049805,24.714000701904297 48.36399841308594,30.115999221801758 45.724998474121094,35.013999938964844 C44.09299850463867,37.96699905395508 42.27899932861328,40.67499923706055 40.172000885009766,43.12900161743164 C37.81399917602539,45.87699890136719 35.0880012512207,48.30699920654297 31.841999053955078,50.40800094604492 C20.58099937438965,57.56700134277344 6.125999927520752,60.369998931884766 -6.788000106811523,58.20100021362305 C-10.593999862670898,57.672000885009766 -15.60200023651123,57.28300094604492 -20.37299919128418,56.54899978637695 C-25.100000381469727,55.744998931884766 -29.51300048828125,54.54600143432617 -31.826000213623047,53.71500015258789 C-38.117000579833984,51.33300018310547 -42.736000061035156,46.332000732421875 -46.374000549316406,40.9109992980957 C-47.58100128173828,39.11199951171875 -48.680999755859375,37.26599884033203 -49.696998596191406,35.45500183105469 C-53.86399841308594,28.148000717163086 -58.42900085449219,20.937999725341797 -60.19200134277344,12.536999702453613 C-61.3120002746582,6.520999908447266 -61.39500045776367,0.3619999885559082 -60.904998779296875,-5.7170000076293945 C-60.13100051879883,-11.015999794006348 -59.465999603271484,-16.382999420166016 -57.72200012207031,-21.547000885009766 C-57.59199905395508,-21.979999542236328 -57.457000732421875,-22.413000106811523 -57.31700134277344,-22.844999313354492 C-56.560001373291016,-25.17300033569336 -55.650001525878906,-27.475000381469727 -54.62300109863281,-29.72800064086914 C-52.9109992980957,-34.3849983215332 -46.74399948120117,-42.63600158691406 -42.1150016784668,-44.56800079345703 C-34.71699905395508,-47.749000549316406 -33.8120002746582,-50.729000091552734 -26.601999282836914,-54.15700149536133 C-22.386999130249023,-56.053001403808594 -16.572999954223633,-57.665000915527344 -11.277999877929688,-58.15999984741211 C-6.019000053405762,-58.87799835205078 -1.3339999914169312,-58.768001556396484 0.7459999918937683,-59.374000549316406 C2.825000047683716,-59.970001220703125 8.286999702453613,-59.66600036621094 13.54800033569336,-58.11800003051758 C18.839000701904297,-56.65700149536133 23.75,-53.97700119018555 25.690000534057617,-52.54899978637695 C29.490999221801758,-49.6879997253418 32.472999572753906,-55.54100036621094 32.472999572753906,-55.54100036621094z"></path><path stroke-linecap="butt" stroke-linejoin="miter" fill-opacity="0" stroke-miterlimit="4" stroke="#000000" stroke-opacity="1" stroke-width="0px" d=" M32.472999572753906,-55.54100036621094 C32.472999572753906,-55.54100036621094 35.527000427246094,-61.441001892089844 38.32899856567383,-65.17500305175781 C41.17599868774414,-68.85099792480469 43.191001892089844,-73.9260025024414 39.047000885009766,-74.72599792480469 C37.01900100708008,-75.10800170898438 32.22700119018555,-77.7959976196289 26.923999786376953,-79.97100067138672 C21.64900016784668,-82.18599700927734 15.897000312805176,-83.83399963378906 13.170999526977539,-83.9540023803711 C10.46399974822998,-84.0999984741211 3.9089999198913574,-85.20500183105469 -3.5390000343322754,-84.9260025024414 C-10.97599983215332,-84.76000213623047 -19.26799964904785,-83.34200286865234 -24.9060001373291,-80.9520034790039 C-30.378999710083008,-78.74800109863281 -36.11600112915039,-76.71600341796875 -41.57699966430664,-74.16300201416016 C-47.06800079345703,-71.59700012207031 -52.279998779296875,-68.50399780273438 -56.6619987487793,-64.18299865722656 C-58.694000244140625,-61.983001708984375 -61.624000549316406,-61.12799835205078 -63.77399826049805,-59.21099853515625 C-64.06400299072266,-58.952999114990234 -64.33999633789062,-58.67499923706055 -64.59700012207031,-58.37200164794922 C-65.68599700927734,-57.470001220703125 -74.58999633789062,-42.79600143432617 -75.59100341796875,-40.75299835205078 C-79.05000305175781,-34.430999755859375 -82.21499633789062,-26.43899917602539 -83.4000015258789,-19.350000381469727 C-84.83300018310547,-12.32800006866455 -85.05500030517578,-6.48199987411499 -85.29100036621094,-4.505000114440918 C-85.78700256347656,-1.5950000286102295 -85.875,1.3869999647140503 -85.54900360107422,4.348999977111816 C-85.4000015258789,7.320000171661377 -84.94200134277344,10.25100040435791 -84.34400177001953,13.133000373840332 C-83.17400360107422,20.118000030517578 -81.53399658203125,27.301000595092773 -79.0719985961914,34.26100158691406 C-76.18800354003906,42.41699981689453 -72.1760025024414,50.266998291015625 -66.47899627685547,57.137001037597656 C-63.2599983215332,61.020999908447266 -59.60200119018555,64.62799835205078 -55.54999923706055,67.67900085449219 C-51.82099914550781,70.48699951171875 -47.75899887084961,72.8219985961914 -43.39899826049805,74.46499633789062 C-39.25400161743164,75.98500061035156 -30.753999710083008,80.29000091552734 -20.46299934387207,82.47000122070312 C-10.258000373840332,84.90499877929688 1.3300000429153442,85.20500183105469 9.725000381469727,84.14099884033203 C9.885000228881836,84.18599700927734 10.02299976348877,84.29000091552734 10.194000244140625,84.30999755859375 C12.236000061035156,84.71900177001953 24.26099967956543,82.50199890136719 35.042999267578125,76.88500213623047 C45.99399948120117,71.5459976196289 54.84700012207031,63.016998291015625 56.79600143432617,61.47600173950195 C58.83599853515625,59.99800109863281 64.22899627685547,54.80699920654297 69.05000305175781,48.108001708984375 C73.73799896240234,41.31999969482422 77.48899841308594,33.01599884033203 78.7300033569336,27.565000534057617 C79.97100067138672,22.24799919128418 80.93000030517578,18.52199935913086 81.58799743652344,16.08099937438965 C82.19599914550781,13.628999710083008 82.70800018310547,12.494999885559082 82.74500274658203,12.416000366210938 C85.375,6.675000190734863 83.21399688720703,-0.08299999684095383 83.09500122070312,-6.008999824523926 C83.00800323486328,-9.942000389099121 79.53099822998047,-23.7549991607666 78.25700378417969,-26.90399932861328 C76.64099884033203,-30.899999618530273 74.80899810791016,-34.7239990234375 72.85399627685547,-38.775001525878906 C71.7020034790039,-41.1619987487793 70.50800323486328,-43.62699890136719 69.29100036621094,-46.250999450683594 C67.37799835205078,-50.41999816894531 63.81999969482422,-55.875 59.83000183105469,-56.02899932861328 C57.948001861572266,-56.13399887084961 55.36600112915039,-54.57899856567383 52.62799835205078,-52.23699951171875 C49.55699920654297,-49.61000061035156 46.28900146484375,-45.99300003051758 43.58700180053711,-42.612998962402344 C39.84299850463867,-37.83700180053711 46.7239990234375,-32.99800109863281 48.32400131225586,-31.834999084472656 C50.180999755859375,-30.945999145507812 53.388999938964844,-21.538999557495117 54.915000915527344,-15.996000289916992 C57.172000885009766,-9.12600040435791 56.22999954223633,-1.1540000438690186 55.50899887084961,5.872000217437744 C55.069000244140625,9.08899974822998 55.9370002746582,12.57800006866455 55.297000885009766,15.916999816894531 C54.85499954223633,17.2189998626709 54.34199905395508,18.492000579833984 53.63800048828125,19.687000274658203 C51.27399826049805,24.714000701904297 48.36399841308594,30.115999221801758 45.724998474121094,35.013999938964844 C44.09299850463867,37.96699905395508 42.27899932861328,40.67499923706055 40.172000885009766,43.12900161743164 C37.81399917602539,45.87699890136719 35.0880012512207,48.30699920654297 31.841999053955078,50.40800094604492 C20.58099937438965,57.56700134277344 6.125999927520752,60.369998931884766 -6.788000106811523,58.20100021362305 C-10.593999862670898,57.672000885009766 -15.60200023651123,57.28300094604492 -20.37299919128418,56.54899978637695 C-25.100000381469727,55.744998931884766 -29.51300048828125,54.54600143432617 -31.826000213623047,53.71500015258789 C-38.117000579833984,51.33300018310547 -42.736000061035156,46.332000732421875 -46.374000549316406,40.9109992980957 C-47.58100128173828,39.11199951171875 -48.680999755859375,37.26599884033203 -49.696998596191406,35.45500183105469 C-53.86399841308594,28.148000717163086 -58.42900085449219,20.937999725341797 -60.19200134277344,12.536999702453613 C-61.3120002746582,6.520999908447266 -61.39500045776367,0.3619999885559082 -60.904998779296875,-5.7170000076293945 C-60.13100051879883,-11.015999794006348 -59.465999603271484,-16.382999420166016 -57.72200012207031,-21.547000885009766 C-57.59199905395508,-21.979999542236328 -57.457000732421875,-22.413000106811523 -57.31700134277344,-22.844999313354492 C-56.560001373291016,-25.17300033569336 -55.650001525878906,-27.475000381469727 -54.62300109863281,-29.72800064086914 C-52.9109992980957,-34.3849983215332 -46.74399948120117,-42.63600158691406 -42.1150016784668,-44.56800079345703 C-34.71699905395508,-47.749000549316406 -33.8120002746582,-50.729000091552734 -26.601999282836914,-54.15700149536133 C-22.386999130249023,-56.053001403808594 -16.572999954223633,-57.665000915527344 -11.277999877929688,-58.15999984741211 C-6.019000053405762,-58.87799835205078 -1.3339999914169312,-58.768001556396484 0.7459999918937683,-59.374000549316406 C2.825000047683716,-59.970001220703125 8.286999702453613,-59.66600036621094 13.54800033569336,-58.11800003051758 C18.839000701904297,-56.65700149536133 23.75,-53.97700119018555 25.690000534057617,-52.54899978637695 C29.490999221801758,-49.6879997253418 32.472999572753906,-55.54100036621094 32.472999572753906,-55.54100036621094z"></path></g><g opacity="1" transform="matrix(1,0,0,1,0,0.31200000643730164)"><path fill="#792F6B" fill-opacity="1" d=" M21.9950008392334,14.482000350952148 C21.982999801635742,14.119999885559082 21.655000686645508,10.880000114440918 21.423999786376953,10.60200023651123 C21.382999420166016,8.342000007629395 20.97100067138672,6.675000190734863 20.327999114990234,5.326000213623047 C19.559999465942383,3.7149999141693115 18.461000442504883,2.559000015258789 17.27199935913086,1.3910000324249268 C15.654999732971191,-0.19699999690055847 14.307999610900879,-2.0759999752044678 12.413999557495117,-3.2049999237060547 C11.878000259399414,-3.5 11.621000289916992,-4.089000225067139 11.128999710083008,-4.416999816894531 C10.717000007629395,-4.693999767303467 8.486000061035156,-5.559000015258789 7.788000106811523,-5.89900016784668 C5.548999786376953,-7.0920000076293945 2.359999895095825,-8.041999816894531 1.8639999628067017,-8.364999771118164 C1.0520000457763672,-8.862000465393066 0.11800000071525574,-9.133999824523926 -0.7310000061988831,-9.508000373840332 C-2.98799991607666,-10.482999801635742 -4.927000045776367,-12.21399974822998 -6.142000198364258,-13.626999855041504 C-6.860000133514404,-14.494000434875488 -7.236999988555908,-15.166999816894531 -7.754000186920166,-16.082000732421875 C-8.446000099182129,-17.03499984741211 -7.785999774932861,-20.56100082397461 -6.017000198364258,-21.569000244140625 C-5.796999931335449,-21.63800048828125 -4.835999965667725,-22.483999252319336 -3.4040000438690186,-22.950000762939453 C-2.01200008392334,-23.461000442504883 -0.3009999990463257,-23.572999954223633 0.041999999433755875,-23.514999389648438 C0.7559999823570251,-23.476999282836914 4.302000045776367,-23.06999969482422 5.8460001945495605,-22.816999435424805 C6.796999931335449,-22.71500015258789 7.945000171661377,-22.101999282836914 7.945000171661377,-22.101999282836914 C8.27400016784668,-21.780000686645508 8.687000274658203,-21.658000946044922 9.123000144958496,-21.56100082397461 C9.59000015258789,-21.464000701904297 10.842000007629395,-20.98200035095215 11.581000328063965,-20.534000396728516 C12.85200023651123,-19.770000457763672 14.071000099182129,-19.099000930786133 15.152000427246094,-18.541000366210938 C15.63700008392334,-19.988000869750977 16.20599937438965,-21.683000564575195 16.63599967956543,-22.965999603271484 C16.916000366210938,-23.70599937438965 17.14299964904785,-24.305999755859375 17.441999435424805,-25.097000122070312 C17.652000427246094,-25.589000701904297 17.81800079345703,-25.89299964904785 18.065000534057617,-26.305999755859375 C18.45800018310547,-26.94700050354004 18.25200080871582,-27.766000747680664 18.534000396728516,-28.493999481201172 C19.084999084472656,-29.913999557495117 20.268999099731445,-30.881000518798828 19.56999969482422,-31.22599983215332 C19.476999282836914,-31.27199935913086 18.26099967956543,-32.69200134277344 17.179000854492188,-32.72999954223633 C16.56399917602539,-32.77299880981445 14.369999885559082,-34.32099914550781 13.555000305175781,-34.426998138427734 C12.789999961853027,-34.60300064086914 9.920000076293945,-35.694000244140625 8.137999534606934,-35.65700149536133 C7.333000183105469,-35.654998779296875 6.285999774932861,-35.856998443603516 5.7270002365112305,-35.97700119018555 C5.604000091552734,-36.05500030517578 5.59499979019165,-36.13199996948242 5.386000156402588,-36.06399917602539 C5.445000171661377,-36.16999816894531 5.656000137329102,-36.361000061035156 5.656000137329102,-36.361000061035156 C5.656000137329102,-36.53300094604492 5.2870001792907715,-35.89099884033203 5.295000076293945,-37.099998474121094 C5.307000160217285,-38.05099868774414 5.238999843597412,-39.16899871826172 5.179999828338623,-40.117000579833984 C5.119999885559082,-41.37300109863281 5.070000171661377,-43.051998138427734 5.114999771118164,-43.44900131225586 C5.199999809265137,-44.400001525878906 5.177000045776367,-45.327999114990234 5.14300012588501,-46.20500183105469 C4.617000102996826,-46.1870002746582 4.071000099182129,-46.167999267578125 3.6089999675750732,-46.15299987792969 C2.7009999752044678,-46.132999420166016 1.7920000553131104,-46.15299987792969 0.8669999837875366,-46.19499969482422 C-0.04399999976158142,-46.23699951171875 -0.9700000286102295,-46.30099868774414 -1.9259999990463257,-46.37099838256836 C-3.513000011444092,-46.487998962402344 -5.181000232696533,-46.62200164794922 -6.995999813079834,-46.70100021362305 C-7.013000011444092,-46.26599884033203 -7.0289998054504395,-45.86899948120117 -7.043000221252441,-45.50299835205078 C-7.111999988555908,-43.28300094604492 -7.109000205993652,-39.909000396728516 -6.807000160217285,-39.23400115966797 C-6.668000221252441,-38.65999984741211 -6.638999938964844,-37.41600036621094 -6.6539998054504395,-36.03900146484375 C-6.704999923706055,-35.1510009765625 -6.640999794006348,-35.35900115966797 -7.072000026702881,-35.39899826049805 C-7.373000144958496,-35.321998596191406 -8.489999771118164,-35.00400161743164 -9.234000205993652,-34.676998138427734 C-10.90999984741211,-34.051998138427734 -12.479000091552734,-33.10100173950195 -12.833000183105469,-32.96099853515625 C-13.583000183105469,-32.797000885009766 -16.79199981689453,-30.702999114990234 -17.739999771118164,-29.20400047302246 C-18.695999145507812,-27.819000244140625 -19.332000732421875,-27.382999420166016 -19.332000732421875,-27.382999420166016 C-20.216999053955078,-26.86400032043457 -20.256000518798828,-25.68400001525879 -20.757999420166016,-24.89900016784668 C-22.045000076293945,-22.886999130249023 -23.261999130249023,-20.283000946044922 -22.29800033569336,-17.884000778198242 C-22.118000030517578,-17.434999465942383 -22.652000427246094,-15.946999549865723 -22.621999740600586,-15.46500015258789 C-22.583999633789062,-14.85200023651123 -22.625,-13.28600025177002 -22.586999893188477,-12.67199993133545 C-22.45199966430664,-10.515000343322754 -21.805999755859375,-8.741000175476074 -20.756000518798828,-7.190999984741211 C-20.048999786376953,-6.146999835968018 -19.159000396728516,-5.203999996185303 -18.118999481201172,-4.315000057220459 C-16.469999313354492,-2.9049999713897705 -15.107999801635742,-1.1990000009536743 -13.269000053405762,-0.22699999809265137 C-12.760000228881836,0.05999999865889549 -12.501999855041504,0.6079999804496765 -12.02400016784668,0.8889999985694885 C-11.628999710083008,1.1510000228881836 -9.487000465393066,1.8869999647140503 -8.822999954223633,2.203000068664551 C-6.702000141143799,3.305000066757202 -3.6419999599456787,4.173999786376953 -3.134000062942505,4.488999843597412 C-2.378000020980835,4.941999912261963 -1.5160000324249268,5.190000057220459 -0.7149999737739563,5.5370001792907715 C1.3980000019073486,6.4710001945495605 3.0829999446868896,8.159000396728516 4.288000106811523,9.598999977111816 C5.01800012588501,10.470999717712402 5.53000020980835,11.270000457763672 6.145999908447266,12.131999969482422 C6.900000095367432,12.871999740600586 6.853000164031982,16.604000091552734 5.547999858856201,17.993999481201172 C5.320000171661377,18.104000091552734 4.677000045776367,19.179000854492188 3.562000036239624,19.99799919128418 C2.489000082015991,20.84600067138672 1.0399999618530273,21.371000289916992 0.7200000286102295,21.371999740600586 C0.4410000145435333,21.43899917602539 -3.638000011444092,21.753999710083008 -4.535999774932861,21.75200080871582 C-6.050000190734863,21.858999252319336 -6.656000137329102,21.427000045776367 -6.656000137329102,21.427000045776367 C-7.388999938964844,20.91699981689453 -8.355999946594238,21.274999618530273 -9.156000137329102,20.9950008392334 C-11.166999816894531,20.290000915527344 -12.991999626159668,20.332000732421875 -14.6899995803833,18.923999786376953 C-15.180999755859375,18.506999969482422 -15.810999870300293,17.95599937438965 -16.472000122070312,18.26799964904785 C-17.270000457763672,18.645000457763672 -18.665000915527344,16.791000366210938 -19.4689998626709,17.027999877929688 C-19.893999099731445,17.152999877929688 -21.41900062561035,18.909000396728516 -21.298999786376953,19.90999984741211 C-21.250999450683594,20.44700050354004 -21.990999221801758,21.902999877929688 -22.447999954223633,23.02899932861328 C-22.597000122070312,23.39699935913086 -22.715999603271484,23.729000091552734 -22.76799964904785,23.982999801635742 C-22.951000213623047,24.756999969482422 -23.71500015258789,26.618999481201172 -24.14299964904785,28.584999084472656 C-22.795000076293945,29.534000396728516 -20.850000381469727,30.75200080871582 -19.625999450683594,31.27899932861328 C-19.368999481201172,31.389999389648438 -19.145000457763672,31.4689998626709 -18.964000701904297,31.510000228881836 C-16.979000091552734,32.1150016784668 -15.199999809265137,33.24100112915039 -13.177000045776367,33.56700134277344 C-12.609000205993652,33.643001556396484 -12.194999694824219,34.11000061035156 -11.651000022888184,34.2140007019043 C-11.20199966430664,34.33599853515625 -8.918999671936035,34.33599853515625 -8.168000221252441,34.41299819946289 C-7.459000110626221,34.5 -7.672999858856201,34.417999267578125 -7.302000045776367,34.387001037597656 C-7.2179999351501465,34.54600143432617 -7.160999774932861,34.810001373291016 -7.206999778747559,34.88600158691406 C-7.339000225067139,35.327999114990234 -7.214000225067139,36.61899948120117 -7.183000087738037,37.435001373291016 C-7.127999782562256,38.55099868774414 -7.372000217437744,41.96500015258789 -7.568999767303467,45.42399978637695 C-5.882999897003174,45.50299835205078 -4.3470001220703125,45.57600021362305 -3.127000093460083,45.63399887084961 C-0.6800000071525574,45.69900131225586 2.48799991607666,45.70100021362305 4.86299991607666,45.43899917602539 C4.86299991607666,45.43899917602539 4.821000099182129,44.99399948120117 4.821000099182129,44.99399948120117 C4.751999855041504,44.2869987487793 4.710000038146973,43.257999420166016 4.686999797821045,42.03499984741211 C4.681000232696533,40.95399856567383 4.676000118255615,39.803001403808594 4.669000148773193,38.529998779296875 C4.709000110626221,37.058998107910156 4.752999782562256,35.38800048828125 4.840000152587891,34.1510009765625 C4.984000205993652,34.143001556396484 4.859000205993652,33.974998474121094 5.051000118255615,33.935001373291016 C4.9039998054504395,33.965999603271484 5.445000171661377,33.79999923706055 5.960999965667725,33.637001037597656 C6.438000202178955,33.49599838256836 6.886000156402588,33.3390007019043 7.2779998779296875,33.16999816894531 C8.043999671936035,32.874000549316406 8.506999969482422,32.69599914550781 8.875,32.55400085449219 C9.75100040435791,32.40999984741211 13.711000442504883,30.341999053955078 14.961000442504883,28.69099998474121 C16.16200065612793,27.277000427246094 16.888999938964844,26.766000747680664 16.96500015258789,26.714000701904297 C18.341999053955078,25.773000717163086 19.503999710083008,24.20199966430664 20.363000869750977,22.34600067138672 C21.472000122070312,19.951000213623047 22.07900047302246,17.082000732421875 21.9950008392334,14.482000350952148z"></path><path stroke-linecap="butt" stroke-linejoin="miter" fill-opacity="0" stroke-miterlimit="4" stroke="#000000" stroke-opacity="1" stroke-width="0px" d=" M21.9950008392334,14.482000350952148 C21.982999801635742,14.119999885559082 21.655000686645508,10.880000114440918 21.423999786376953,10.60200023651123 C21.382999420166016,8.342000007629395 20.97100067138672,6.675000190734863 20.327999114990234,5.326000213623047 C19.559999465942383,3.7149999141693115 18.461000442504883,2.559000015258789 17.27199935913086,1.3910000324249268 C15.654999732971191,-0.19699999690055847 14.307999610900879,-2.0759999752044678 12.413999557495117,-3.2049999237060547 C11.878000259399414,-3.5 11.621000289916992,-4.089000225067139 11.128999710083008,-4.416999816894531 C10.717000007629395,-4.693999767303467 8.486000061035156,-5.559000015258789 7.788000106811523,-5.89900016784668 C5.548999786376953,-7.0920000076293945 2.359999895095825,-8.041999816894531 1.8639999628067017,-8.364999771118164 C1.0520000457763672,-8.862000465393066 0.11800000071525574,-9.133999824523926 -0.7310000061988831,-9.508000373840332 C-2.98799991607666,-10.482999801635742 -4.927000045776367,-12.21399974822998 -6.142000198364258,-13.626999855041504 C-6.860000133514404,-14.494000434875488 -7.236999988555908,-15.166999816894531 -7.754000186920166,-16.082000732421875 C-8.446000099182129,-17.03499984741211 -7.785999774932861,-20.56100082397461 -6.017000198364258,-21.569000244140625 C-5.796999931335449,-21.63800048828125 -4.835999965667725,-22.483999252319336 -3.4040000438690186,-22.950000762939453 C-2.01200008392334,-23.461000442504883 -0.3009999990463257,-23.572999954223633 0.041999999433755875,-23.514999389648438 C0.7559999823570251,-23.476999282836914 4.302000045776367,-23.06999969482422 5.8460001945495605,-22.816999435424805 C6.796999931335449,-22.71500015258789 7.945000171661377,-22.101999282836914 7.945000171661377,-22.101999282836914 C8.27400016784668,-21.780000686645508 8.687000274658203,-21.658000946044922 9.123000144958496,-21.56100082397461 C9.59000015258789,-21.464000701904297 10.842000007629395,-20.98200035095215 11.581000328063965,-20.534000396728516 C12.85200023651123,-19.770000457763672 14.071000099182129,-19.099000930786133 15.152000427246094,-18.541000366210938 C15.63700008392334,-19.988000869750977 16.20599937438965,-21.683000564575195 16.63599967956543,-22.965999603271484 C16.916000366210938,-23.70599937438965 17.14299964904785,-24.305999755859375 17.441999435424805,-25.097000122070312 C17.652000427246094,-25.589000701904297 17.81800079345703,-25.89299964904785 18.065000534057617,-26.305999755859375 C18.45800018310547,-26.94700050354004 18.25200080871582,-27.766000747680664 18.534000396728516,-28.493999481201172 C19.084999084472656,-29.913999557495117 20.268999099731445,-30.881000518798828 19.56999969482422,-31.22599983215332 C19.476999282836914,-31.27199935913086 18.26099967956543,-32.69200134277344 17.179000854492188,-32.72999954223633 C16.56399917602539,-32.77299880981445 14.369999885559082,-34.32099914550781 13.555000305175781,-34.426998138427734 C12.789999961853027,-34.60300064086914 9.920000076293945,-35.694000244140625 8.137999534606934,-35.65700149536133 C7.333000183105469,-35.654998779296875 6.285999774932861,-35.856998443603516 5.7270002365112305,-35.97700119018555 C5.604000091552734,-36.05500030517578 5.59499979019165,-36.13199996948242 5.386000156402588,-36.06399917602539 C5.445000171661377,-36.16999816894531 5.656000137329102,-36.361000061035156 5.656000137329102,-36.361000061035156 C5.656000137329102,-36.53300094604492 5.2870001792907715,-35.89099884033203 5.295000076293945,-37.099998474121094 C5.307000160217285,-38.05099868774414 5.238999843597412,-39.16899871826172 5.179999828338623,-40.117000579833984 C5.119999885559082,-41.37300109863281 5.070000171661377,-43.051998138427734 5.114999771118164,-43.44900131225586 C5.199999809265137,-44.400001525878906 5.177000045776367,-45.327999114990234 5.14300012588501,-46.20500183105469 C4.617000102996826,-46.1870002746582 4.071000099182129,-46.167999267578125 3.6089999675750732,-46.15299987792969 C2.7009999752044678,-46.132999420166016 1.7920000553131104,-46.15299987792969 0.8669999837875366,-46.19499969482422 C-0.04399999976158142,-46.23699951171875 -0.9700000286102295,-46.30099868774414 -1.9259999990463257,-46.37099838256836 C-3.513000011444092,-46.487998962402344 -5.181000232696533,-46.62200164794922 -6.995999813079834,-46.70100021362305 C-7.013000011444092,-46.26599884033203 -7.0289998054504395,-45.86899948120117 -7.043000221252441,-45.50299835205078 C-7.111999988555908,-43.28300094604492 -7.109000205993652,-39.909000396728516 -6.807000160217285,-39.23400115966797 C-6.668000221252441,-38.65999984741211 -6.638999938964844,-37.41600036621094 -6.6539998054504395,-36.03900146484375 C-6.704999923706055,-35.1510009765625 -6.640999794006348,-35.35900115966797 -7.072000026702881,-35.39899826049805 C-7.373000144958496,-35.321998596191406 -8.489999771118164,-35.00400161743164 -9.234000205993652,-34.676998138427734 C-10.90999984741211,-34.051998138427734 -12.479000091552734,-33.10100173950195 -12.833000183105469,-32.96099853515625 C-13.583000183105469,-32.797000885009766 -16.79199981689453,-30.702999114990234 -17.739999771118164,-29.20400047302246 C-18.695999145507812,-27.819000244140625 -19.332000732421875,-27.382999420166016 -19.332000732421875,-27.382999420166016 C-20.216999053955078,-26.86400032043457 -20.256000518798828,-25.68400001525879 -20.757999420166016,-24.89900016784668 C-22.045000076293945,-22.886999130249023 -23.261999130249023,-20.283000946044922 -22.29800033569336,-17.884000778198242 C-22.118000030517578,-17.434999465942383 -22.652000427246094,-15.946999549865723 -22.621999740600586,-15.46500015258789 C-22.583999633789062,-14.85200023651123 -22.625,-13.28600025177002 -22.586999893188477,-12.67199993133545 C-22.45199966430664,-10.515000343322754 -21.805999755859375,-8.741000175476074 -20.756000518798828,-7.190999984741211 C-20.048999786376953,-6.146999835968018 -19.159000396728516,-5.203999996185303 -18.118999481201172,-4.315000057220459 C-16.469999313354492,-2.9049999713897705 -15.107999801635742,-1.1990000009536743 -13.269000053405762,-0.22699999809265137 C-12.760000228881836,0.05999999865889549 -12.501999855041504,0.6079999804496765 -12.02400016784668,0.8889999985694885 C-11.628999710083008,1.1510000228881836 -9.487000465393066,1.8869999647140503 -8.822999954223633,2.203000068664551 C-6.702000141143799,3.305000066757202 -3.6419999599456787,4.173999786376953 -3.134000062942505,4.488999843597412 C-2.378000020980835,4.941999912261963 -1.5160000324249268,5.190000057220459 -0.7149999737739563,5.5370001792907715 C1.3980000019073486,6.4710001945495605 3.0829999446868896,8.159000396728516 4.288000106811523,9.598999977111816 C5.01800012588501,10.470999717712402 5.53000020980835,11.270000457763672 6.145999908447266,12.131999969482422 C6.900000095367432,12.871999740600586 6.853000164031982,16.604000091552734 5.547999858856201,17.993999481201172 C5.320000171661377,18.104000091552734 4.677000045776367,19.179000854492188 3.562000036239624,19.99799919128418 C2.489000082015991,20.84600067138672 1.0399999618530273,21.371000289916992 0.7200000286102295,21.371999740600586 C0.4410000145435333,21.43899917602539 -3.638000011444092,21.753999710083008 -4.535999774932861,21.75200080871582 C-6.050000190734863,21.858999252319336 -6.656000137329102,21.427000045776367 -6.656000137329102,21.427000045776367 C-7.388999938964844,20.91699981689453 -8.355999946594238,21.274999618530273 -9.156000137329102,20.9950008392334 C-11.166999816894531,20.290000915527344 -12.991999626159668,20.332000732421875 -14.6899995803833,18.923999786376953 C-15.180999755859375,18.506999969482422 -15.810999870300293,17.95599937438965 -16.472000122070312,18.26799964904785 C-17.270000457763672,18.645000457763672 -18.665000915527344,16.791000366210938 -19.4689998626709,17.027999877929688 C-19.893999099731445,17.152999877929688 -21.41900062561035,18.909000396728516 -21.298999786376953,19.90999984741211 C-21.250999450683594,20.44700050354004 -21.990999221801758,21.902999877929688 -22.447999954223633,23.02899932861328 C-22.597000122070312,23.39699935913086 -22.715999603271484,23.729000091552734 -22.76799964904785,23.982999801635742 C-22.951000213623047,24.756999969482422 -23.71500015258789,26.618999481201172 -24.14299964904785,28.584999084472656 C-22.795000076293945,29.534000396728516 -20.850000381469727,30.75200080871582 -19.625999450683594,31.27899932861328 C-19.368999481201172,31.389999389648438 -19.145000457763672,31.4689998626709 -18.964000701904297,31.510000228881836 C-16.979000091552734,32.1150016784668 -15.199999809265137,33.24100112915039 -13.177000045776367,33.56700134277344 C-12.609000205993652,33.643001556396484 -12.194999694824219,34.11000061035156 -11.651000022888184,34.2140007019043 C-11.20199966430664,34.33599853515625 -8.918999671936035,34.33599853515625 -8.168000221252441,34.41299819946289 C-7.459000110626221,34.5 -7.672999858856201,34.417999267578125 -7.302000045776367,34.387001037597656 C-7.2179999351501465,34.54600143432617 -7.160999774932861,34.810001373291016 -7.206999778747559,34.88600158691406 C-7.339000225067139,35.327999114990234 -7.214000225067139,36.61899948120117 -7.183000087738037,37.435001373291016 C-7.127999782562256,38.55099868774414 -7.372000217437744,41.96500015258789 -7.568999767303467,45.42399978637695 C-5.882999897003174,45.50299835205078 -4.3470001220703125,45.57600021362305 -3.127000093460083,45.63399887084961 C-0.6800000071525574,45.69900131225586 2.48799991607666,45.70100021362305 4.86299991607666,45.43899917602539 C4.86299991607666,45.43899917602539 4.821000099182129,44.99399948120117 4.821000099182129,44.99399948120117 C4.751999855041504,44.2869987487793 4.710000038146973,43.257999420166016 4.686999797821045,42.03499984741211 C4.681000232696533,40.95399856567383 4.676000118255615,39.803001403808594 4.669000148773193,38.529998779296875 C4.709000110626221,37.058998107910156 4.752999782562256,35.38800048828125 4.840000152587891,34.1510009765625 C4.984000205993652,34.143001556396484 4.859000205993652,33.974998474121094 5.051000118255615,33.935001373291016 C4.9039998054504395,33.965999603271484 5.445000171661377,33.79999923706055 5.960999965667725,33.637001037597656 C6.438000202178955,33.49599838256836 6.886000156402588,33.3390007019043 7.2779998779296875,33.16999816894531 C8.043999671936035,32.874000549316406 8.506999969482422,32.69599914550781 8.875,32.55400085449219 C9.75100040435791,32.40999984741211 13.711000442504883,30.341999053955078 14.961000442504883,28.69099998474121 C16.16200065612793,27.277000427246094 16.888999938964844,26.766000747680664 16.96500015258789,26.714000701904297 C18.341999053955078,25.773000717163086 19.503999710083008,24.20199966430664 20.363000869750977,22.34600067138672 C21.472000122070312,19.951000213623047 22.07900047302246,17.082000732421875 21.9950008392334,14.482000350952148z"></path></g><g opacity="1" transform="matrix(1,0,0,1,0,0)"><path fill="#792F6B" fill-opacity="1" d="M0 0"></path><path stroke-linecap="butt" stroke-linejoin="miter" fill-opacity="0" stroke-miterlimit="4" stroke="#000000" stroke-opacity="1" stroke-width="0px" d="M0 0"></path></g><g opacity="1" transform="matrix(1,0,0,1,0,0)"><path fill="#792F6B" fill-opacity="1" d="M0 0"></path><path stroke-linecap="butt" stroke-linejoin="miter" fill-opacity="0" stroke-miterlimit="4" stroke="#000000" stroke-opacity="1" stroke-width="0px" d="M0 0"></path></g><g opacity="1" transform="matrix(1,0,0,1,0,0)"><path fill="#792F6B" fill-opacity="1" d=" M-1291.5,-53"></path><path stroke-linecap="butt" stroke-linejoin="miter" fill-opacity="0" stroke-miterlimit="4" stroke="#000000" stroke-opacity="1" stroke-width="0px" d=" M-1291.5,-53"></path></g></g><g transform="matrix(1,0,0,1,139.5,299.5)" opacity="1" style="display: block;"><g opacity="1" transform="matrix(1,0,0,1,0,0)"><path fill="#792F6B" fill-opacity="1" d=" M20.94300079345703,92.17900085449219 C20.94300079345703,92.17900085449219 25.0310001373291,90.28399658203125 28.045000076293945,89.32099914550781 C31.125999450683594,88.56300354003906 34.0989990234375,86.12899780273438 32.257999420166016,84.58100128173828 C30.724000930786133,82.86699676513672 25.965999603271484,74.39399719238281 23.20800018310547,72.89800262451172 C19.959999084472656,69.91400146484375 10.425000190734863,63.856998443603516 5.1620001792907715,63.50899887084961 C1.2309999465942383,63.249000549316406 -2.86899995803833,63.18199920654297 -6.693999767303467,62.15399932861328 C-12.04800033569336,60.71500015258789 -11.220000267028809,58.09000015258789 -11.687000274658203,53.17100143432617 C-12.897000312805176,40.439998626708984 -12.51200008392334,30.541000366210938 -11.553000450134277,18.06399917602539 C-11.532999992370605,16.128000259399414 -11.559000015258789,14.190999984741211 -11.70199966430664,12.260000228881836 C-11.781999588012695,11.177000045776367 -11.899999618530273,10.095000267028809 -12.065999984741211,9.017000198364258 C-12.237000465393066,7.9070000648498535 -12.461000442504883,6.800000190734863 -12.75,5.697999954223633 C-15.744000434875488,-5.724999904632568 -11.468000411987305,-16.95800018310547 -13.463000297546387,-28.165000915527344 C-14.085000038146973,-31.656999588012695 -15.524999618530273,-35.12099838256836 -14.545999526977539,-38.70500183105469 C-13.697999954223633,-41.81100082397461 -10.626999855041504,-43.185001373291016 -8.482999801635742,-45.62300109863281 C-6.295000076293945,-48.11199951171875 -4.460999965667725,-51.4370002746582 -1.8669999837875366,-53.49700164794922 C-0.44600000977516174,-54.625 0.2619999945163727,-56.242000579833984 0.7929999828338623,-57.939998626708984 C1.2769999504089355,-59.486000061035156 1.6150000095367432,-61.099998474121094 2.2130000591278076,-62.474998474121094 C5.333000183105469,-70.3550033569336 3.8570001125335693,-76.70099639892578 4.698999881744385,-84.31400299072266 C6.210000038146973,-94.36100006103516 -2.885999917984009,-91.0530014038086 -11.303000450134277,-88.83399963378906 C-15.444000244140625,-87.60099792480469 -13.026000022888184,-83.53399658203125 -12.503000259399414,-82.67500305175781 C-12.187999725341797,-82.26699829101562 -12.258999824523926,-80.78199768066406 -12.35200023651123,-79.05500030517578 C-12.84000015258789,-73.70800018310547 -14.302000045776367,-68.80899810791016 -17.31800079345703,-64.62799835205078 C-18.52899932861328,-62.95000076293945 -18.486000061035156,-60.87799835205078 -19.9689998626709,-59.23500061035156 C-21.604999542236328,-57.42399978637695 -32.01900100708008,-52.05500030517578 -31.582000732421875,-49.117000579833984 C-30.224000930786133,-39.972999572753906 -30.937000274658203,-29.867000579833984 -31.22800064086914,-19.975000381469727 C-31.500999450683594,-10.694000244140625 -31.400999069213867,-1.600000023841858 -28.8700008392334,6.334000110626221 C-27.756000518798828,11.5 -29.069000244140625,16.73699951171875 -29.54599952697754,21.948999404907227 C-30.025999069213867,27.187999725341797 -29.023000717163086,32.380001068115234 -28.847000122070312,37.60100173950195 C-28.66699981689453,42.93899917602539 -28.31599998474121,48.266998291015625 -27.91200065612793,53.590999603271484 C-27.516000747680664,58.81999969482422 -27.06800079345703,64.04499816894531 -26.679000854492188,69.27400207519531 C-26.549999237060547,71.01300048828125 -27.10700035095215,75.99600219726562 -26.13800048828125,77.35199737548828 C-25,78.94499969482422 -22.614999771118164,78.54000091552734 -20.54199981689453,78.57099914550781 C-14.989999771118164,78.65499877929688 -9.432999610900879,78.01899719238281 -3.8910000324249268,78.5979995727539 C0.8460000157356262,79.09300231933594 6.48199987411499,82.9990005493164 8.4350004196167,83.45899963378906 C10.779999732971191,83.52100372314453 16.211000442504883,90.16200256347656 16.52400016784668,92.39299774169922 C17.04400062561035,94.36100006103516 20.85700035095215,92.03500366210938 20.94300079345703,92.17900085449219z"></path><path stroke-linecap="butt" stroke-linejoin="miter" fill-opacity="0" stroke-miterlimit="4" stroke="#000000" stroke-opacity="1" stroke-width="0px" d=" M20.94300079345703,92.17900085449219 C20.94300079345703,92.17900085449219 25.0310001373291,90.28399658203125 28.045000076293945,89.32099914550781 C31.125999450683594,88.56300354003906 34.0989990234375,86.12899780273438 32.257999420166016,84.58100128173828 C30.724000930786133,82.86699676513672 25.965999603271484,74.39399719238281 23.20800018310547,72.89800262451172 C19.959999084472656,69.91400146484375 10.425000190734863,63.856998443603516 5.1620001792907715,63.50899887084961 C1.2309999465942383,63.249000549316406 -2.86899995803833,63.18199920654297 -6.693999767303467,62.15399932861328 C-12.04800033569336,60.71500015258789 -11.220000267028809,58.09000015258789 -11.687000274658203,53.17100143432617 C-12.897000312805176,40.439998626708984 -12.51200008392334,30.541000366210938 -11.553000450134277,18.06399917602539 C-11.532999992370605,16.128000259399414 -11.559000015258789,14.190999984741211 -11.70199966430664,12.260000228881836 C-11.781999588012695,11.177000045776367 -11.899999618530273,10.095000267028809 -12.065999984741211,9.017000198364258 C-12.237000465393066,7.9070000648498535 -12.461000442504883,6.800000190734863 -12.75,5.697999954223633 C-15.744000434875488,-5.724999904632568 -11.468000411987305,-16.95800018310547 -13.463000297546387,-28.165000915527344 C-14.085000038146973,-31.656999588012695 -15.524999618530273,-35.12099838256836 -14.545999526977539,-38.70500183105469 C-13.697999954223633,-41.81100082397461 -10.626999855041504,-43.185001373291016 -8.482999801635742,-45.62300109863281 C-6.295000076293945,-48.11199951171875 -4.460999965667725,-51.4370002746582 -1.8669999837875366,-53.49700164794922 C-0.44600000977516174,-54.625 0.2619999945163727,-56.242000579833984 0.7929999828338623,-57.939998626708984 C1.2769999504089355,-59.486000061035156 1.6150000095367432,-61.099998474121094 2.2130000591278076,-62.474998474121094 C5.333000183105469,-70.3550033569336 3.8570001125335693,-76.70099639892578 4.698999881744385,-84.31400299072266 C6.210000038146973,-94.36100006103516 -2.885999917984009,-91.0530014038086 -11.303000450134277,-88.83399963378906 C-15.444000244140625,-87.60099792480469 -13.026000022888184,-83.53399658203125 -12.503000259399414,-82.67500305175781 C-12.187999725341797,-82.26699829101562 -12.258999824523926,-80.78199768066406 -12.35200023651123,-79.05500030517578 C-12.84000015258789,-73.70800018310547 -14.302000045776367,-68.80899810791016 -17.31800079345703,-64.62799835205078 C-18.52899932861328,-62.95000076293945 -18.486000061035156,-60.87799835205078 -19.9689998626709,-59.23500061035156 C-21.604999542236328,-57.42399978637695 -32.01900100708008,-52.05500030517578 -31.582000732421875,-49.117000579833984 C-30.224000930786133,-39.972999572753906 -30.937000274658203,-29.867000579833984 -31.22800064086914,-19.975000381469727 C-31.500999450683594,-10.694000244140625 -31.400999069213867,-1.600000023841858 -28.8700008392334,6.334000110626221 C-27.756000518798828,11.5 -29.069000244140625,16.73699951171875 -29.54599952697754,21.948999404907227 C-30.025999069213867,27.187999725341797 -29.023000717163086,32.380001068115234 -28.847000122070312,37.60100173950195 C-28.66699981689453,42.93899917602539 -28.31599998474121,48.266998291015625 -27.91200065612793,53.590999603271484 C-27.516000747680664,58.81999969482422 -27.06800079345703,64.04499816894531 -26.679000854492188,69.27400207519531 C-26.549999237060547,71.01300048828125 -27.10700035095215,75.99600219726562 -26.13800048828125,77.35199737548828 C-25,78.94499969482422 -22.614999771118164,78.54000091552734 -20.54199981689453,78.57099914550781 C-14.989999771118164,78.65499877929688 -9.432999610900879,78.01899719238281 -3.8910000324249268,78.5979995727539 C0.8460000157356262,79.09300231933594 6.48199987411499,82.9990005493164 8.4350004196167,83.45899963378906 C10.779999732971191,83.52100372314453 16.211000442504883,90.16200256347656 16.52400016784668,92.39299774169922 C17.04400062561035,94.36100006103516 20.85700035095215,92.03500366210938 20.94300079345703,92.17900085449219z"></path></g></g><g transform="matrix(1,0,0,1,308,300)" opacity="1" style="display: block;"><g opacity="1" transform="matrix(1,0,0,1,144.97999572753906,4.561999797821045)"><path fill="#792F6B" fill-opacity="1" d=" M-3.23799991607666,88.7040023803711 C-3.0850000381469727,88.10299682617188 11.748000144958496,88.47200012207031 10.152000427246094,85.84300231933594 C9.0649995803833,84.427001953125 10.482000350952148,78.05999755859375 10.515999794006348,76.36000061035156 C10.484999656677246,76.19400024414062 10.472000122070312,75.9990005493164 10.47599983215332,75.7770004272461 C10.520000457763672,73.31700134277344 12.602999687194824,67.66100311279297 13.90999984741211,64.30500030517578 C15.23799991607666,60.40599822998047 19.218000411987305,58.558998107910156 22.01099967956543,55.97700119018555 C23.325000762939453,55.20199966430664 30.9689998626709,53.8849983215332 32.512001037597656,53.30699920654297 C34.50299835205078,50.917999267578125 32.512001037597656,48.30699920654297 32.090999603271484,44.73400115966797 C31.937999725341797,42.21699905395508 31.687000274658203,39.444000244140625 31.416000366210938,36.65399932861328 C30.966999053955078,32.03300094604492 30.464000701904297,27.36400032043457 30.256000518798828,23.725000381469727 C29.4689998626709,14.434000015258789 29.849000930786133,5.308000087738037 30.464000701904297,-4.11899995803833 C30.45599937438965,-6.614999771118164 30.367000579833984,-9.109999656677246 30.034000396728516,-11.588000297546387 C29.82900047302246,-13.116999626159668 29.5310001373291,-14.638999938964844 29.101999282836914,-16.14900016784668 C28.070999145507812,-19.77899932861328 27.881999969482422,-32.066001892089844 27.74799919128418,-39.17900085449219 C28.367000579833984,-41.57400131225586 27.48900032043457,-49.91600036621094 26.868000030517578,-58.24599838256836 C26.490999221801758,-63.303001403808594 26.209999084472656,-68.3550033569336 26.416000366210938,-72.06900024414062 C26.611000061035156,-74.5270004272461 25.91900062561035,-73.82499694824219 23.9950008392334,-73.92900085449219 C18.226999282836914,-73.9729995727539 11.527999877929688,-73.7020034790039 5.954999923706055,-73.94499969482422 C2.1679999828338623,-73.83200073242188 1.0049999952316284,-75.35299682617188 1.0049999952316284,-75.35299682617188 C-0.4230000078678131,-76.98100280761719 -2.86299991607666,-76.24199676513672 -4.4670000076293945,-77.38700103759766 C-8.315999984741211,-80.08999633789062 -12.680999755859375,-81.31199645996094 -14.368000030517578,-86.30899810791016 C-14.79699993133545,-87.77400207519531 -15.211999893188477,-89.552001953125 -17.22599983215332,-89.51499938964844 C-19.18899917602539,-89.28700256347656 -25.88599967956543,-87.5780029296875 -30.715999603271484,-84.7760009765625 C-34.50199890136719,-82.38400268554688 -29.850000381469727,-77.05799865722656 -28.610000610351562,-76.56500244140625 C-27.55900001525879,-75.83699798583984 -24.038999557495117,-69.49099731445312 -20.413999557495117,-66.87699890136719 C-16.288999557495117,-63.5890007019043 -11.71500015258789,-59.71500015258789 -6.500999927520752,-57.827999114990234 C-2.436000108718872,-56.736000061035156 1.9359999895095825,-56.875 6.085999965667725,-56.21900177001953 C9.472999572753906,-55.683998107910156 9.793999671936035,-56.14899826049805 10.480999946594238,-52.96099853515625 C11.95199966430664,-46.13199996948242 10.324999809265137,-37.332000732421875 10.13599967956543,-30.357999801635742 C10.008000373840332,-25.648000717163086 12.335000038146973,-18.062000274658203 12.991999626159668,-15.276000022888184 C14.173999786376953,-10.260000228881836 12.932000160217285,-5.136000156402588 12.52400016784668,-0.05000000074505806 C12.420999526977539,1.2330000400543213 12.413000106811523,2.51200008392334 12.460000038146973,3.7880001068115234 C12.465999603271484,3.9570000171661377 12.472999572753906,4.126999855041504 12.480999946594238,4.296000003814697 C12.552000045776367,5.763999938964844 12.692999839782715,7.229000091552734 12.845999717712402,8.692999839782715 C13.072999954223633,10.857000350952148 13.32800006866455,13.020000457763672 13.432999610900879,15.1899995803833 C13.51099967956543,17.402000427246094 13.612000465393066,19.613000869750977 13.73799991607666,21.822999954223633 C13.88599967956543,24.417999267578125 14.067999839782715,27.010000228881836 14.282999992370605,29.600000381469727 C14.472000122070312,31.875999450683594 16.614999771118164,39.48699951171875 15.131999969482422,41.362998962402344 C14.718000411987305,41.887001037597656 11.770999908447266,42.50299835205078 10.994999885559082,42.952999114990234 C7.886000156402588,44.75400161743164 5.316999912261963,47.60499954223633 3.0920000076293945,50.375 C-0.5410000085830688,54.89799880981445 -5.909999847412109,62.082000732421875 -5.739999771118164,68.25399780273438 C-5.953999996185303,71.2979965209961 -7.638999938964844,83.01899719238281 -7.410999774932861,86.24299621582031 C-7.704999923706055,89.552001953125 -3.23799991607666,88.7040023803711 -3.23799991607666,88.7040023803711z"></path><path stroke-linecap="butt" stroke-linejoin="miter" fill-opacity="0" stroke-miterlimit="4" stroke="#000000" stroke-opacity="1" stroke-width="0px" d=" M-3.23799991607666,88.7040023803711 C-3.0850000381469727,88.10299682617188 11.748000144958496,88.47200012207031 10.152000427246094,85.84300231933594 C9.0649995803833,84.427001953125 10.482000350952148,78.05999755859375 10.515999794006348,76.36000061035156 C10.484999656677246,76.19400024414062 10.472000122070312,75.9990005493164 10.47599983215332,75.7770004272461 C10.520000457763672,73.31700134277344 12.602999687194824,67.66100311279297 13.90999984741211,64.30500030517578 C15.23799991607666,60.40599822998047 19.218000411987305,58.558998107910156 22.01099967956543,55.97700119018555 C23.325000762939453,55.20199966430664 30.9689998626709,53.8849983215332 32.512001037597656,53.30699920654297 C34.50299835205078,50.917999267578125 32.512001037597656,48.30699920654297 32.090999603271484,44.73400115966797 C31.937999725341797,42.21699905395508 31.687000274658203,39.444000244140625 31.416000366210938,36.65399932861328 C30.966999053955078,32.03300094604492 30.464000701904297,27.36400032043457 30.256000518798828,23.725000381469727 C29.4689998626709,14.434000015258789 29.849000930786133,5.308000087738037 30.464000701904297,-4.11899995803833 C30.45599937438965,-6.614999771118164 30.367000579833984,-9.109999656677246 30.034000396728516,-11.588000297546387 C29.82900047302246,-13.116999626159668 29.5310001373291,-14.638999938964844 29.101999282836914,-16.14900016784668 C28.070999145507812,-19.77899932861328 27.881999969482422,-32.066001892089844 27.74799919128418,-39.17900085449219 C28.367000579833984,-41.57400131225586 27.48900032043457,-49.91600036621094 26.868000030517578,-58.24599838256836 C26.490999221801758,-63.303001403808594 26.209999084472656,-68.3550033569336 26.416000366210938,-72.06900024414062 C26.611000061035156,-74.5270004272461 25.91900062561035,-73.82499694824219 23.9950008392334,-73.92900085449219 C18.226999282836914,-73.9729995727539 11.527999877929688,-73.7020034790039 5.954999923706055,-73.94499969482422 C2.1679999828338623,-73.83200073242188 1.0049999952316284,-75.35299682617188 1.0049999952316284,-75.35299682617188 C-0.4230000078678131,-76.98100280761719 -2.86299991607666,-76.24199676513672 -4.4670000076293945,-77.38700103759766 C-8.315999984741211,-80.08999633789062 -12.680999755859375,-81.31199645996094 -14.368000030517578,-86.30899810791016 C-14.79699993133545,-87.77400207519531 -15.211999893188477,-89.552001953125 -17.22599983215332,-89.51499938964844 C-19.18899917602539,-89.28700256347656 -25.88599967956543,-87.5780029296875 -30.715999603271484,-84.7760009765625 C-34.50199890136719,-82.38400268554688 -29.850000381469727,-77.05799865722656 -28.610000610351562,-76.56500244140625 C-27.55900001525879,-75.83699798583984 -24.038999557495117,-69.49099731445312 -20.413999557495117,-66.87699890136719 C-16.288999557495117,-63.5890007019043 -11.71500015258789,-59.71500015258789 -6.500999927520752,-57.827999114990234 C-2.436000108718872,-56.736000061035156 1.9359999895095825,-56.875 6.085999965667725,-56.21900177001953 C9.472999572753906,-55.683998107910156 9.793999671936035,-56.14899826049805 10.480999946594238,-52.96099853515625 C11.95199966430664,-46.13199996948242 10.324999809265137,-37.332000732421875 10.13599967956543,-30.357999801635742 C10.008000373840332,-25.648000717163086 12.335000038146973,-18.062000274658203 12.991999626159668,-15.276000022888184 C14.173999786376953,-10.260000228881836 12.932000160217285,-5.136000156402588 12.52400016784668,-0.05000000074505806 C12.420999526977539,1.2330000400543213 12.413000106811523,2.51200008392334 12.460000038146973,3.7880001068115234 C12.465999603271484,3.9570000171661377 12.472999572753906,4.126999855041504 12.480999946594238,4.296000003814697 C12.552000045776367,5.763999938964844 12.692999839782715,7.229000091552734 12.845999717712402,8.692999839782715 C13.072999954223633,10.857000350952148 13.32800006866455,13.020000457763672 13.432999610900879,15.1899995803833 C13.51099967956543,17.402000427246094 13.612000465393066,19.613000869750977 13.73799991607666,21.822999954223633 C13.88599967956543,24.417999267578125 14.067999839782715,27.010000228881836 14.282999992370605,29.600000381469727 C14.472000122070312,31.875999450683594 16.614999771118164,39.48699951171875 15.131999969482422,41.362998962402344 C14.718000411987305,41.887001037597656 11.770999908447266,42.50299835205078 10.994999885559082,42.952999114990234 C7.886000156402588,44.75400161743164 5.316999912261963,47.60499954223633 3.0920000076293945,50.375 C-0.5410000085830688,54.89799880981445 -5.909999847412109,62.082000732421875 -5.739999771118164,68.25399780273438 C-5.953999996185303,71.2979965209961 -7.638999938964844,83.01899719238281 -7.410999774932861,86.24299621582031 C-7.704999923706055,89.552001953125 -3.23799991607666,88.7040023803711 -3.23799991607666,88.7040023803711z"></path></g></g></g></svg>